<svg width="30" height="30" viewBox="0 0 30 30" fill="none" xmlns="http://www.w3.org/2000/svg">
<path d="M24.2971 17.3492L23.1525 16.2046C23.2827 15.9373 23.3511 15.6442 23.3527 15.347C23.3527 14.951 23.2352 14.5638 23.0152 14.2346C22.7952 13.9053 22.4825 13.6487 22.1167 13.4971C21.7508 13.3456 21.3482 13.3059 20.9598 13.3832C20.5714 13.4605 20.2147 13.6512 19.9347 13.9312C19.6546 14.2112 19.4639 14.5679 19.3867 14.9563C19.3094 15.3447 19.3491 15.7473 19.5006 16.1132C19.6522 16.479 19.9088 16.7917 20.2381 17.0118C20.5673 17.2318 20.9544 17.3492 21.3504 17.3492C21.6479 17.3477 21.9413 17.2793 22.2087 17.149L23.3527 18.2929V23.3559H19.3482V21.3537C19.3468 20.115 18.8541 18.9275 17.9783 18.0517C17.1024 17.1759 15.915 16.6832 14.6763 16.6818H10.6719C9.43325 16.6832 8.24576 17.1759 7.36992 18.0517C6.49408 18.9275 6.00141 20.115 6 21.3537V24.6907H24.6875V18.2929C24.688 18.1176 24.6537 17.944 24.5867 17.782C24.5197 17.62 24.4213 17.4729 24.2971 17.3492ZM7.33482 21.3537C7.33588 20.4689 7.6878 19.6208 8.31339 18.9952C8.93898 18.3696 9.78716 18.0177 10.6719 18.0166H14.6763C15.5611 18.0177 16.4092 18.3696 17.0348 18.9952C17.6604 19.6208 18.0123 20.4689 18.0134 21.3537V23.3559H7.33482V21.3537Z" fill="#949499"/>
<path d="M12.6743 7.33482C13.3343 7.33482 13.9795 7.53054 14.5283 7.89722C15.0771 8.2639 15.5048 8.78507 15.7574 9.39484C16.0099 10.0046 16.076 10.6756 15.9472 11.3229C15.8185 11.9702 15.5007 12.5648 15.034 13.0315C14.5673 13.4982 13.9727 13.816 13.3253 13.9448C12.678 14.0736 12.007 14.0075 11.3973 13.7549C10.7875 13.5023 10.2663 13.0746 9.89966 12.5258C9.53298 11.9771 9.33726 11.3319 9.33726 10.6719C9.33726 9.78683 9.68885 8.93804 10.3147 8.31222C10.9405 7.6864 11.7893 7.33482 12.6743 7.33482ZM12.6743 6C11.7503 6 10.847 6.274 10.0788 6.78735C9.31048 7.30071 8.71167 8.03035 8.35807 8.88403C8.00447 9.7377 7.91195 10.6771 8.09221 11.5833C8.27248 12.4896 8.71743 13.322 9.3708 13.9754C10.0242 14.6288 10.8566 15.0737 11.7629 15.254C12.6691 15.4342 13.6085 15.3417 14.4622 14.9881C15.3158 14.6345 16.0455 14.0357 16.5588 13.2674C17.0722 12.4991 17.3462 11.5959 17.3462 10.6719C17.3462 9.43282 16.854 8.24451 15.9778 7.36836C15.1017 6.49221 13.9134 6 12.6743 6Z" fill="#949499"/>
</svg>
