<svg width="30" height="30" viewBox="0 0 30 30" fill="none" xmlns="http://www.w3.org/2000/svg">
<path fill-rule="evenodd" clip-rule="evenodd" d="M15.8694 6.6503C15.8694 6.47783 15.8009 6.31242 15.6789 6.19047C15.557 6.06851 15.3916 6 15.2191 6C15.0466 6 14.8812 6.06851 14.7593 6.19047C14.6373 6.31242 14.5688 6.47783 14.5688 6.6503V8.16766H12.8572C12.5526 8.16752 12.255 8.25907 12.0032 8.43038L10.5335 9.43097C10.4974 9.4554 10.4548 9.4684 10.4112 9.46825H6.85454C6.68207 9.46825 6.51666 9.53677 6.39471 9.65872C6.27276 9.78068 6.20424 9.94608 6.20424 10.1186C6.20424 10.291 6.27276 10.4564 6.39471 10.5784C6.51666 10.7003 6.68207 10.7688 6.85454 10.7688H8.2219L5.3025 17.4279C5.24735 17.5578 5.23528 17.702 5.26805 17.8394C5.30081 17.9767 5.3767 18.0999 5.48458 18.1909C5.55394 18.2464 5.62418 18.2993 5.7525 18.3825C5.91378 18.4874 6.14441 18.6236 6.43922 18.758C7.02882 19.0276 7.88028 19.2956 8.93289 19.2956C9.79304 19.2972 10.6435 19.1139 11.4266 18.758C11.7214 18.6236 11.952 18.4874 12.1133 18.3825C12.2433 18.2984 12.3127 18.2455 12.3821 18.1892C12.4908 18.0992 12.5673 17.9762 12.6 17.8388C12.6327 17.7015 12.6198 17.5573 12.5633 17.4279L9.64301 10.7688H10.4112C10.7156 10.7688 11.013 10.6769 11.2644 10.5061L12.735 9.50554C12.7708 9.48127 12.8131 9.46829 12.8564 9.46825H14.5688V22.0407H10.6783C10.5058 22.0407 10.3404 22.1092 10.2185 22.2311C10.0965 22.3531 10.028 22.5185 10.028 22.691C10.028 22.8634 10.0965 23.0288 10.2185 23.1508C10.3404 23.2728 10.5058 23.3413 10.6783 23.3413H19.7599C19.9324 23.3413 20.0978 23.2728 20.2197 23.1508C20.3417 23.0288 20.4102 22.8634 20.4102 22.691C20.4102 22.5185 20.3417 22.3531 20.2197 22.2311C20.0978 22.1092 19.9324 22.0407 19.7599 22.0407H15.8694V9.46825H17.581C17.6243 9.46825 17.6677 9.48126 17.7024 9.50554L19.1738 10.5061C19.4252 10.6769 19.7226 10.7688 20.027 10.7688H20.7952L17.8749 17.4279C17.8165 17.561 17.8044 17.7099 17.8406 17.8507C17.8767 17.9916 17.959 18.1162 18.0743 18.2048C18.0847 18.2126 18.0743 18.2048 18.0761 18.2048C18.1621 18.2696 18.2518 18.3292 18.3449 18.3834C18.5053 18.4805 18.735 18.6054 19.0298 18.7302C19.8139 19.0579 20.6556 19.2254 21.5053 19.2227C22.3554 19.2252 23.1974 19.0575 23.9816 18.7294C24.2747 18.6054 24.5053 18.4805 24.6666 18.3834C24.7593 18.3287 24.849 18.269 24.9354 18.2048C25.0507 18.1162 25.133 17.9916 25.1692 17.8507C25.2053 17.7099 25.1932 17.561 25.1348 17.4279L22.2163 10.7688H23.5845C23.757 10.7688 23.9224 10.7003 24.0444 10.5784C24.1663 10.4564 24.2348 10.291 24.2348 10.1186C24.2348 9.94608 24.1663 9.78068 24.0444 9.65872C23.9224 9.53677 23.757 9.46825 23.5845 9.46825H20.0278C19.9846 9.46822 19.9423 9.45524 19.9064 9.43097L18.435 8.43038C18.1834 8.25923 17.8862 8.1677 17.5818 8.16766H15.8694V6.6503ZM6.71581 17.4435C7.39828 17.8067 8.15982 17.9958 8.93289 17.9941C9.70596 17.9958 10.4675 17.8067 11.15 17.4435L8.93289 12.3885L6.71581 17.4435ZM19.2969 17.4227C19.368 17.4574 19.4478 17.4947 19.5353 17.5319C19.9949 17.7253 20.6669 17.9221 21.5053 17.9221C22.2697 17.9243 23.0247 17.7536 23.7137 17.4227L21.5053 12.3877L19.2969 17.4227Z" fill="#949499"/>
</svg>
