<svg width="30" height="30" viewBox="0 0 30 30" fill="none" xmlns="http://www.w3.org/2000/svg">
<path d="M10.3848 3.14607C10.2375 3.17058 10.0982 3.23036 9.97891 3.3203C7.00408 5.27294 5.02734 8.62496 5.02734 12.4431C5.02734 18.162 9.44511 22.8625 15.0473 23.3323V24.4324C13.1817 24.6464 11.8324 25.4175 11.8324 25.4175C11.6702 25.5154 11.5443 25.6634 11.4736 25.8391C11.4028 26.0148 11.3911 26.2088 11.4401 26.3918C11.4891 26.5747 11.5963 26.7368 11.7454 26.8536C11.8946 26.9704 12.0776 27.0356 12.267 27.0393H19.6809C19.8703 27.0356 20.0534 26.9704 20.2025 26.8536C20.3517 26.7368 20.4588 26.5747 20.5079 26.3918C20.5569 26.2088 20.5452 26.0148 20.4744 25.8391C20.4037 25.6634 20.2777 25.5154 20.1156 25.4175C20.1156 25.4175 18.7663 24.6464 16.9007 24.4324V23.361C18.7109 23.2029 20.453 22.5955 21.9691 21.5938C22.0868 21.5354 22.1907 21.4527 22.274 21.3512C22.3573 21.2496 22.4181 21.1315 22.4523 21.0047C22.4865 20.8779 22.4933 20.7453 22.4724 20.6156C22.4514 20.4859 22.4031 20.3622 22.3307 20.2526C22.2583 20.143 22.1635 20.0501 22.0524 19.9799C21.9414 19.9098 21.8167 19.864 21.6866 19.8457C21.5565 19.8274 21.4241 19.837 21.298 19.8738C21.1719 19.9105 21.055 19.9737 20.9552 20.0591C19.5257 20.9987 17.8578 21.5112 16.1473 21.5363C16.0328 21.5145 15.9152 21.5145 15.8007 21.5363C13.4186 21.4918 11.1492 20.514 9.48087 18.8132C7.8125 17.1125 6.87851 14.8247 6.8799 12.4422C6.88082 9.25978 8.52301 6.47678 10.9928 4.85498C11.1742 4.744 11.3119 4.57399 11.3828 4.37349C11.4538 4.17299 11.4536 3.95419 11.3823 3.75382C11.311 3.55345 11.173 3.38369 10.9914 3.27303C10.8097 3.16237 10.5956 3.11754 10.3848 3.14607ZM15.974 4.10247C14.4847 4.10247 13.0955 4.50097 11.8908 5.20251C11.7712 5.25626 11.6563 5.33225 11.5432 5.40547C11.3976 5.49784 11.2616 5.60465 11.1373 5.72426C9.13095 7.21446 7.80664 9.58784 7.80664 12.2689C7.80664 13.8564 8.26259 15.3271 9.05217 16.5838C9.08238 16.647 9.12138 16.7057 9.16802 16.758C10.6341 18.9609 13.1409 20.4363 15.974 20.4363C17.5464 20.4424 19.0863 19.9893 20.4047 19.1323C20.4474 19.1055 20.4807 19.0749 20.5206 19.0461C22.6938 17.5745 24.1413 15.0788 24.1413 12.2689C24.1442 10.7766 23.7329 9.31268 22.9533 8.04019C22.9144 7.91861 22.8448 7.80911 22.7512 7.72232C22.7429 7.71119 22.729 7.70378 22.7216 7.69266C22.7038 7.6725 22.6849 7.65332 22.665 7.6352C21.185 5.51667 18.7412 4.10154 15.974 4.10154V4.10247ZM15.974 5.60842C16.5819 5.60842 17.1815 5.68905 17.7404 5.84011L16.7265 6.50551C16.3929 6.24602 16.05 6.01063 15.7136 5.81045C15.6051 5.74651 15.5041 5.69461 15.3948 5.63715C15.5829 5.6214 15.7812 5.60842 15.974 5.60842ZM13.1067 6.44805C13.6043 6.43878 14.2354 6.62598 14.9601 7.05599C15.0982 7.13754 15.2548 7.24782 15.3948 7.34606L11.7453 9.69071C11.7147 9.5239 11.6758 9.35708 11.6591 9.19954C11.5136 7.85762 11.8593 6.98741 12.3829 6.651C12.3903 6.64637 12.4051 6.65471 12.4116 6.651C12.6044 6.53331 12.8203 6.45268 13.1067 6.44712V6.44805ZM19.3622 6.56389C19.372 6.56409 19.3819 6.56409 19.3918 6.56389C20.0665 6.9661 20.6661 7.4619 21.1582 8.06984L19.3047 9.257C18.8515 8.62311 18.3881 8.02721 17.8849 7.51936L19.3622 6.56389ZM16.5819 8.35899C17.1122 8.88669 17.5967 9.45837 18.0304 10.0679L13.1354 13.2244C12.7606 12.5769 12.4413 11.8989 12.1808 11.1976L16.5829 8.35899H16.5819ZM10.1819 8.96785C10.1893 9.09296 10.1967 9.21715 10.2106 9.34411C10.2523 9.72685 10.3478 10.1263 10.4423 10.5313L9.3997 11.1976C9.52398 10.4133 9.78896 9.65791 10.1819 8.96785ZM21.9403 9.31538C22.274 9.99375 22.5196 10.7277 22.6057 11.5164C22.5856 11.5345 22.5664 11.5537 22.5483 11.5738L21.0711 12.5293C20.8208 11.863 20.5011 11.1763 20.1156 10.5025L21.9394 9.31538H21.9403ZM18.8413 11.3134C19.2352 12.002 19.5577 12.6804 19.7968 13.3402L15.366 16.1788C14.8358 15.6511 14.3513 15.0794 13.9176 14.4699L18.8413 11.3134ZM10.8769 12.0085C11.1308 12.6785 11.4719 13.3587 11.862 14.0353L10.0086 15.2224C9.65592 14.5245 9.42999 13.7696 9.34132 12.9927L10.8769 12.0094V12.0085ZM22.5483 13.3402C22.424 14.1245 22.159 14.8799 21.7661 15.5699C21.7587 15.4356 21.7522 15.3012 21.7374 15.165C21.6966 14.7924 21.6262 14.3995 21.5344 14.0065L22.5483 13.3402ZM20.2018 14.8462C20.2314 15.0083 20.2722 15.1854 20.2889 15.3383C20.4344 16.6802 20.0887 17.5217 19.5651 17.859C19.0415 18.1954 18.1472 18.1704 16.9878 17.4818C16.8498 17.4003 16.6931 17.29 16.5532 17.1917L20.2027 14.8471L20.2018 14.8462ZM12.6433 15.2808C13.0787 15.8979 13.5631 16.479 14.0918 17.0184L12.5571 18.0036C11.884 17.6095 11.2857 17.0997 10.7898 16.4976L12.6433 15.2808ZM15.2502 18.0323C15.5736 18.2816 15.9082 18.5049 16.2344 18.6977C16.3623 18.7737 16.4818 18.8339 16.6107 18.9016C16.4049 18.9201 16.1853 18.9294 15.974 18.9294C15.3776 18.9298 14.7837 18.8519 14.2076 18.6977L15.2502 18.0323Z" fill="#949499"/>
</svg>
