<svg width="30" height="30" viewBox="0 0 30 30" fill="none" xmlns="http://www.w3.org/2000/svg">
<path d="M16.8468 6.81217C16.8468 6.15637 16.3154 5.625 15.6596 5.625H14.2928C13.6361 5.625 13.1047 6.15637 13.1047 6.81217C13.1047 7.3529 12.7343 7.81691 12.23 8.01524C12.1505 8.04705 12.071 8.08073 11.9933 8.11441C11.4966 8.32958 10.9063 8.26409 10.5227 7.88146C10.3001 7.65901 9.99826 7.53405 9.68355 7.53405C9.36884 7.53405 9.06701 7.65901 8.84439 7.88146L7.87707 8.84879C7.65461 9.0714 7.52965 9.37323 7.52965 9.68795C7.52965 10.0027 7.65461 10.3045 7.87707 10.5271C8.26063 10.9107 8.32612 11.5 8.10908 11.9977C8.07498 12.0761 8.04223 12.155 8.01085 12.2344C7.81252 12.7387 7.3485 13.1091 6.80778 13.1091C6.15198 13.1091 5.62061 13.6405 5.62061 14.2963V15.664C5.62061 16.3198 6.15198 16.8512 6.80778 16.8512C7.3485 16.8512 7.81252 17.2217 8.01085 17.7259C8.04266 17.8054 8.07633 17.8849 8.10908 17.9626C8.32518 18.4593 8.2597 19.0497 7.87707 19.4332C7.65461 19.6558 7.52965 19.9577 7.52965 20.2724C7.52965 20.5871 7.65461 20.8889 7.87707 21.1115L8.84439 22.0789C9.06701 22.3013 9.36884 22.4263 9.68355 22.4263C9.99826 22.4263 10.3001 22.3013 10.5227 22.0789C10.9063 21.6953 11.4956 21.6298 11.9933 21.8459C12.071 21.8805 12.1505 21.9133 12.23 21.9451C12.7343 22.1434 13.1047 22.6074 13.1047 23.1481C13.1047 23.8039 13.6361 24.3353 14.2919 24.3353H15.6596C16.3154 24.3353 16.8468 23.8039 16.8468 23.1481C16.8468 22.6074 17.2173 22.1434 17.7215 21.9441C17.801 21.9133 17.8805 21.8805 17.9582 21.8468C18.4549 21.6298 19.0453 21.6962 19.4279 22.0789C19.5381 22.1891 19.669 22.2766 19.8131 22.3363C19.9572 22.396 20.1116 22.4267 20.2675 22.4267C20.4235 22.4267 20.5779 22.396 20.7219 22.3363C20.866 22.2766 20.9969 22.1891 21.1071 22.0789L22.0745 21.1115C22.2969 20.8889 22.4219 20.5871 22.4219 20.2724C22.4219 19.9577 22.2969 19.6558 22.0745 19.4332C21.6909 19.0497 21.6254 18.4603 21.8415 17.9626C21.8761 17.8849 21.9089 17.8054 21.9407 17.7259C22.139 17.2217 22.603 16.8512 23.1438 16.8512C23.7995 16.8512 24.3309 16.3198 24.3309 15.664V14.2972C24.3309 13.6414 23.7995 13.1101 23.1438 13.1101C22.603 13.1101 22.139 12.7396 21.9397 12.2354C21.9084 12.1559 21.8756 12.077 21.8415 11.9987C21.6263 11.5019 21.6918 10.9116 22.0745 10.528C22.2969 10.3054 22.4219 10.0036 22.4219 9.68888C22.4219 9.37417 22.2969 9.07234 22.0745 8.84972L21.1071 7.8824C20.8845 7.65994 20.5827 7.53498 20.268 7.53498C19.9533 7.53498 19.6514 7.65994 19.4288 7.8824C19.0453 8.26596 18.4559 8.33145 17.9582 8.11534C17.8799 8.08092 17.801 8.04786 17.7215 8.01618C17.2173 7.81691 16.8468 7.3529 16.8468 6.81311V6.81217Z" stroke="#949499" stroke-width="2"/>
<path d="M18.718 14.9803C18.718 15.9728 18.3238 16.9246 17.622 17.6264C16.9202 18.3282 15.9684 18.7224 14.976 18.7224C13.9835 18.7224 13.0317 18.3282 12.3299 17.6264C11.6281 16.9246 11.2339 15.9728 11.2339 14.9803C11.2339 13.9879 11.6281 13.0361 12.3299 12.3343C13.0317 11.6325 13.9835 11.2383 14.976 11.2383C15.9684 11.2383 16.9202 11.6325 17.622 12.3343C18.3238 13.0361 18.718 13.9879 18.718 14.9803Z" stroke="#949499" stroke-width="2"/>
</svg>
