<svg width="30" height="30" viewBox="0 0 30 30" fill="none" xmlns="http://www.w3.org/2000/svg">
<path d="M17.6825 11.3755V4.36328H5.06055V25.3999H10.6703V21.1925H12.0727V25.3999H24.6947V11.3755H17.6825ZM8.56664 22.595H7.16421V21.1925H8.56664V22.595ZM8.56664 19.0889H7.16421V17.6865H8.56664V19.0889ZM8.56664 15.5828H7.16421V14.1804H8.56664V15.5828ZM8.56664 12.0767H7.16421V10.6743H8.56664V12.0767ZM8.56664 8.5706H7.16421V7.16816H8.56664V8.5706ZM14.1764 7.16816H15.5788V8.5706H14.1764V7.16816ZM12.0727 19.0889H10.6703V17.6865H12.0727V19.0889ZM12.0727 15.5828H10.6703V14.1804H12.0727V15.5828ZM12.0727 12.0767H10.6703V10.6743H12.0727V12.0767ZM12.0727 8.5706H10.6703V7.16816H12.0727V8.5706ZM15.5788 22.595H14.1764V21.1925H15.5788V22.595ZM15.5788 19.0889H14.1764V17.6865H15.5788V19.0889ZM15.5788 15.5828H14.1764V14.1804H15.5788V15.5828ZM15.5788 12.0767H14.1764V10.6743H15.5788V12.0767ZM23.2923 23.9974H17.6825V22.595H19.0849V21.1925H17.6825V19.0889H19.0849V17.6865H17.6825V15.5828H19.0849V14.1804H17.6825V12.7779H23.2923V23.9974Z" fill="#949499"/>
<path d="M20.4879 21.1925H21.8903V22.595H20.4879V21.1925Z" fill="#949499"/>
<path d="M20.4879 17.6855H21.8903V19.0879H20.4879V17.6855Z" fill="#949499"/>
<path d="M20.4879 14.1784H21.8903V15.5809H20.4879V14.1784Z" fill="#949499"/>
</svg>
