<svg width="30" height="30" viewBox="0 0 30 30" fill="none" xmlns="http://www.w3.org/2000/svg">
<path d="M14.7817 24.9643H7.75397C7.4877 24.9643 7.23234 24.8489 7.04406 24.6435C6.85577 24.4381 6.75 24.1595 6.75 23.869V6.34524C6.75 6.05476 6.85577 5.77618 7.04406 5.57079C7.23234 5.36539 7.4877 5.25 7.75397 5.25H21.8095C22.0758 5.25 22.3312 5.36539 22.5194 5.57079C22.7077 5.77618 22.8135 6.05476 22.8135 6.34524V12.6429" stroke="#949499" stroke-width="2" stroke-linecap="round" stroke-linejoin="round"/>
<path d="M21.6262 16.7491C22.836 16.7491 23.8169 17.7786 23.8169 19.0491C23.8169 20.7029 22.3561 22.1157 21.6262 22.8824C21.1393 23.3933 20.5314 23.9048 19.801 24.4157C19.0711 23.9048 18.4622 23.3933 17.9758 22.8824C17.2454 22.1157 15.7852 20.7029 15.7852 19.0491C15.7852 17.7786 16.766 16.7491 17.9758 16.7491C18.7373 16.7491 19.4085 17.1576 19.801 17.7775C20.0063 17.4578 20.2796 17.1972 20.5975 17.0181C20.9155 16.839 21.2684 16.7466 21.6262 16.7491V16.7491Z" stroke="#949499" stroke-width="2" stroke-linejoin="round"/>
<path d="M10.7651 9.63281H18.7969" stroke="#949499" stroke-width="2" stroke-linecap="round"/>
</svg>
