<svg width="30" height="30" viewBox="0 0 30 30" fill="none" xmlns="http://www.w3.org/2000/svg">
<path d="M15.0005 24.7506C14.6033 24.7506 14.2132 24.6455 13.8698 24.4459L6.74484 20.2994C6.51834 20.1674 6.33038 19.9784 6.1997 19.7511C6.06901 19.5239 6.00016 19.2663 6 19.0042V10.9998C6.00032 10.7378 6.06925 10.4805 6.19993 10.2534C6.33061 10.0264 6.51848 9.8375 6.74484 9.70561L13.8689 5.55905C14.2122 5.3592 14.6023 5.25391 14.9995 5.25391C15.3967 5.25391 15.7869 5.3592 16.1302 5.55905L23.2551 9.70561C23.4815 9.8375 23.6694 10.0264 23.8001 10.2534C23.9307 10.4805 23.9997 10.7378 24 10.9998V19.0042C23.9999 19.2662 23.9312 19.5237 23.8007 19.7509C23.6702 19.9782 23.4824 20.1673 23.2561 20.2994L16.1311 24.4459C15.7877 24.6455 15.3976 24.7506 15.0005 24.7506ZM15.0005 24.7506L15 15.375M6.23438 10.2188L15 15.375M15 15.375L23.7656 10.2188" stroke="white" stroke-width="1.5" stroke-linecap="round" stroke-linejoin="round"/>
</svg>
