<svg width="16" height="16" viewBox="0 0 16 16" fill="none" xmlns="http://www.w3.org/2000/svg">
<path d="M7.95346 3.86841C5.69897 3.86841 3.87378 5.69558 3.87378 7.94809C3.87378 10.2026 5.70096 12.0278 7.95346 12.0278C10.2079 12.0278 12.0331 10.2006 12.0331 7.94809C12.0331 5.6936 10.206 3.86841 7.95346 3.86841ZM7.95346 10.5961C6.48999 10.5961 5.30544 9.41089 5.30544 7.94809C5.30544 6.48529 6.49066 5.30007 7.95346 5.30007C9.41626 5.30007 10.6015 6.48529 10.6015 7.94809C10.6021 9.41089 9.41692 10.5961 7.95346 10.5961Z" fill="#00796A"/>
<path d="M11.2282 0.0511644C9.76539 -0.0170732 6.14218 -0.0137606 4.67806 0.0511644C3.39149 0.111452 2.25662 0.422165 1.34171 1.33708C-0.187337 2.86613 0.00810056 4.92651 0.00810056 7.94817C0.00810056 11.0407 -0.164149 13.0534 1.34171 14.5593C2.87672 16.0936 4.96691 15.8929 7.95279 15.8929C11.0162 15.8929 12.0735 15.8949 13.1567 15.4755C14.6295 14.9038 15.7411 13.5874 15.8498 11.2229C15.9187 9.75945 15.9147 6.1369 15.8498 4.67277C15.7186 1.88165 14.2207 0.188965 11.2282 0.0511644ZM13.5436 13.5476C12.5413 14.55 11.1507 14.4606 7.93358 14.4606C4.62109 14.4606 3.29277 14.5096 2.32354 13.5377C1.20722 12.4267 1.40929 10.6426 1.40929 7.93757C1.40929 4.27726 1.03365 1.64117 4.70721 1.45302C5.55123 1.4232 5.79967 1.41327 7.92431 1.41327L7.95412 1.43314C11.4846 1.43314 14.2545 1.06347 14.4208 4.73637C14.4585 5.57443 14.4672 5.82618 14.4672 7.94751C14.4665 11.2216 14.5288 12.5579 13.5436 13.5476Z" fill="#00796A"/>
<path d="M12.1955 4.6618C12.722 4.6618 13.1489 4.23498 13.1489 3.70846C13.1489 3.18195 12.722 2.75513 12.1955 2.75513C11.669 2.75513 11.2422 3.18195 11.2422 3.70846C11.2422 4.23498 11.669 4.6618 12.1955 4.6618Z" fill="#00796A"/>
</svg>
