<svg width="17" height="16" viewBox="0 0 17 16" fill="none" xmlns="http://www.w3.org/2000/svg">
<path d="M16.696 15.903V15.9023H16.7V10.071C16.7 7.21826 16.0859 5.02075 12.7508 5.02075C11.1476 5.02075 10.0717 5.90055 9.63246 6.73464H9.58608V5.28708H6.42397V15.9023H9.71659V10.646C9.71659 9.26208 9.97894 7.92383 11.6928 7.92383C13.3815 7.92383 13.4067 9.50323 13.4067 10.7348V15.903H16.696Z" fill="#00796A"/>
<path d="M1.0641 5.28638H4.3607V15.9016H1.0641V5.28638Z" fill="#00796A"/>
<path d="M2.70949 0.0012207C1.65546 0.0012207 0.800186 0.8565 0.800186 1.91053C0.800186 2.96455 1.65546 3.83772 2.70949 3.83772C3.76352 3.83772 4.6188 2.96455 4.6188 1.91053C4.61813 0.8565 3.76286 0.0012207 2.70949 0.0012207V0.0012207Z" fill="#00796A"/>
</svg>
