<svg width="21" height="17" viewBox="0 0 21 17" fill="none" xmlns="http://www.w3.org/2000/svg">
<path d="M20.7 1.90182C19.9645 2.21425 19.1641 2.4391 18.3397 2.52667C19.1957 2.02593 19.8366 1.23484 20.1424 0.301822C19.3392 0.772329 18.4593 1.10226 17.5417 1.27697C17.1582 0.873245 16.6944 0.55162 16.1792 0.332135C15.6639 0.112651 15.1083 9.38129e-06 14.5469 0.00123053C12.2755 0.00123053 10.4488 1.81425 10.4488 4.0391C10.4488 4.35152 10.4873 4.66395 10.5498 4.96454C7.14876 4.78939 4.11547 3.18939 2.09888 0.739692C1.73144 1.35772 1.53889 2.06141 1.54126 2.77756C1.54126 4.17874 2.26473 5.41425 3.36796 6.14087C2.71781 6.11566 2.08288 5.93968 1.51482 5.62726V5.67697C1.51482 7.6391 2.9233 9.26513 4.80048 9.63909C4.44802 9.72925 4.08544 9.77537 3.72128 9.77637C3.45449 9.77637 3.20212 9.75034 2.94734 9.71483C3.46651 11.3148 4.97834 12.477 6.77861 12.5148C5.37012 13.6012 3.60591 14.2403 1.69028 14.2403C1.34657 14.2403 1.0293 14.2284 0.700012 14.1906C2.5171 15.3385 4.67309 16.0012 6.99493 16.0012C14.5325 16.0012 18.657 9.85211 18.657 4.51484C18.657 4.33969 18.657 4.16454 18.645 3.98939C19.443 3.41425 20.1424 2.70182 20.7 1.90182Z" fill="#00796A"/>
</svg>
