<svg width="17" height="12" viewBox="0 0 17 12" fill="none" xmlns="http://www.w3.org/2000/svg">
<path d="M16.4484 1.61044L16.4683 1.74029C16.2762 1.05858 15.7574 0.532555 15.0982 0.341092L15.0843 0.33778C13.8448 0.00122979 8.85682 0.00122986 8.85682 0.00122986C8.85682 0.00122986 3.88144 -0.00539521 2.62931 0.33778C1.95754 0.532555 1.43814 1.05858 1.24933 1.72638L1.24601 1.74029C0.782926 4.15908 0.779614 7.06547 1.26655 9.65518L1.24601 9.524C1.43814 10.2057 1.95688 10.7317 2.61606 10.9232L2.62998 10.9265C3.86819 11.2637 8.85748 11.2637 8.85748 11.2637C8.85748 11.2637 13.8322 11.2637 15.085 10.9265C15.7574 10.7317 16.2768 10.2057 16.4656 9.53792L16.4689 9.524C16.6796 8.39908 16.8002 7.10455 16.8002 5.7822C16.8002 5.73384 16.8002 5.68482 16.7995 5.63579C16.8002 5.59074 16.8002 5.53708 16.8002 5.48342C16.8002 4.1604 16.6796 2.86588 16.4484 1.61044V1.61044ZM7.26549 8.05127V3.21965L11.4167 5.6391L7.26549 8.05127Z" fill="#00796A"/>
</svg>
