<svg width="198" height="135" viewBox="0 0 198 135" fill="none" xmlns="http://www.w3.org/2000/svg">
<g clip-path="url(#clip0_438_1594)">
<path opacity="0.1" d="M81.3727 132.868C94.756 125.465 110.044 123.099 124.985 126.272C146.157 130.771 172.766 129.008 177.92 94.2951C186.722 35.0111 149.835 19.3638 149.835 19.3638C149.835 19.3638 125.305 17.3102 110.8 9.49178C90.1959 -1.61791 66.6452 -3.03265 45.9372 6.36718C32.6945 12.3734 21.7891 20.7369 19.9258 32.2198C14.7163 64.3337 23.2721 82.0276 7.26658 92.5106C-8.73894 102.994 4.93964 131.775 17.2099 130.778C29.4802 129.782 57.2072 118.851 68.0119 131.513C71.8496 136.003 76.7049 135.451 81.3727 132.868Z" fill="#00B495"/>
<path opacity="0.1" d="M144.872 26.2225H89.6506V30.0415H144.872V26.2225Z" fill="#00B495"/>
<path opacity="0.1" d="M144.872 42.7136H89.6506V46.5326H144.872V42.7136Z" fill="#00B495"/>
<path opacity="0.1" d="M144.872 59.8988H89.6506V63.7178H144.872V59.8988Z" fill="#00B495"/>
<path opacity="0.1" d="M97.9877 16.328H94.5146V26.2226H97.9877V16.328Z" fill="#00B495"/>
<path opacity="0.1" d="M97.9877 17.8906H94.5146V18.585H97.9877V17.8906Z" fill="#00B495"/>
<path opacity="0.1" d="M97.9877 23.2715H94.5146V23.9658H97.9877V23.2715Z" fill="#00B495"/>
<path opacity="0.1" d="M103.196 16.328H99.7227V26.2226H103.196V16.328Z" fill="#00B495"/>
<path opacity="0.1" d="M103.196 17.8899H99.7227V18.5842H103.196V17.8899Z" fill="#00B495"/>
<path opacity="0.1" d="M103.196 23.2715H99.7227V23.9658H103.196V23.2715Z" fill="#00B495"/>
<path opacity="0.1" d="M108.405 16.328H104.932V26.2226H108.405V16.328Z" fill="#00B495"/>
<path opacity="0.1" d="M108.405 17.8899H104.932V18.5842H108.405V17.8899Z" fill="#00B495"/>
<path opacity="0.1" d="M108.405 23.2715H104.932V23.9658H108.405V23.2715Z" fill="#00B495"/>
<path opacity="0.1" d="M113.615 16.328H110.142V26.2226H113.615V16.328Z" fill="#00B495"/>
<path opacity="0.1" d="M113.615 17.8899H110.142V18.5842H113.615V17.8899Z" fill="#00B495"/>
<path opacity="0.1" d="M113.615 23.2715H110.142V23.9658H113.615V23.2715Z" fill="#00B495"/>
<path opacity="0.1" d="M118.825 16.328H115.352V26.2226H118.825V16.328Z" fill="#00B495"/>
<path opacity="0.1" d="M118.825 17.8899H115.352V18.5842H118.825V17.8899Z" fill="#00B495"/>
<path opacity="0.1" d="M118.825 23.2715H115.352V23.9658H118.825V23.2715Z" fill="#00B495"/>
<path opacity="0.1" d="M124.036 16.328H120.563V26.2226H124.036V16.328Z" fill="#00B495"/>
<path opacity="0.1" d="M124.036 17.8906H120.563V18.585H124.036V17.8906Z" fill="#00B495"/>
<path opacity="0.1" d="M124.036 23.2715H120.563V23.9658H124.036V23.2715Z" fill="#00B495"/>
<path opacity="0.1" d="M129.244 16.328H125.771V26.2226H129.244V16.328Z" fill="#00B495"/>
<path opacity="0.1" d="M129.244 17.8899H125.771V18.5842H129.244V17.8899Z" fill="#00B495"/>
<path opacity="0.1" d="M129.244 23.2715H125.771V23.9658H129.244V23.2715Z" fill="#00B495"/>
<path opacity="0.1" d="M127.189 49.744L124.084 51.3002L128.521 60.1451L131.625 58.589L127.189 49.744Z" fill="#00B495"/>
<path opacity="0.1" d="M127.89 51.1414L124.785 52.6975L125.096 53.3182L128.201 51.7621L127.89 51.1414Z" fill="#00B495"/>
<path opacity="0.1" d="M130.302 55.9525L127.198 57.5087L127.509 58.1294L130.614 56.5732L130.302 55.9525Z" fill="#00B495"/>
<path opacity="0.1" d="M97.9877 32.9926H94.5146V42.8871H97.9877V32.9926Z" fill="#00B495"/>
<path opacity="0.1" d="M97.9877 34.5544H94.5146V35.2488H97.9877V34.5544Z" fill="#00B495"/>
<path opacity="0.1" d="M97.9877 39.936H94.5146V40.6304H97.9877V39.936Z" fill="#00B495"/>
<path opacity="0.1" d="M103.196 32.9926H99.7227V42.8871H103.196V32.9926Z" fill="#00B495"/>
<path opacity="0.1" d="M103.196 34.5544H99.7227V35.2488H103.196V34.5544Z" fill="#00B495"/>
<path opacity="0.1" d="M103.196 39.936H99.7227V40.6304H103.196V39.936Z" fill="#00B495"/>
<path opacity="0.1" d="M108.405 32.9926H104.932V42.8871H108.405V32.9926Z" fill="#00B495"/>
<path opacity="0.1" d="M108.405 34.5544H104.932V35.2488H108.405V34.5544Z" fill="#00B495"/>
<path opacity="0.1" d="M108.405 39.936H104.932V40.6304H108.405V39.936Z" fill="#00B495"/>
<path opacity="0.1" d="M130.112 32.9924H126.639V42.887H130.112V32.9924Z" fill="#00B495"/>
<path opacity="0.1" d="M130.112 34.5546H126.639V35.2489H130.112V34.5546Z" fill="#00B495"/>
<path opacity="0.1" d="M130.112 39.9359H126.639V40.6303H130.112V39.9359Z" fill="#00B495"/>
<path opacity="0.1" d="M135.322 32.9924H131.849V42.887H135.322V32.9924Z" fill="#00B495"/>
<path opacity="0.1" d="M135.322 34.5546H131.849V35.2489H135.322V34.5546Z" fill="#00B495"/>
<path opacity="0.1" d="M135.322 39.9359H131.849V40.6303H135.322V39.9359Z" fill="#00B495"/>
<path opacity="0.1" d="M140.532 32.9924H137.059V42.887H140.532V32.9924Z" fill="#00B495"/>
<path opacity="0.1" d="M140.532 34.5546H137.059V35.2489H140.532V34.5546Z" fill="#00B495"/>
<path opacity="0.1" d="M140.532 39.9359H137.059V40.6303H140.532V39.9359Z" fill="#00B495"/>
<path opacity="0.1" d="M97.9877 50.0042H94.5146V59.8987H97.9877V50.0042Z" fill="#00B495"/>
<path opacity="0.1" d="M97.9877 51.5669H94.5146V52.2612H97.9877V51.5669Z" fill="#00B495"/>
<path opacity="0.1" d="M97.9877 56.9478H94.5146V57.6421H97.9877V56.9478Z" fill="#00B495"/>
<path opacity="0.1" d="M103.196 50.0042H99.7227V59.8987H103.196V50.0042Z" fill="#00B495"/>
<path opacity="0.1" d="M103.196 51.5662H99.7227V52.2605H103.196V51.5662Z" fill="#00B495"/>
<path opacity="0.1" d="M103.196 56.9478H99.7227V57.6421H103.196V56.9478Z" fill="#00B495"/>
<path opacity="0.1" d="M108.405 50.0042H104.932V59.8987H108.405V50.0042Z" fill="#00B495"/>
<path opacity="0.1" d="M108.405 51.5662H104.932V52.2605H108.405V51.5662Z" fill="#00B495"/>
<path opacity="0.1" d="M108.405 56.9478H104.932V57.6421H108.405V56.9478Z" fill="#00B495"/>
<path opacity="0.1" d="M113.615 50.0042H110.142V59.8987H113.615V50.0042Z" fill="#00B495"/>
<path opacity="0.1" d="M113.615 51.5662H110.142V52.2605H113.615V51.5662Z" fill="#00B495"/>
<path opacity="0.1" d="M113.615 56.9478H110.142V57.6421H113.615V56.9478Z" fill="#00B495"/>
<path opacity="0.1" d="M118.825 50.0042H115.352V59.8987H118.825V50.0042Z" fill="#00B495"/>
<path opacity="0.1" d="M118.825 51.5662H115.352V52.2605H118.825V51.5662Z" fill="#00B495"/>
<path opacity="0.1" d="M118.825 56.9478H115.352V57.6421H118.825V56.9478Z" fill="#00B495"/>
<path opacity="0.1" d="M124.036 50.0042H120.563V59.8987H124.036V50.0042Z" fill="#00B495"/>
<path opacity="0.1" d="M124.036 51.5669H120.563V52.2612H124.036V51.5669Z" fill="#00B495"/>
<path opacity="0.1" d="M124.036 56.9478H120.563V57.6421H124.036V56.9478Z" fill="#00B495"/>
<path opacity="0.1" d="M134.453 17.2096V26.2223H130.98V16.5482C132.143 16.7531 133.3 16.9735 134.453 17.2096Z" fill="#00B495"/>
<path opacity="0.1" d="M134.453 17.8899H130.98V18.5842H134.453V17.8899Z" fill="#00B495"/>
<path opacity="0.1" d="M134.453 23.2715H130.98V23.9658H134.453V23.2715Z" fill="#00B495"/>
<path opacity="0.1" d="M139.665 18.414V26.2255H136.192V17.5808C136.643 17.6798 137.093 17.7839 137.543 17.8898C138.253 18.0564 138.961 18.2312 139.665 18.414Z" fill="#00B495"/>
<path opacity="0.1" d="M139.665 18.4138V18.5874H136.192V17.8931H137.543C138.253 18.0574 138.961 18.231 139.665 18.4138Z" fill="#00B495"/>
<path opacity="0.1" d="M139.665 23.2715H136.192V23.9658H139.665V23.2715Z" fill="#00B495"/>
<g opacity="0.1">
<path opacity="0.1" d="M115.421 39.2903C115.421 39.2903 114.369 38.9328 113.858 39.8615C113.725 40.1129 113.657 40.3939 113.661 40.6785C113.665 40.9631 113.74 41.2421 113.881 41.4897C114.214 42.0903 114.9 42.8784 116.199 42.802C117.302 42.743 117.668 41.9029 117.762 41.12C117.798 40.8271 117.758 40.53 117.648 40.2565C117.537 39.9831 117.358 39.7424 117.128 39.5572C116.898 39.372 116.625 39.2484 116.334 39.1981C116.044 39.1477 115.745 39.1723 115.466 39.2695L115.421 39.2903Z" fill="#00B495"/>
<path opacity="0.1" d="M114.109 41.5746C113.969 41.327 113.893 41.048 113.889 40.7634C113.885 40.4788 113.953 40.1978 114.087 39.9463C114.594 39.0194 115.65 39.3752 115.65 39.3752L115.703 39.3561C116.105 39.2108 116.547 39.2207 116.942 39.3839C116.724 39.2542 116.479 39.1744 116.227 39.1504C115.974 39.1264 115.72 39.1587 115.481 39.2451L115.427 39.2641C115.427 39.2641 114.375 38.9066 113.864 39.8353C113.731 40.0867 113.663 40.3677 113.667 40.6523C113.671 40.9369 113.747 41.2159 113.887 41.4635C114.148 41.9608 114.567 42.3572 115.078 42.5901C114.668 42.3466 114.333 41.9954 114.109 41.5746Z" fill="#00B495"/>
<path opacity="0.2" d="M114.876 39.7363C114.876 39.7363 115.267 40.0436 116.215 39.7363H114.876Z" fill="#00B495"/>
<path opacity="0.1" d="M114.79 37.5055C114.79 37.5055 115.459 39.3178 115.403 39.7917L115.933 39.7361C115.933 39.7361 115.04 38.1478 115.264 37.5055H114.79Z" fill="#00B495"/>
<path opacity="0.2" d="M114.79 37.5055C114.79 37.5055 115.459 39.3178 115.403 39.7917L115.933 39.7361C115.933 39.7361 115.04 38.1478 115.264 37.5055H114.79Z" fill="#00B495"/>
<path opacity="0.1" d="M117.526 37.6586C117.526 37.6586 116.472 37.1205 116.002 37.5649C115.531 38.0093 115.458 39.1463 115.458 39.1463C115.458 39.1463 117.175 39.3789 117.526 37.6586Z" fill="#00B495"/>
<path opacity="0.1" d="M117.526 37.6586C117.526 37.6586 116.472 37.1205 116.002 37.5649C115.531 38.0093 115.458 39.1463 115.458 39.1463C115.458 39.1463 117.175 39.3789 117.526 37.6586Z" fill="#00B495"/>
<path opacity="0.1" d="M115.456 39.146C115.456 39.146 115.732 37.8267 117.524 37.6566L115.456 39.146Z" fill="#00B495"/>
</g>
<g opacity="0.1">
<path opacity="0.1" d="M137.646 56.4756C137.646 56.4756 136.594 56.1181 136.083 57.0468C135.95 57.2982 135.882 57.5792 135.886 57.8638C135.89 58.1484 135.966 58.4274 136.106 58.675C136.439 59.2756 137.125 60.0637 138.424 59.9873C139.527 59.9283 139.893 59.0882 139.987 58.3053C140.023 58.0124 139.984 57.7153 139.873 57.4418C139.762 57.1684 139.583 56.9277 139.354 56.7425C139.124 56.5573 138.851 56.4337 138.56 56.3834C138.269 56.333 137.97 56.3576 137.691 56.4548L137.646 56.4756Z" fill="#00B495"/>
<path opacity="0.1" d="M136.335 58.7599C136.194 58.5123 136.118 58.2333 136.115 57.9487C136.111 57.6641 136.179 57.3831 136.312 57.1316C136.819 56.2047 137.875 56.5605 137.875 56.5605L137.929 56.5414C138.33 56.3961 138.772 56.406 139.167 56.5692C138.949 56.4395 138.705 56.3597 138.452 56.3357C138.2 56.3117 137.945 56.344 137.706 56.4304L137.653 56.4494C137.653 56.4494 136.6 56.0919 136.09 57.0206C135.956 57.272 135.888 57.553 135.892 57.8376C135.896 58.1222 135.972 58.4012 136.112 58.6488C136.373 59.1461 136.792 59.5425 137.304 59.7754C136.894 59.5319 136.559 59.1807 136.335 58.7599Z" fill="#00B495"/>
<path opacity="0.2" d="M137.101 56.9216C137.101 56.9216 137.492 57.2288 138.44 56.9216H137.101Z" fill="#00B495"/>
<path opacity="0.1" d="M137.016 54.6908C137.016 54.6908 137.684 56.5031 137.629 56.977L138.158 56.9214C138.158 56.9214 137.266 55.3331 137.49 54.6908H137.016Z" fill="#00B495"/>
<path opacity="0.2" d="M137.016 54.6908C137.016 54.6908 137.684 56.5031 137.629 56.977L138.158 56.9214C138.158 56.9214 137.266 55.3331 137.49 54.6908H137.016Z" fill="#00B495"/>
<path opacity="0.1" d="M139.752 54.8439C139.752 54.8439 138.697 54.3058 138.227 54.7502C137.756 55.1945 137.683 56.3315 137.683 56.3315C137.683 56.3315 139.401 56.5642 139.752 54.8439Z" fill="#00B495"/>
<path opacity="0.1" d="M139.752 54.8439C139.752 54.8439 138.697 54.3058 138.227 54.7502C137.756 55.1945 137.683 56.3315 137.683 56.3315C137.683 56.3315 139.401 56.5642 139.752 54.8439Z" fill="#00B495"/>
<path opacity="0.1" d="M137.682 56.3313C137.682 56.3313 137.958 55.012 139.75 54.8419L137.682 56.3313Z" fill="#00B495"/>
</g>
<path opacity="0.1" d="M172.788 109.516C177.967 109.516 182.165 108.024 182.165 106.183C182.165 104.342 177.967 102.85 172.788 102.85C167.609 102.85 163.411 104.342 163.411 106.183C163.411 108.024 167.609 109.516 172.788 109.516Z" fill="black"/>
<path d="M172.796 106.21C172.796 106.21 178.146 88.0548 171.792 74.6902C169.126 69.0816 168.241 62.7855 169.472 56.6995C170.061 53.8126 170.914 50.9857 172.02 48.2544" stroke="#535461" stroke-width="2" stroke-miterlimit="10"/>
<path d="M168.066 39.807C168.066 42.0324 172.096 48.4864 172.096 48.4864C172.096 48.4864 176.127 42.0341 176.127 39.807C176.127 38.7384 175.702 37.7136 174.946 36.958C174.19 36.2024 173.165 35.778 172.096 35.778C171.027 35.778 170.002 36.2024 169.246 36.958C168.49 37.7136 168.066 38.7384 168.066 39.807Z" fill="#00B495"/>
<path d="M161.404 52.1325C162.619 54.0003 169.504 57.2273 169.504 57.2273C169.504 57.2273 169.379 49.6207 168.169 47.7529C167.881 47.3083 167.509 46.9248 167.073 46.6242C166.637 46.3235 166.146 46.1117 165.628 46.0007C165.11 45.8897 164.576 45.8818 164.055 45.9774C163.534 46.0729 163.037 46.2701 162.592 46.5577C162.147 46.8453 161.764 47.2176 161.463 47.6534C161.162 48.0892 160.95 48.5799 160.839 49.0976C160.728 49.6152 160.72 50.1497 160.816 50.6704C160.912 51.1912 161.109 51.688 161.397 52.1325H161.404Z" fill="#00B495"/>
<path d="M161.69 73.1954C163.678 74.197 171.256 73.5044 171.256 73.5044C171.256 73.5044 167.307 67.0018 165.319 66.0002C164.846 65.762 164.331 65.6191 163.804 65.5798C163.276 65.5406 162.745 65.6056 162.243 65.7712C161.74 65.9368 161.275 66.1998 160.874 66.5451C160.473 66.8905 160.144 67.3114 159.905 67.7838C159.667 68.2563 159.524 68.771 159.485 69.2986C159.446 69.8263 159.511 70.3565 159.676 70.859C159.842 71.3615 160.105 71.8265 160.451 72.2274C160.796 72.6283 161.217 72.9572 161.69 73.1954Z" fill="#00B495"/>
<path d="M165.51 89.0826C167.301 90.4054 174.888 91.0042 174.888 91.0042C174.888 91.0042 172.095 83.927 170.305 82.6043C169.879 82.2896 169.396 82.0618 168.882 81.9338C168.369 81.8058 167.835 81.7803 167.311 81.8585C166.788 81.9368 166.285 82.1173 165.831 82.3899C165.378 82.6625 164.982 83.0217 164.667 83.4471C164.352 83.8724 164.124 84.3556 163.996 84.8691C163.868 85.3825 163.843 85.9161 163.921 86.4394C163.999 86.9627 164.18 87.4655 164.453 87.919C164.725 88.3725 165.085 88.7679 165.51 89.0826Z" fill="#00B495"/>
<path d="M177.969 57.6582C176.373 59.2084 168.939 60.8141 168.939 60.8141C168.939 60.8141 170.761 53.4279 172.357 51.8777C172.736 51.5061 173.184 51.213 173.677 51.0153C174.17 50.8176 174.697 50.7192 175.228 50.7256C175.759 50.7321 176.283 50.8434 176.771 51.053C177.258 51.2627 177.7 51.5666 178.07 51.9474C178.44 52.3281 178.731 52.7782 178.926 53.2716C179.122 53.7651 179.217 54.2924 179.208 54.823C179.199 55.3537 179.086 55.8773 178.873 56.3639C178.661 56.8504 178.355 57.2903 177.972 57.6582H177.969Z" fill="#00B495"/>
<path d="M182.181 76.2941C180.193 77.2957 172.615 76.6031 172.615 76.6031C172.615 76.6031 176.563 70.1004 178.552 69.0988C179.024 68.8606 179.539 68.7178 180.067 68.6785C180.595 68.6392 181.125 68.7042 181.628 68.8698C182.131 69.0355 182.596 69.2984 182.997 69.6438C183.398 69.9891 183.727 70.41 183.965 70.8824C184.204 71.3549 184.346 71.8696 184.386 72.3973C184.425 72.9249 184.36 73.4551 184.194 73.9577C184.029 74.4602 183.766 74.9252 183.42 75.326C183.075 75.7269 182.654 76.0559 182.181 76.2941Z" fill="#00B495"/>
<path d="M183.802 94.9703C182.011 96.2931 174.424 96.892 174.424 96.892C174.424 96.892 177.217 89.8148 179.007 88.492C179.432 88.1703 179.917 87.9361 180.433 87.803C180.949 87.6698 181.487 87.6403 182.014 87.7163C182.542 87.7922 183.049 87.9721 183.507 88.2454C183.965 88.5187 184.364 88.88 184.681 89.3085C184.998 89.737 185.226 90.224 185.354 90.7415C185.481 91.259 185.505 91.7966 185.423 92.3232C185.341 92.8498 185.155 93.3549 184.877 93.8093C184.598 94.2637 184.232 94.6583 183.8 94.9703H183.802Z" fill="#00B495"/>
<path opacity="0.1" d="M149.447 99.9334C154.626 99.9334 158.824 98.4412 158.824 96.6005C158.824 94.7598 154.626 93.2676 149.447 93.2676C144.268 93.2676 140.07 94.7598 140.07 96.6005C140.07 98.4412 144.268 99.9334 149.447 99.9334Z" fill="black"/>
<path d="M149.068 97.0743C149.068 97.0743 151.574 88.5684 148.597 82.3071C147.332 79.6888 146.951 76.731 147.51 73.8776C147.787 72.5252 148.187 71.201 148.705 69.9215" stroke="#535461" stroke-width="2" stroke-miterlimit="10"/>
<path d="M146.852 65.9641C146.852 67.0056 148.739 70.0295 148.739 70.0295C148.739 70.0295 150.627 67.0056 150.627 65.9641C150.627 65.4634 150.428 64.9832 150.074 64.6292C149.72 64.2752 149.239 64.0763 148.738 64.0763C148.238 64.0763 147.757 64.2752 147.403 64.6292C147.049 64.9832 146.85 65.4634 146.85 65.9641H146.852Z" fill="#00B495"/>
<path d="M143.731 71.7373C144.298 72.6053 147.527 74.1242 147.527 74.1242C147.527 74.1242 147.468 70.5604 146.902 69.6855C146.768 69.4774 146.593 69.2978 146.389 69.1571C146.185 69.0164 145.955 68.9172 145.712 68.8653C145.47 68.8134 145.219 68.8098 144.975 68.8546C144.731 68.8994 144.499 68.9918 144.291 69.1266C144.082 69.2613 143.903 69.4357 143.762 69.6398C143.621 69.8439 143.522 70.0737 143.47 70.3162C143.418 70.5586 143.415 70.8089 143.459 71.0527C143.504 71.2966 143.597 71.5292 143.731 71.7373Z" fill="#00B495"/>
<path d="M143.869 81.6058C144.8 82.0744 148.351 81.7516 148.351 81.7516C148.351 81.7516 146.501 78.7051 145.572 78.2347C145.351 78.1231 145.11 78.0562 144.862 78.0378C144.615 78.0194 144.367 78.0499 144.131 78.1275C143.655 78.2843 143.262 78.6235 143.036 79.0705C142.811 79.5175 142.772 80.0358 142.929 80.5112C143.086 80.9867 143.425 81.3804 143.872 81.6058H143.869Z" fill="#00B495"/>
<path d="M145.654 89.0499C146.492 89.6696 150.047 89.9508 150.047 89.9508C150.047 89.9508 148.738 86.6352 147.901 86.0155C147.701 85.8682 147.475 85.7615 147.234 85.7016C146.993 85.6418 146.743 85.6299 146.498 85.6666C146.253 85.7034 146.017 85.788 145.805 85.9158C145.592 86.0436 145.407 86.212 145.259 86.4113C145.112 86.6107 145.005 86.8371 144.945 87.0777C144.886 87.3183 144.874 87.5683 144.91 87.8134C144.947 88.0586 145.032 88.2941 145.16 88.5066C145.288 88.719 145.456 88.9042 145.655 89.0516L145.654 89.0499Z" fill="#00B495"/>
<path d="M151.492 74.3272C150.744 75.0528 147.259 75.8062 147.259 75.8062C147.259 75.8062 148.113 72.3448 148.86 71.6192C149.219 71.2705 149.702 71.0787 150.203 71.086C150.704 71.0933 151.181 71.2992 151.53 71.6583C151.879 72.0174 152.071 72.5003 152.063 73.0008C152.056 73.5014 151.85 73.9785 151.491 74.3272H151.492Z" fill="#00B495"/>
<path d="M153.47 83.0591C152.539 83.5278 148.988 83.2049 148.988 83.2049C148.988 83.2049 150.838 80.1585 151.767 79.688C152.214 79.4627 152.732 79.4241 153.208 79.5809C153.683 79.7376 154.077 80.0768 154.303 80.5239C154.528 80.9709 154.567 81.4891 154.41 81.9646C154.253 82.44 153.914 82.8338 153.467 83.0591H153.47Z" fill="#00B495"/>
<path d="M154.223 91.8023C153.385 92.422 149.83 92.7032 149.83 92.7032C149.83 92.7032 151.139 89.3877 151.976 88.7679C152.176 88.6205 152.402 88.5136 152.643 88.4536C152.883 88.3936 153.133 88.3815 153.379 88.4181C153.624 88.4547 153.859 88.5393 154.072 88.6669C154.285 88.7945 154.47 88.9627 154.618 89.162C154.765 89.3612 154.872 89.5876 154.932 89.8281C154.992 90.0686 155.004 90.3186 154.967 90.5637C154.931 90.8089 154.846 91.0445 154.719 91.257C154.591 91.4695 154.423 91.6548 154.223 91.8023Z" fill="#00B495"/>
<path d="M197.673 113.996L143.904 85.4839H132.629L135.546 61.2092C135.61 60.6779 135.567 60.1391 135.42 59.6245C135.273 59.1099 135.025 58.6297 134.69 58.2122C134.355 57.7947 133.94 57.4481 133.47 57.1928C132.999 56.9375 132.482 56.7786 131.95 56.7254L131.647 56.7376H131.618L90.5995 57.3607C89.5495 57.2865 88.5074 57.5888 87.6602 58.2133C86.813 58.8378 86.2162 59.7436 85.9769 60.7683L84.0667 74.7179L83.7906 74.2961L83.6569 74.093C84.6658 73.4368 82.6757 69.5363 80.9896 66.6287L80.8367 66.3648C81.9064 65.9187 83.0942 65.4968 83.0942 65.4968L80.4634 63.8547C80.4634 63.8547 78.0427 60.3517 75.4657 57.51C77.2022 46.6399 73.5347 34.0755 73.4913 33.902L73.394 33.928C73.9031 33.1039 74.1714 32.1539 74.1685 31.1853C74.1688 30.4475 74.0123 29.7181 73.7093 29.0454C73.4064 28.3726 72.9639 27.7719 72.4111 27.283C72.3087 26.3526 72.1611 25.3944 71.9492 24.3858C71.911 24.2122 71.8711 24.0195 71.8277 23.8355C71.6297 22.9676 71.43 22.0996 71.1678 21.2491C70.986 20.6426 70.7603 20.0503 70.4923 19.4767C69.1222 16.583 66.3038 14.5138 63.2163 13.7847C61.6273 13.4098 59.9985 13.9913 58.5155 13.7136C57.7688 13.5764 57.1002 12.8595 56.3726 12.5696C55.4505 12.2016 54.452 12.0298 53.4761 11.8753C52.2605 11.6722 50.9981 11.4708 49.7877 11.7347C47.7907 12.1686 46.2678 13.7865 45.1477 15.4946C44.0277 17.2027 43.1577 19.0948 41.7737 20.5981C40.8481 21.6049 39.709 22.4138 38.8841 23.504C37.6685 25.1079 37.2466 27.1493 36.8558 29.1317C36.3731 31.5707 35.8903 34.0443 35.9008 36.5214C35.9008 37.096 35.9094 37.6723 35.9598 38.2486C36.0866 39.7276 36.4235 41.1857 36.5033 42.6665C36.5033 42.8262 36.5155 42.9859 36.519 43.1456C36.5016 45.8553 35.7011 48.5268 34.9057 51.1306C34.6522 51.9587 34.3952 52.7936 34.0948 53.6095C32.4972 53.7449 30.969 54.0643 29.8038 54.6927C25.5459 56.9702 22.2691 62.0494 22.2691 62.0494L16.0402 67.7778C16.0402 67.7778 18.4991 68.9252 19.6469 70.892C19.688 70.9613 19.7351 71.027 19.7876 71.0882L19.6973 71.2965L16.0402 79.7398C16.0402 79.7398 18.3358 81.3785 21.7707 81.0504C22.3289 80.9806 22.8955 81.0219 23.4377 81.1719C23.4377 81.2761 23.4273 81.382 23.4238 81.4931C23.2137 86.324 23.1026 96.9095 25.6032 104.06L19.9525 110.656L8.66514 113.998L8.17371 122.677H198.002L197.673 113.996ZM34.8762 81.6302C35.3603 81.7288 35.8324 81.8789 36.2845 82.078V88.112C35.9858 85.9803 35.5708 83.7966 34.9926 81.9808C34.9561 81.8628 34.9231 81.7465 34.8762 81.6302ZM67.469 93.2415C67.469 93.2207 67.469 93.1999 67.469 93.1791C67.4759 92.9684 67.5044 92.759 67.5541 92.5541C67.6246 92.2366 67.7814 91.9446 68.0073 91.7105C68.4258 91.2921 68.8582 90.8426 69.2906 90.3548C69.5568 91.0417 69.9412 91.6767 70.4263 92.2313C70.982 92.851 72.2236 93.4082 73.9671 93.9116C71.8139 93.5776 69.645 93.354 67.469 93.2415ZM81.6408 92.4083L75.9658 94.0869C73.2829 93.4863 71.3744 92.7989 70.6677 92.0039C70.1732 91.434 69.7893 90.777 69.5355 90.0666C71.5602 87.7197 73.5295 84.5621 73.981 80.2502C73.9931 80.1373 74.0018 80.021 74.0122 79.903C74.6279 79.5532 75.2092 79.1464 75.7487 78.6879L75.8512 78.9274C77.377 82.3956 79.5352 85.5496 82.2155 88.2283L81.6408 92.4083ZM73.229 34.1814C73.6753 35.7906 76.7021 47.1832 75.1844 57.201C74.2397 56.1838 73.2863 55.2742 72.432 54.6753C72.2296 54.5353 72.0178 54.4095 71.7981 54.2986C71.6089 52.4621 71.522 50.5578 71.5081 48.6709C71.5255 46.3344 71.6644 44.017 71.8555 41.8124C72.0621 39.4759 72.3052 37.247 72.4563 35.0546C72.7455 34.7931 73.0047 34.5003 73.229 34.1814Z" fill="url(#paint0_linear_438_1594)"/>
<path d="M70.459 36.9865H68.9777V26.7447H70.459C71.5901 26.7447 72.6749 27.1939 73.4747 27.9934C74.2745 28.793 74.7239 29.8774 74.7239 31.0081V32.7127C74.7252 33.2734 74.6159 33.829 74.4022 34.3474C74.1885 34.8659 73.8746 35.3371 73.4784 35.7341C73.0822 36.1311 72.6116 36.446 72.0935 36.6609C71.5754 36.8758 71.0199 36.9865 70.459 36.9865Z" fill="#DFE6F5"/>
<path d="M68.7679 36.9866H69.1881C69.7664 36.9866 70.2352 36.5179 70.2352 35.9398V27.8003C70.2352 27.2222 69.7664 26.7535 69.1881 26.7535H68.7679C68.1896 26.7535 67.7207 27.2222 67.7207 27.8003V35.9398C67.7207 36.5179 68.1896 36.9866 68.7679 36.9866Z" fill="#535461"/>
<g opacity="0.1">
<path opacity="0.1" d="M70.459 36.9865H68.9777V26.7447H70.459C71.5901 26.7447 72.6749 27.1939 73.4747 27.9934C74.2745 28.793 74.7239 29.8773 74.7239 31.0081V32.7127C74.7252 33.2734 74.6159 33.8289 74.4022 34.3474C74.1885 34.8659 73.8746 35.3371 73.4784 35.7341C73.0822 36.1311 72.6116 36.446 72.0935 36.6609C71.5754 36.8758 71.0199 36.9865 70.459 36.9865Z" fill="black"/>
<path opacity="0.1" d="M68.7681 36.9865H69.1883C69.7667 36.9865 70.2355 36.5178 70.2355 35.9397V27.8001C70.2355 27.222 69.7667 26.7534 69.1883 26.7534H68.7681C68.1898 26.7534 67.721 27.222 67.721 27.8001V35.9397C67.721 36.5178 68.1898 36.9865 68.7681 36.9865Z" fill="black"/>
</g>
<path d="M71.1661 32.166H45.2762V59.0115H71.1661V32.166Z" fill="#865A61"/>
<path opacity="0.1" d="M71.1661 28.4684H45.2762V55.3139H71.1661V28.4684Z" fill="black"/>
<path d="M70.2813 54.4303L68.7185 65.783L67.9822 71.1191L67.7113 73.0789L65.4416 77.502L61.274 85.619L53.2339 86.5841L39.0916 66.6475C39.0916 66.6475 31.6871 52.5017 42.945 53.7863C49.2572 54.5084 50.7593 48.8598 50.8722 43.7581C50.9006 41.1894 50.6679 38.6244 50.1776 36.1028L61.4338 41.5691C61.1721 42.7877 60.9753 43.9073 60.8433 44.928C60.2946 49.1046 60.7496 51.7084 61.7012 53.2863C64.2348 57.4889 70.2813 54.4303 70.2813 54.4303Z" fill="#FDC2CC"/>
<path opacity="0.1" d="M61.4364 41.5707C61.1747 42.7892 60.9779 43.9089 60.8459 44.9296C59.6779 45.2619 58.4693 45.4302 57.2548 45.4295C55.0187 45.4332 52.8196 44.8585 50.8714 43.7613C50.8997 41.1927 50.667 38.6277 50.1768 36.1061L61.4364 41.5707Z" fill="black"/>
<path d="M57.2556 45.1073C64.4495 45.1073 70.2813 39.2777 70.2813 32.0864C70.2813 24.8952 64.4495 19.0656 57.2556 19.0656C50.0618 19.0656 44.23 24.8952 44.23 32.0864C44.23 39.2777 50.0618 45.1073 57.2556 45.1073Z" fill="#FDC2CC"/>
<path d="M74.624 106.193L21.0731 110.377L29.7557 100.249C39.0722 94.5591 38.9923 86.7372 37.7542 81.8854C37.3699 80.3305 36.7893 78.8308 36.0263 77.4225L54.5359 77.5093H54.6922L56.2134 80.9654L56.2828 81.1216L57.4151 83.6925L61.2736 76.7802L62.6159 74.6173L63.3661 73.4021C63.3661 73.4021 74.4625 70.8296 74.6223 77.4207C74.6415 78.1775 74.6119 78.9348 74.5337 79.6878C73.9815 84.9927 71.078 88.52 68.6729 90.9242C65.9396 93.6547 74.624 106.193 74.624 106.193Z" fill="#EC7580"/>
<path d="M68.2291 92.0693C67.8366 93.6316 68.8264 96.3171 70.1392 98.9539C63.8443 99.6309 56.9417 99.2785 56.9417 99.2785L49.8584 101.209L29.9196 106.996C29.0514 105.873 28.3568 104.462 27.782 102.872L29.7581 100.567C35.9766 96.7684 38.0084 92.0207 38.3053 87.8407C38.4235 85.9435 38.2382 84.0397 37.7566 82.2008C37.3726 80.6472 36.7926 79.1487 36.0305 77.7413L54.5401 77.8281H54.6963L56.2175 81.2843L56.287 81.4405L57.4192 84.0113L61.2778 77.099L62.6166 74.9361L63.3668 73.721C63.3668 73.721 74.4632 71.1449 74.6247 77.7413C74.6439 78.4981 74.6143 79.2554 74.5361 80.0084C73.9839 85.3133 71.0804 88.8406 68.6753 91.2448C68.4538 91.4735 68.2994 91.7588 68.2291 92.0693Z" fill="#EC7580"/>
<path d="M110.001 100.406C109.679 104.263 100.353 99.1192 100.353 99.1192C100.353 99.1192 97.4577 98.1541 87.6481 91.8858C82.6678 88.7041 78.7405 84.1205 76.3607 78.7121C75.9855 77.8762 75.6715 77.014 75.4213 76.1326L82.1798 71.1454L84.1508 74.1572L90.7027 84.1646L100.351 90.5873C100.351 90.5873 110.322 96.5484 110.001 100.406Z" fill="#FDC2CC"/>
<path d="M195.873 113.105H10.4589L29.0205 107.615L75.4239 93.8871L105.014 85.1331H143.127L195.873 113.105Z" fill="#CBCDDA"/>
<path d="M10.4598 113.105L9.97705 121.625H196.195L195.874 113.105H10.4598Z" fill="#CBCDDA"/>
<path opacity="0.1" d="M10.4598 113.105L9.97705 121.625H196.195L195.874 113.105H10.4598Z" fill="black"/>
<path d="M59.0694 101.056L98.261 97.0309L98.7438 104.747L80.8298 106.523C79.5941 106.623 78.3503 106.526 77.1449 106.236L59.0364 101.56C58.9787 101.545 58.928 101.51 58.8931 101.462C58.8582 101.413 58.8413 101.354 58.8452 101.294C58.8491 101.235 58.8736 101.179 58.9145 101.135C58.9554 101.092 59.0102 101.064 59.0694 101.056Z" fill="#535461"/>
<path opacity="0.2" d="M59.0694 101.056L98.261 97.0309L98.7438 104.747L80.8298 106.523C79.5941 106.623 78.3503 106.526 77.1449 106.236L59.0364 101.56C58.9787 101.545 58.928 101.51 58.8931 101.462C58.8582 101.413 58.8413 101.354 58.8452 101.294C58.8491 101.235 58.8736 101.179 58.9145 101.135C58.9554 101.092 59.0102 101.064 59.0694 101.056Z" fill="black"/>
<path d="M59.0694 100.895L98.5839 96.8695L99.0667 104.586L81.151 106.037C79.9161 106.139 78.6729 106.044 77.4678 105.756L59.0364 101.4C58.9776 101.386 58.9257 101.351 58.8898 101.303C58.8539 101.254 58.8364 101.194 58.8404 101.134C58.8443 101.073 58.8695 101.016 58.9114 100.973C58.9532 100.929 59.0092 100.901 59.0694 100.895Z" fill="#535461"/>
<path opacity="0.3" d="M68.4384 101.177L89.3323 99.0486L89.5875 103.128L80.1148 103.897C79.4614 103.95 78.8038 103.899 78.1664 103.746L68.4211 101.442C68.3905 101.435 68.3636 101.416 68.345 101.391C68.3265 101.365 68.3174 101.334 68.3195 101.302C68.3216 101.271 68.3346 101.241 68.3563 101.218C68.378 101.195 68.4071 101.181 68.4384 101.177Z" fill="white"/>
<path opacity="0.1" d="M84.1519 74.1606C84.0251 74.3342 83.8046 74.4123 83.4677 74.3637C80.2517 73.8811 76.5529 78.5437 76.5529 78.5437C76.5529 78.5437 76.4869 78.6062 76.3671 78.7173C75.9919 77.8814 75.6779 77.0193 75.4276 76.1378L82.1809 71.1454L84.1519 74.1606Z" fill="black"/>
<path opacity="0.1" d="M74.5345 79.9989C73.022 80.8408 70.9399 81.4449 69.3162 79.8253C66.5118 77.0219 61.5957 77.3951 61.29 77.4124C61.7919 77.343 62.2364 76.3119 62.615 74.9301L63.3652 73.715C63.3652 73.715 74.4616 71.1459 74.6231 77.7422C74.6418 78.4956 74.6123 79.2494 74.5345 79.9989Z" fill="black"/>
<path opacity="0.1" d="M68.7138 65.7836L67.7066 73.0743L65.437 77.4973C64.0304 77.1373 62.576 77.0008 61.127 77.0929C62.7263 76.8724 63.7595 66.8824 63.7595 66.8824L63.8516 66.8616L68.7138 65.7836Z" fill="black"/>
<path d="M83.4672 74.0425C80.2511 73.5599 76.5523 78.2225 76.5523 78.2225C76.5523 78.2225 72.211 82.4025 69.3162 79.5088C66.5118 76.7053 61.5957 77.0786 61.29 77.0959C62.8894 76.8737 63.9226 66.8837 63.9226 66.8837L64.0146 66.8629L79.4471 63.4327C79.4471 63.4327 80.3675 64.8423 81.4059 66.6372C83.2796 69.8712 85.5371 74.3532 83.4672 74.0425Z" fill="#EC7580"/>
<path opacity="0.1" d="M79.6067 67.6128C79.7682 67.9339 77.0331 69.5413 75.7481 69.0588C74.4631 68.5762 71.2453 71.1418 70.924 71.4699C70.6028 71.798 63.3667 70.9873 63.3667 70.9873C63.6669 69.6271 63.8833 68.2496 64.0144 66.8629L79.4469 63.4327C79.4469 63.4327 80.3673 64.8423 81.4057 66.6372C80.4454 67.0312 79.5285 67.4548 79.6067 67.6128Z" fill="black"/>
<path opacity="0.1" d="M70.28 54.4307L68.7171 65.7834L67.9808 71.1196C65.824 70.9581 63.2088 70.6682 63.2088 70.6682C63.2088 70.6682 65.9421 59.2548 61.4393 53.3094C61.4393 53.3094 61.5348 53.3094 61.7068 53.292C64.2334 57.4894 70.28 54.4307 70.28 54.4307Z" fill="black"/>
<path d="M61.5979 53.3057C61.5979 53.3057 69.7995 52.6634 73.0155 54.9131C76.2316 57.1628 80.8959 63.9154 80.8959 63.9154L83.4694 65.5229C83.4694 65.5229 79.4494 66.9689 79.6108 67.2917C79.7723 67.6146 77.0373 69.2203 75.7523 68.7377C74.4673 68.2552 71.2495 70.8208 70.9282 71.1489C70.607 71.477 63.3709 70.6663 63.3709 70.6663C63.3709 70.6663 66.1007 59.2528 61.5979 53.3057Z" fill="#EC7580"/>
<path d="M120.851 97.5918C118.99 97.5466 75.2243 96.4114 71.0462 91.7522C66.5972 86.7911 70.916 72.496 74.5522 62.1744C78.5098 50.938 73.7916 34.8029 73.7447 34.6189L74.0556 34.5374C74.1042 34.7231 78.8466 50.9519 74.8561 62.2803C69.2003 78.339 68.0316 87.909 71.2858 91.537C75.3736 96.0937 120.405 97.2654 120.86 97.2654L120.851 97.5918Z" fill="#DFE6F5"/>
<path d="M90.5951 57.5374L131.08 56.9229C131.602 56.9761 132.108 57.1327 132.569 57.3836C133.03 57.6345 133.436 57.9746 133.763 58.3841C134.091 58.7936 134.334 59.2643 134.478 59.7687C134.621 60.273 134.663 60.8009 134.6 61.3216L130.007 99.5459C129.897 100.464 129.468 101.315 128.795 101.949C128.122 102.584 127.248 102.962 126.324 103.018L84.9444 105.578C84.3585 105.613 83.7722 105.517 83.228 105.297C82.6838 105.077 82.1956 104.739 81.7987 104.307C81.4018 103.874 81.1064 103.359 80.9338 102.798C80.7612 102.238 80.7159 101.645 80.8011 101.065L86.2955 60.8928C86.4428 59.888 86.9718 58.9786 87.7726 58.3537C88.5733 57.7288 89.5842 57.4364 90.5951 57.5374Z" fill="#535461"/>
<path opacity="0.2" d="M90.5951 57.5374L131.08 56.9229C131.602 56.9761 132.108 57.1327 132.569 57.3836C133.03 57.6345 133.436 57.9746 133.763 58.3841C134.091 58.7936 134.334 59.2643 134.478 59.7687C134.621 60.273 134.663 60.8009 134.6 61.3216L130.007 99.5459C129.897 100.464 129.468 101.315 128.795 101.949C128.122 102.584 127.248 102.962 126.324 103.018L84.9444 105.578C84.3585 105.613 83.7722 105.517 83.228 105.297C82.6838 105.077 82.1956 104.739 81.7987 104.307C81.4018 103.874 81.1064 103.359 80.9338 102.798C80.7612 102.238 80.7159 101.645 80.8011 101.065L86.2955 60.8928C86.4428 59.888 86.9718 58.9786 87.7726 58.3537C88.5733 57.7288 89.5842 57.4364 90.5951 57.5374Z" fill="black"/>
<path d="M90.915 57.5376L131.4 56.9231C131.923 56.9754 132.43 57.1314 132.891 57.382C133.353 57.6325 133.759 57.9725 134.088 58.3821C134.416 58.7917 134.66 59.2627 134.804 59.7674C134.948 60.2722 134.99 60.8007 134.927 61.3218L130.334 99.5461C130.224 100.464 129.795 101.315 129.122 101.95C128.449 102.584 127.574 102.962 126.651 103.018L85.2661 105.578C84.6802 105.613 84.0938 105.518 83.5497 105.298C83.0055 105.078 82.5172 104.739 82.1204 104.307C81.7235 103.875 81.428 103.359 81.2555 102.799C81.0829 102.238 81.0376 101.646 81.1228 101.065L86.6171 60.8931C86.7644 59.8886 87.2932 58.9795 88.0936 58.3546C88.894 57.7297 89.9044 57.4371 90.915 57.5376Z" fill="#535461"/>
<path opacity="0.3" d="M110.724 81.1948C111.79 81.1948 112.654 80.3314 112.654 79.2662C112.654 78.2011 111.79 77.3376 110.724 77.3376C109.659 77.3376 108.795 78.2011 108.795 79.2662C108.795 80.3314 109.659 81.1948 110.724 81.1948Z" fill="white"/>
<path opacity="0.1" d="M70.1392 98.9557C63.8444 99.6327 56.9417 99.2803 56.9417 99.2803L49.8584 101.209L29.9196 106.996C29.0514 105.873 28.3568 104.462 27.782 102.872L29.7581 100.567C35.9766 96.7685 38.0084 92.0208 38.3053 87.8408C38.8367 91.9983 38.9252 95.7426 38.9252 95.7426L46.9653 94.9389L58.6469 92.1614C59.4514 91.9701 60.2755 91.874 61.1024 91.875C62.6236 91.875 65.3308 91.908 68.2221 92.0642C67.8366 93.6283 68.8264 96.3154 70.1392 98.9557Z" fill="black"/>
<path opacity="0.1" d="M78.9639 96.8697C75.2651 101.209 56.2901 100.246 56.2901 100.246L49.2138 102.175L29.2733 107.96C29.1865 107.847 29.0997 107.733 29.0198 107.613L75.4249 93.8857C78.3874 94.4829 80.2055 95.4133 78.9639 96.8697Z" fill="black"/>
<path d="M78.966 96.5482C75.2672 100.888 56.2922 99.9245 56.2922 99.9245L49.2159 101.851L29.2754 107.639C24.5868 101.563 24.691 87.0841 24.9462 81.2272C25.0157 79.6545 25.0938 78.7032 25.0938 78.7032C25.0938 78.7032 31.8472 74.5232 34.9034 78.7032C35.4487 79.4479 35.9054 80.4895 36.2927 81.6977C38.0657 87.2681 38.2827 96.385 38.2827 96.385L46.3228 95.5813L58.0044 92.8039C58.8094 92.6124 59.6341 92.5163 60.4616 92.5174C65.303 92.5313 82.1403 92.823 78.966 96.5482Z" fill="#FDC2CC"/>
<path opacity="0.1" d="M36.2911 81.6994C35.2648 81.4772 34.0197 81.5258 32.3318 82.241C28.9543 83.687 26.3825 83.3658 26.3825 83.3658C26.3825 83.3658 26.5891 81.7254 24.9481 81.2272C25.0176 79.6545 25.0957 78.7032 25.0957 78.7032C25.0957 78.7032 31.8491 74.5232 34.9053 78.7032C35.4454 79.4479 35.9056 80.4895 36.2911 81.6994Z" fill="black"/>
<path opacity="0.1" d="M56.2828 81.4378C56.1752 81.4603 54.7287 81.7329 51.9415 81.1149C49.0468 80.4726 47.9215 81.7572 46.3135 82.4012C44.7054 83.0452 40.5326 83.3663 38.9176 82.7241C38.5373 82.5713 38.1553 82.3769 37.7507 82.2033C37.3685 80.6493 36.7902 79.1502 36.0298 77.7421L54.5394 77.8289L56.2169 81.285L56.2828 81.4378Z" fill="black"/>
<path d="M56.2819 81.116C56.2819 81.116 54.8354 81.4371 51.9406 80.7948C49.0458 80.1526 47.9205 81.4371 46.3125 82.0811C44.7045 82.7251 40.5229 83.0463 38.9149 82.4023C37.3069 81.7582 35.6989 80.4737 32.3161 81.9197C28.9334 83.3657 26.3668 83.0445 26.3668 83.0445C26.3668 83.0445 26.6881 80.4719 23.3123 80.7879C19.9365 81.1038 17.6842 79.5016 17.6842 79.5016L21.2719 71.2179L22.3485 68.7304L49.2542 66.8921H49.3827L56.2819 81.116Z" fill="#EC7580"/>
<path opacity="0.1" d="M51.9404 73.4018C50.1709 70.5081 40.844 73.0807 40.844 73.0807C40.844 73.0807 36.3412 74.3669 35.3757 71.9558C34.4102 69.5447 27.5058 71.1451 27.5058 71.1451C27.5058 71.1451 22.4959 73.0234 21.2838 71.2215L22.3605 68.734L49.254 66.8922L51.9404 73.4018Z" fill="black"/>
<path d="M44.2291 54.4306C44.2291 54.4306 35.385 52.6617 31.2052 54.9132C27.0254 57.1646 23.8093 62.1466 23.8093 62.1466L17.6968 67.7726C17.6968 67.7726 20.1088 68.8975 21.2341 70.826C22.3593 72.7546 27.5064 70.826 27.5064 70.826C27.5064 70.826 34.4212 69.2186 35.3867 71.6298C36.3522 74.0409 40.855 72.7546 40.855 72.7546C40.855 72.7546 50.1819 70.182 51.9514 73.0758L44.2291 54.4306Z" fill="#EC7580"/>
<path opacity="0.1" d="M54.4233 13.2416C53.2251 13.0403 51.9922 12.8441 50.8044 13.1028C48.8456 13.5281 47.3522 15.1164 46.253 16.7898C45.1538 18.4632 44.2994 20.3206 42.9432 21.7944C42.035 22.7821 40.9184 23.5754 40.1092 24.6447C38.9179 26.2191 38.5029 28.2276 38.1191 30.1648C37.5565 33.0082 36.9921 35.8932 37.2405 38.787C37.3655 40.2382 37.6954 41.6668 37.7736 43.1267C37.9316 46.0586 37.0651 48.9367 36.2107 51.7454C35.6185 53.6861 35.0073 55.6633 33.8369 57.321C33.0606 58.4199 32.0656 59.3399 31.1175 60.2929C30.8886 60.4872 30.7164 60.7397 30.6191 61.0237C30.4142 61.8535 31.4162 62.4124 32.182 62.7874C34.5245 63.9556 36.0614 66.2348 37.883 68.1131C39.7046 69.9913 42.3111 71.6039 44.8169 70.8506C45.5601 70.6266 46.2652 70.2013 47.0396 70.2152C47.5606 70.2239 48.0607 70.4357 48.5556 70.6093C49.7868 71.0414 51.0832 71.2587 52.3881 71.2515C52.6764 71.2761 52.9656 71.2158 53.2199 71.078C53.6072 70.8158 53.6818 70.2881 53.72 69.8229C53.9649 66.9032 54.208 63.973 54.043 61.048C53.6697 54.4239 47.5467 46.7616 49.8754 40.5454C50.8878 37.834 52.7389 35.5009 53.7635 32.7947C54.8436 29.9426 58.6518 27.6269 59.4072 24.6707C59.4922 24.3374 59.6086 23.9764 59.9003 23.8028C60.3015 23.5563 60.8242 23.7715 61.2114 24.0389C63.4029 25.5491 64.1166 28.389 64.9137 30.9269C65.556 32.971 66.3519 34.9636 67.2944 36.8879C67.8154 37.9294 68.9337 39.1359 69.9131 38.504C69.4199 42.8923 66.572 46.7252 65.9278 51.0927C65.2992 55.3491 66.8221 59.6992 66.2317 63.9591C65.843 66.7017 64.6006 69.2525 62.6805 71.2498C64.8473 71.6801 67.0756 71.7001 69.2498 71.3088C71.4534 70.9113 73.8116 69.868 74.6069 67.7746C75.4752 65.471 74.1329 62.9991 73.4504 60.6314C71.8129 54.9394 71.9396 48.2076 72.4589 42.3074C72.9937 36.2404 73.796 30.9286 72.4363 24.9919C72.1029 23.5355 71.7643 22.0669 71.1252 20.7164C69.7811 17.8782 67.0166 15.8472 63.9864 15.132C62.4235 14.764 60.8294 15.3351 59.3742 15.0643C58.6414 14.9272 57.9849 14.2259 57.273 13.9412C56.3596 13.568 55.3802 13.4013 54.4233 13.2416Z" fill="black"/>
<path d="M74.6005 67.441C73.8052 69.5345 71.447 70.5777 69.2416 70.9752C67.0674 71.3657 64.8392 71.3457 62.6723 70.9162C64.5918 68.9185 65.8342 66.3679 66.2235 63.6255C66.8157 59.3639 65.2928 55.0138 65.9196 50.7591C66.5639 46.3899 69.4118 42.557 69.905 38.1687C68.9256 38.8006 67.7986 37.5993 67.2845 36.5526C66.3423 34.6282 65.5465 32.6355 64.9038 30.5915C64.1067 28.0537 63.393 25.2103 61.2015 23.7035C60.8143 23.4362 60.2916 23.221 59.8904 23.4692C59.597 23.6428 59.4824 24.0091 59.3973 24.3371C58.6436 27.2881 54.8337 29.6073 53.7553 32.4594C52.729 35.1656 50.8779 37.4934 49.8655 40.2101C47.5455 46.4246 53.6685 54.0868 54.0331 60.7109C54.1964 63.6359 53.9533 66.5678 53.7101 69.4859C53.6702 69.9528 53.5955 70.4805 53.2083 70.7426C52.9545 70.8803 52.6659 70.9407 52.3782 70.9162C51.077 70.9241 49.7841 70.708 48.5562 70.2774C48.0612 70.1038 47.5646 69.8921 47.0402 69.8834C46.2657 69.8712 45.5607 70.2965 44.8174 70.5187C42.3116 71.2721 39.7034 69.6594 37.8835 67.7812C36.0636 65.903 34.5216 63.6272 32.1807 62.4659C31.4149 62.084 30.413 61.532 30.6179 60.7005C30.716 60.4174 30.8881 60.1657 31.1163 59.9715C32.0644 59.0184 33.0612 58.0967 33.8374 56.9996C35.0078 55.3418 35.6173 53.3647 36.2112 51.4239C37.0691 48.6153 37.9356 45.7372 37.7741 42.8053C37.6977 41.3523 37.3677 39.9237 37.241 38.4655C36.9909 35.577 37.557 32.6885 38.1196 29.8451C38.5017 27.9079 38.9167 25.8994 40.1097 24.325C40.9207 23.2557 42.0355 22.4624 42.9454 21.4747C44.3034 20.0009 45.1543 18.1435 46.2553 16.4684C47.3562 14.7932 48.8496 13.2066 50.8084 12.7813C51.9945 12.5227 53.2291 12.7206 54.4273 12.9202C55.3842 13.0816 56.3636 13.2483 57.2683 13.6146C57.982 13.8992 58.6384 14.6023 59.3695 14.7359C60.8247 15.0085 62.424 14.4374 63.9817 14.8054C67.0119 15.5188 69.7765 17.5498 71.1205 20.388C71.3835 20.9498 71.6052 21.5299 71.7839 22.1239C72.0409 22.9571 72.2371 23.8094 72.4316 24.66C72.4733 24.8336 72.5132 25.0211 72.5514 25.1999C73.7409 30.8519 72.9734 34.9677 72.4542 40.8472C71.935 46.7266 71.8082 54.6041 73.444 60.2891C74.1264 62.6638 75.4757 65.1375 74.6005 67.441Z" fill="#865A61"/>
<path opacity="0.05" d="M56.0502 77.6603C56.0502 77.6603 57.3369 79.7433 57.3369 81.1963C57.3369 81.1963 58.3024 77.6603 59.1064 77.6603" fill="black"/>
<path d="M52.9931 78.1408V88.7506C52.9956 90.4836 52.4118 92.1666 51.3365 93.526C51.1528 93.7578 50.9563 93.9792 50.7478 94.1891C50.0306 94.9092 49.1782 95.4806 48.2395 95.8705C47.3008 96.2604 46.2943 96.4611 45.2778 96.4611C44.2613 96.4611 43.2547 96.2604 42.316 95.8705C41.3773 95.4806 40.5249 94.9092 39.8077 94.1891C39.5993 93.9792 39.4027 93.7578 39.219 93.526C38.1437 92.1666 37.5599 90.4836 37.5624 88.7506V78.1408C37.5587 76.338 38.1901 74.5914 39.3458 73.2074C39.5509 72.9618 39.772 72.7298 40.0074 72.5131C41.4368 71.1734 43.3227 70.4279 45.2821 70.4279C47.2415 70.4279 49.1274 71.1734 50.5568 72.5131C50.6193 72.5686 50.6801 72.6294 50.7409 72.6867C50.9145 72.8602 51.0656 73.0338 51.2184 73.2074C52.371 74.5926 52.9992 76.3391 52.9931 78.1408Z" fill="#DFE6F5"/>
<path opacity="0.1" d="M52.9931 78.1408V88.7506C52.9956 90.4836 52.4118 92.1666 51.3365 93.526C51.1528 93.7578 50.9563 93.9792 50.7478 94.1891C50.0306 94.9092 49.1782 95.4806 48.2395 95.8705C47.3008 96.2604 46.2943 96.4611 45.2778 96.4611C44.2613 96.4611 43.2547 96.2604 42.316 95.8705C41.3773 95.4806 40.5249 94.9092 39.8077 94.1891C39.5993 93.9792 39.4027 93.7578 39.219 93.526C38.1437 92.1666 37.5599 90.4836 37.5624 88.7506V78.1408C37.5587 76.338 38.1901 74.5914 39.3458 73.2074C39.5509 72.9618 39.772 72.7298 40.0074 72.5131C41.4368 71.1734 43.3227 70.4279 45.2821 70.4279C47.2415 70.4279 49.1274 71.1734 50.5568 72.5131C50.6193 72.5686 50.6801 72.6294 50.7409 72.6867C50.9145 72.8602 51.0656 73.0338 51.2184 73.2074C52.371 74.5926 52.9992 76.3391 52.9931 78.1408Z" fill="black"/>
<path d="M53.3158 78.1412V88.7509C53.3183 90.484 52.7345 92.1669 51.6592 93.5264C51.4755 93.7582 51.2789 93.9796 51.0705 94.1895C50.3533 94.9096 49.5009 95.481 48.5622 95.8709C47.6235 96.2607 46.617 96.4615 45.6004 96.4615C44.5839 96.4615 43.5774 96.2607 42.6387 95.8709C41.7 95.481 40.8476 94.9096 40.1304 94.1895C39.9219 93.9796 39.7254 93.7582 39.5417 93.5264C38.4627 92.1683 37.8751 90.4852 37.8746 88.7509V78.1412C37.871 76.3384 38.5024 74.5918 39.6581 73.2078C39.8632 72.9622 40.0842 72.7302 40.3197 72.5134C41.7491 71.1738 43.635 70.4282 45.5944 70.4282C47.5537 70.4282 49.4397 71.1738 50.869 72.5134C50.9316 72.569 50.9923 72.6297 51.0531 72.687C51.2268 72.8606 51.3779 73.0342 51.5307 73.2078C52.687 74.5916 53.319 76.3381 53.3158 78.1412Z" fill="#DFE6F5"/>
<path opacity="0.1" d="M42.2184 73.3188C42.485 73.3188 42.7011 73.1027 42.7011 72.8362C42.7011 72.5697 42.485 72.3536 42.2184 72.3536C41.9517 72.3536 41.7356 72.5697 41.7356 72.8362C41.7356 73.1027 41.9517 73.3188 42.2184 73.3188Z" fill="black"/>
<path opacity="0.1" d="M42.2184 74.9262C42.485 74.9262 42.7011 74.7102 42.7011 74.4436C42.7011 74.1771 42.485 73.9611 42.2184 73.9611C41.9517 73.9611 41.7356 74.1771 41.7356 74.4436C41.7356 74.7102 41.9517 74.9262 42.2184 74.9262Z" fill="black"/>
<path opacity="0.1" d="M42.2184 76.5335C42.485 76.5335 42.7011 76.3175 42.7011 76.0509C42.7011 75.7844 42.485 75.5684 42.2184 75.5684C41.9517 75.5684 41.7356 75.7844 41.7356 76.0509C41.7356 76.3175 41.9517 76.5335 42.2184 76.5335Z" fill="black"/>
<path opacity="0.1" d="M42.2184 78.141C42.485 78.141 42.7011 77.925 42.7011 77.6585C42.7011 77.392 42.485 77.1759 42.2184 77.1759C41.9517 77.1759 41.7356 77.392 41.7356 77.6585C41.7356 77.925 41.9517 78.141 42.2184 78.141Z" fill="black"/>
<path opacity="0.1" d="M42.2184 79.7484C42.485 79.7484 42.7011 79.5323 42.7011 79.2658C42.7011 78.9993 42.485 78.7832 42.2184 78.7832C41.9517 78.7832 41.7356 78.9993 41.7356 79.2658C41.7356 79.5323 41.9517 79.7484 42.2184 79.7484Z" fill="black"/>
<path opacity="0.1" d="M42.2184 81.3559C42.485 81.3559 42.7011 81.1399 42.7011 80.8733C42.7011 80.6068 42.485 80.3907 42.2184 80.3907C41.9517 80.3907 41.7356 80.6068 41.7356 80.8733C41.7356 81.1399 41.9517 81.3559 42.2184 81.3559Z" fill="black"/>
<path opacity="0.1" d="M42.2184 82.9633C42.485 82.9633 42.7011 82.7473 42.7011 82.4807C42.7011 82.2142 42.485 81.9982 42.2184 81.9982C41.9517 81.9982 41.7356 82.2142 41.7356 82.4807C41.7356 82.7473 41.9517 82.9633 42.2184 82.9633Z" fill="black"/>
<path opacity="0.1" d="M42.2184 84.5724C42.485 84.5724 42.7011 84.3564 42.7011 84.0899C42.7011 83.8234 42.485 83.6073 42.2184 83.6073C41.9517 83.6073 41.7356 83.8234 41.7356 84.0899C41.7356 84.3564 41.9517 84.5724 42.2184 84.5724Z" fill="black"/>
<path opacity="0.1" d="M42.2184 86.18C42.485 86.18 42.7011 85.9639 42.7011 85.6974C42.7011 85.4309 42.485 85.2148 42.2184 85.2148C41.9517 85.2148 41.7356 85.4309 41.7356 85.6974C41.7356 85.9639 41.9517 86.18 42.2184 86.18Z" fill="black"/>
<path opacity="0.1" d="M42.2184 87.7874C42.485 87.7874 42.7011 87.5714 42.7011 87.3048C42.7011 87.0383 42.485 86.8223 42.2184 86.8223C41.9517 86.8223 41.7356 87.0383 41.7356 87.3048C41.7356 87.5714 41.9517 87.7874 42.2184 87.7874Z" fill="black"/>
<path opacity="0.1" d="M42.2184 89.3948C42.485 89.3948 42.7011 89.1788 42.7011 88.9123C42.7011 88.6457 42.485 88.4297 42.2184 88.4297C41.9517 88.4297 41.7356 88.6457 41.7356 88.9123C41.7356 89.1788 41.9517 89.3948 42.2184 89.3948Z" fill="black"/>
<path opacity="0.1" d="M42.2184 91.0023C42.485 91.0023 42.7011 90.7862 42.7011 90.5197C42.7011 90.2532 42.485 90.0371 42.2184 90.0371C41.9517 90.0371 41.7356 90.2532 41.7356 90.5197C41.7356 90.7862 41.9517 91.0023 42.2184 91.0023Z" fill="black"/>
<path opacity="0.1" d="M42.2184 92.6097C42.485 92.6097 42.7011 92.3936 42.7011 92.1271C42.7011 91.8606 42.485 91.6445 42.2184 91.6445C41.9517 91.6445 41.7356 91.8606 41.7356 92.1271C41.7356 92.3936 41.9517 92.6097 42.2184 92.6097Z" fill="black"/>
<path opacity="0.1" d="M42.2184 94.2171C42.485 94.2171 42.7011 94.0011 42.7011 93.7345C42.7011 93.468 42.485 93.252 42.2184 93.252C41.9517 93.252 41.7356 93.468 41.7356 93.7345C41.7356 94.0011 41.9517 94.2171 42.2184 94.2171Z" fill="black"/>
<path opacity="0.1" d="M40.451 72.8361C40.4509 72.9275 40.4247 73.0171 40.3757 73.0943C40.3266 73.1715 40.2565 73.2332 40.1737 73.2721C40.0909 73.311 39.9987 73.3257 39.9079 73.3142C39.8171 73.3028 39.7315 73.2658 39.6609 73.2075C39.866 72.9619 40.087 72.73 40.3225 72.5132C40.4048 72.6006 40.4508 72.716 40.451 72.8361Z" fill="black"/>
<path opacity="0.1" d="M39.969 74.9261C40.2356 74.9261 40.4517 74.71 40.4517 74.4435C40.4517 74.177 40.2356 73.9609 39.969 73.9609C39.7023 73.9609 39.4862 74.177 39.4862 74.4435C39.4862 74.71 39.7023 74.9261 39.969 74.9261Z" fill="black"/>
<path opacity="0.1" d="M39.969 76.5331C40.2356 76.5331 40.4517 76.3171 40.4517 76.0506C40.4517 75.7841 40.2356 75.568 39.969 75.568C39.7023 75.568 39.4862 75.7841 39.4862 76.0506C39.4862 76.3171 39.7023 76.5331 39.969 76.5331Z" fill="black"/>
<path opacity="0.1" d="M39.969 78.141C40.2356 78.141 40.4517 77.925 40.4517 77.6585C40.4517 77.392 40.2356 77.1759 39.969 77.1759C39.7023 77.1759 39.4862 77.392 39.4862 77.6585C39.4862 77.925 39.7023 78.141 39.969 78.141Z" fill="black"/>
<path opacity="0.1" d="M39.969 79.7481C40.2356 79.7481 40.4517 79.5321 40.4517 79.2655C40.4517 78.999 40.2356 78.783 39.969 78.783C39.7023 78.783 39.4862 78.999 39.4862 79.2655C39.4862 79.5321 39.7023 79.7481 39.969 79.7481Z" fill="black"/>
<path opacity="0.1" d="M39.969 81.356C40.2356 81.356 40.4517 81.14 40.4517 80.8735C40.4517 80.6069 40.2356 80.3909 39.969 80.3909C39.7023 80.3909 39.4862 80.6069 39.4862 80.8735C39.4862 81.14 39.7023 81.356 39.969 81.356Z" fill="black"/>
<path opacity="0.1" d="M39.969 82.963C40.2356 82.963 40.4517 82.7469 40.4517 82.4804C40.4517 82.2139 40.2356 81.9978 39.969 81.9978C39.7023 81.9978 39.4862 82.2139 39.4862 82.4804C39.4862 82.7469 39.7023 82.963 39.969 82.963Z" fill="black"/>
<path opacity="0.1" d="M39.969 84.5727C40.2356 84.5727 40.4517 84.3566 40.4517 84.0901C40.4517 83.8236 40.2356 83.6075 39.969 83.6075C39.7023 83.6075 39.4862 83.8236 39.4862 84.0901C39.4862 84.3566 39.7023 84.5727 39.969 84.5727Z" fill="black"/>
<path opacity="0.1" d="M39.969 86.1797C40.2356 86.1797 40.4517 85.9637 40.4517 85.6972C40.4517 85.4307 40.2356 85.2146 39.969 85.2146C39.7023 85.2146 39.4862 85.4307 39.4862 85.6972C39.4862 85.9637 39.7023 86.1797 39.969 86.1797Z" fill="black"/>
<path opacity="0.1" d="M39.969 87.7877C40.2356 87.7877 40.4517 87.5716 40.4517 87.3051C40.4517 87.0386 40.2356 86.8225 39.969 86.8225C39.7023 86.8225 39.4862 87.0386 39.4862 87.3051C39.4862 87.5716 39.7023 87.7877 39.969 87.7877Z" fill="black"/>
<path opacity="0.1" d="M39.969 89.3946C40.2356 89.3946 40.4517 89.1785 40.4517 88.912C40.4517 88.6455 40.2356 88.4294 39.969 88.4294C39.7023 88.4294 39.4862 88.6455 39.4862 88.912C39.4862 89.1785 39.7023 89.3946 39.969 89.3946Z" fill="black"/>
<path opacity="0.1" d="M39.969 91.0025C40.2356 91.0025 40.4517 90.7865 40.4517 90.5199C40.4517 90.2534 40.2356 90.0374 39.969 90.0374C39.7023 90.0374 39.4862 90.2534 39.4862 90.5199C39.4862 90.7865 39.7023 91.0025 39.969 91.0025Z" fill="black"/>
<path opacity="0.1" d="M39.969 92.6096C40.2356 92.6096 40.4517 92.3935 40.4517 92.127C40.4517 91.8605 40.2356 91.6444 39.969 91.6444C39.7023 91.6444 39.4862 91.8605 39.4862 92.127C39.4862 92.3935 39.7023 92.6096 39.969 92.6096Z" fill="black"/>
<path opacity="0.1" d="M40.4511 93.7345C40.4512 93.8354 40.4196 93.9338 40.3607 94.0157C40.3018 94.0977 40.2186 94.159 40.1229 94.1911C39.9144 93.9812 39.7179 93.7598 39.5342 93.528C39.5806 93.4286 39.6596 93.348 39.7581 93.2997C39.8567 93.2513 39.9688 93.2381 40.0758 93.2623C40.1829 93.2864 40.2785 93.3464 40.3467 93.4323C40.415 93.5182 40.4518 93.6248 40.4511 93.7345Z" fill="black"/>
<path opacity="0.1" d="M44.4708 73.3188C44.7374 73.3188 44.9535 73.1027 44.9535 72.8362C44.9535 72.5697 44.7374 72.3536 44.4708 72.3536C44.2042 72.3536 43.988 72.5697 43.988 72.8362C43.988 73.1027 44.2042 73.3188 44.4708 73.3188Z" fill="black"/>
<path opacity="0.1" d="M44.4708 74.9262C44.7374 74.9262 44.9535 74.7102 44.9535 74.4436C44.9535 74.1771 44.7374 73.9611 44.4708 73.9611C44.2042 73.9611 43.988 74.1771 43.988 74.4436C43.988 74.7102 44.2042 74.9262 44.4708 74.9262Z" fill="black"/>
<path opacity="0.1" d="M44.4708 76.5335C44.7374 76.5335 44.9535 76.3175 44.9535 76.0509C44.9535 75.7844 44.7374 75.5684 44.4708 75.5684C44.2042 75.5684 43.988 75.7844 43.988 76.0509C43.988 76.3175 44.2042 76.5335 44.4708 76.5335Z" fill="black"/>
<path opacity="0.1" d="M44.4708 78.141C44.7374 78.141 44.9535 77.925 44.9535 77.6585C44.9535 77.392 44.7374 77.1759 44.4708 77.1759C44.2042 77.1759 43.988 77.392 43.988 77.6585C43.988 77.925 44.2042 78.141 44.4708 78.141Z" fill="black"/>
<path opacity="0.1" d="M44.4708 79.7484C44.7374 79.7484 44.9535 79.5323 44.9535 79.2658C44.9535 78.9993 44.7374 78.7832 44.4708 78.7832C44.2042 78.7832 43.988 78.9993 43.988 79.2658C43.988 79.5323 44.2042 79.7484 44.4708 79.7484Z" fill="black"/>
<path opacity="0.1" d="M44.4708 81.3559C44.7374 81.3559 44.9535 81.1399 44.9535 80.8733C44.9535 80.6068 44.7374 80.3907 44.4708 80.3907C44.2042 80.3907 43.988 80.6068 43.988 80.8733C43.988 81.1399 44.2042 81.3559 44.4708 81.3559Z" fill="black"/>
<path opacity="0.1" d="M44.4708 82.9633C44.7374 82.9633 44.9535 82.7473 44.9535 82.4807C44.9535 82.2142 44.7374 81.9982 44.4708 81.9982C44.2042 81.9982 43.988 82.2142 43.988 82.4807C43.988 82.7473 44.2042 82.9633 44.4708 82.9633Z" fill="black"/>
<path opacity="0.1" d="M44.4708 84.5724C44.7374 84.5724 44.9535 84.3564 44.9535 84.0899C44.9535 83.8234 44.7374 83.6073 44.4708 83.6073C44.2042 83.6073 43.988 83.8234 43.988 84.0899C43.988 84.3564 44.2042 84.5724 44.4708 84.5724Z" fill="black"/>
<path opacity="0.1" d="M44.4708 86.18C44.7374 86.18 44.9535 85.9639 44.9535 85.6974C44.9535 85.4309 44.7374 85.2148 44.4708 85.2148C44.2042 85.2148 43.988 85.4309 43.988 85.6974C43.988 85.9639 44.2042 86.18 44.4708 86.18Z" fill="black"/>
<path opacity="0.1" d="M44.4708 87.7874C44.7374 87.7874 44.9535 87.5714 44.9535 87.3048C44.9535 87.0383 44.7374 86.8223 44.4708 86.8223C44.2042 86.8223 43.988 87.0383 43.988 87.3048C43.988 87.5714 44.2042 87.7874 44.4708 87.7874Z" fill="black"/>
<path opacity="0.1" d="M44.4708 89.3948C44.7374 89.3948 44.9535 89.1788 44.9535 88.9123C44.9535 88.6457 44.7374 88.4297 44.4708 88.4297C44.2042 88.4297 43.988 88.6457 43.988 88.9123C43.988 89.1788 44.2042 89.3948 44.4708 89.3948Z" fill="black"/>
<path opacity="0.1" d="M44.4708 91.0023C44.7374 91.0023 44.9535 90.7862 44.9535 90.5197C44.9535 90.2532 44.7374 90.0371 44.4708 90.0371C44.2042 90.0371 43.988 90.2532 43.988 90.5197C43.988 90.7862 44.2042 91.0023 44.4708 91.0023Z" fill="black"/>
<path opacity="0.1" d="M44.4708 92.6097C44.7374 92.6097 44.9535 92.3936 44.9535 92.1271C44.9535 91.8606 44.7374 91.6445 44.4708 91.6445C44.2042 91.6445 43.988 91.8606 43.988 92.1271C43.988 92.3936 44.2042 92.6097 44.4708 92.6097Z" fill="black"/>
<path opacity="0.1" d="M44.4708 94.2171C44.7374 94.2171 44.9535 94.0011 44.9535 93.7345C44.9535 93.468 44.7374 93.252 44.4708 93.252C44.2042 93.252 43.988 93.468 43.988 93.7345C43.988 94.0011 44.2042 94.2171 44.4708 94.2171Z" fill="black"/>
<path opacity="0.1" d="M46.7226 73.319C46.9892 73.319 47.2054 73.103 47.2054 72.8364C47.2054 72.5699 46.9892 72.3539 46.7226 72.3539C46.456 72.3539 46.2399 72.5699 46.2399 72.8364C46.2399 73.103 46.456 73.319 46.7226 73.319Z" fill="black"/>
<path opacity="0.1" d="M46.7226 74.9261C46.9892 74.9261 47.2054 74.71 47.2054 74.4435C47.2054 74.177 46.9892 73.9609 46.7226 73.9609C46.456 73.9609 46.2399 74.177 46.2399 74.4435C46.2399 74.71 46.456 74.9261 46.7226 74.9261Z" fill="black"/>
<path opacity="0.1" d="M46.7226 76.5331C46.9892 76.5331 47.2054 76.3171 47.2054 76.0506C47.2054 75.7841 46.9892 75.568 46.7226 75.568C46.456 75.568 46.2399 75.7841 46.2399 76.0506C46.2399 76.3171 46.456 76.5331 46.7226 76.5331Z" fill="black"/>
<path opacity="0.1" d="M46.7226 78.141C46.9892 78.141 47.2054 77.925 47.2054 77.6585C47.2054 77.392 46.9892 77.1759 46.7226 77.1759C46.456 77.1759 46.2399 77.392 46.2399 77.6585C46.2399 77.925 46.456 78.141 46.7226 78.141Z" fill="black"/>
<path opacity="0.1" d="M46.7226 79.7482C46.9892 79.7482 47.2054 79.5322 47.2054 79.2657C47.2054 78.9991 46.9892 78.7831 46.7226 78.7831C46.456 78.7831 46.2399 78.9991 46.2399 79.2657C46.2399 79.5322 46.456 79.7482 46.7226 79.7482Z" fill="black"/>
<path opacity="0.1" d="M46.7226 81.3562C46.9892 81.3562 47.2054 81.1401 47.2054 80.8736C47.2054 80.6071 46.9892 80.391 46.7226 80.391C46.456 80.391 46.2399 80.6071 46.2399 80.8736C46.2399 81.1401 46.456 81.3562 46.7226 81.3562Z" fill="black"/>
<path opacity="0.1" d="M46.7226 82.9632C46.9892 82.9632 47.2054 82.7471 47.2054 82.4806C47.2054 82.2141 46.9892 81.998 46.7226 81.998C46.456 81.998 46.2399 82.2141 46.2399 82.4806C46.2399 82.7471 46.456 82.9632 46.7226 82.9632Z" fill="black"/>
<path opacity="0.1" d="M46.7226 84.5727C46.9892 84.5727 47.2054 84.3566 47.2054 84.0901C47.2054 83.8236 46.9892 83.6075 46.7226 83.6075C46.456 83.6075 46.2399 83.8236 46.2399 84.0901C46.2399 84.3566 46.456 84.5727 46.7226 84.5727Z" fill="black"/>
<path opacity="0.1" d="M46.7226 86.1797C46.9892 86.1797 47.2054 85.9637 47.2054 85.6972C47.2054 85.4307 46.9892 85.2146 46.7226 85.2146C46.456 85.2146 46.2399 85.4307 46.2399 85.6972C46.2399 85.9637 46.456 86.1797 46.7226 86.1797Z" fill="black"/>
<path opacity="0.1" d="M46.7226 87.7877C46.9892 87.7877 47.2054 87.5716 47.2054 87.3051C47.2054 87.0386 46.9892 86.8225 46.7226 86.8225C46.456 86.8225 46.2399 87.0386 46.2399 87.3051C46.2399 87.5716 46.456 87.7877 46.7226 87.7877Z" fill="black"/>
<path opacity="0.1" d="M46.7226 89.3947C46.9892 89.3947 47.2054 89.1787 47.2054 88.9121C47.2054 88.6456 46.9892 88.4296 46.7226 88.4296C46.456 88.4296 46.2399 88.6456 46.2399 88.9121C46.2399 89.1787 46.456 89.3947 46.7226 89.3947Z" fill="black"/>
<path opacity="0.1" d="M46.7226 91.0026C46.9892 91.0026 47.2054 90.7866 47.2054 90.5201C47.2054 90.2535 46.9892 90.0375 46.7226 90.0375C46.456 90.0375 46.2399 90.2535 46.2399 90.5201C46.2399 90.7866 46.456 91.0026 46.7226 91.0026Z" fill="black"/>
<path opacity="0.1" d="M46.7226 92.6098C46.9892 92.6098 47.2054 92.3937 47.2054 92.1272C47.2054 91.8607 46.9892 91.6447 46.7226 91.6447C46.456 91.6447 46.2399 91.8607 46.2399 92.1272C46.2399 92.3937 46.456 92.6098 46.7226 92.6098Z" fill="black"/>
<path opacity="0.1" d="M46.7226 94.2176C46.9892 94.2176 47.2054 94.0016 47.2054 93.735C47.2054 93.4685 46.9892 93.2524 46.7226 93.2524C46.456 93.2524 46.2399 93.4685 46.2399 93.735C46.2399 94.0016 46.456 94.2176 46.7226 94.2176Z" fill="black"/>
<path opacity="0.1" d="M48.9729 73.3191C49.2395 73.3191 49.4556 73.1031 49.4556 72.8366C49.4556 72.5701 49.2395 72.354 48.9729 72.354C48.7062 72.354 48.4901 72.5701 48.4901 72.8366C48.4901 73.1031 48.7062 73.3191 48.9729 73.3191Z" fill="black"/>
<path opacity="0.1" d="M48.9729 74.9261C49.2395 74.9261 49.4556 74.71 49.4556 74.4435C49.4556 74.177 49.2395 73.9609 48.9729 73.9609C48.7062 73.9609 48.4901 74.177 48.4901 74.4435C48.4901 74.71 48.7062 74.9261 48.9729 74.9261Z" fill="black"/>
<path opacity="0.1" d="M48.9729 76.5331C49.2395 76.5331 49.4556 76.3171 49.4556 76.0506C49.4556 75.7841 49.2395 75.568 48.9729 75.568C48.7062 75.568 48.4901 75.7841 48.4901 76.0506C48.4901 76.3171 48.7062 76.5331 48.9729 76.5331Z" fill="black"/>
<path opacity="0.1" d="M48.9729 78.141C49.2395 78.141 49.4556 77.925 49.4556 77.6585C49.4556 77.392 49.2395 77.1759 48.9729 77.1759C48.7062 77.1759 48.4901 77.392 48.4901 77.6585C48.4901 77.925 48.7062 78.141 48.9729 78.141Z" fill="black"/>
<path opacity="0.1" d="M48.9729 79.7481C49.2395 79.7481 49.4556 79.5321 49.4556 79.2655C49.4556 78.999 49.2395 78.783 48.9729 78.783C48.7062 78.783 48.4901 78.999 48.4901 79.2655C48.4901 79.5321 48.7062 79.7481 48.9729 79.7481Z" fill="black"/>
<path opacity="0.1" d="M48.9729 81.356C49.2395 81.356 49.4556 81.14 49.4556 80.8735C49.4556 80.6069 49.2395 80.3909 48.9729 80.3909C48.7062 80.3909 48.4901 80.6069 48.4901 80.8735C48.4901 81.14 48.7062 81.356 48.9729 81.356Z" fill="black"/>
<path opacity="0.1" d="M48.9729 82.963C49.2395 82.963 49.4556 82.7469 49.4556 82.4804C49.4556 82.2139 49.2395 81.9978 48.9729 81.9978C48.7062 81.9978 48.4901 82.2139 48.4901 82.4804C48.4901 82.7469 48.7062 82.963 48.9729 82.963Z" fill="black"/>
<path opacity="0.1" d="M48.9729 84.5727C49.2395 84.5727 49.4556 84.3566 49.4556 84.0901C49.4556 83.8236 49.2395 83.6075 48.9729 83.6075C48.7062 83.6075 48.4901 83.8236 48.4901 84.0901C48.4901 84.3566 48.7062 84.5727 48.9729 84.5727Z" fill="black"/>
<path opacity="0.1" d="M48.9729 86.1797C49.2395 86.1797 49.4556 85.9637 49.4556 85.6972C49.4556 85.4307 49.2395 85.2146 48.9729 85.2146C48.7062 85.2146 48.4901 85.4307 48.4901 85.6972C48.4901 85.9637 48.7062 86.1797 48.9729 86.1797Z" fill="black"/>
<path opacity="0.1" d="M48.9729 87.7877C49.2395 87.7877 49.4556 87.5716 49.4556 87.3051C49.4556 87.0386 49.2395 86.8225 48.9729 86.8225C48.7062 86.8225 48.4901 87.0386 48.4901 87.3051C48.4901 87.5716 48.7062 87.7877 48.9729 87.7877Z" fill="black"/>
<path opacity="0.1" d="M48.9729 89.3946C49.2395 89.3946 49.4556 89.1785 49.4556 88.912C49.4556 88.6455 49.2395 88.4294 48.9729 88.4294C48.7062 88.4294 48.4901 88.6455 48.4901 88.912C48.4901 89.1785 48.7062 89.3946 48.9729 89.3946Z" fill="black"/>
<path opacity="0.1" d="M48.9729 91.0025C49.2395 91.0025 49.4556 90.7865 49.4556 90.5199C49.4556 90.2534 49.2395 90.0374 48.9729 90.0374C48.7062 90.0374 48.4901 90.2534 48.4901 90.5199C48.4901 90.7865 48.7062 91.0025 48.9729 91.0025Z" fill="black"/>
<path opacity="0.1" d="M48.9729 92.6096C49.2395 92.6096 49.4556 92.3935 49.4556 92.127C49.4556 91.8605 49.2395 91.6444 48.9729 91.6444C48.7062 91.6444 48.4901 91.8605 48.4901 92.127C48.4901 92.3935 48.7062 92.6096 48.9729 92.6096Z" fill="black"/>
<path opacity="0.1" d="M48.9729 94.2175C49.2395 94.2175 49.4556 94.0014 49.4556 93.7349C49.4556 93.4684 49.2395 93.2523 48.9729 93.2523C48.7062 93.2523 48.4901 93.4684 48.4901 93.7349C48.4901 94.0014 48.7062 94.2175 48.9729 94.2175Z" fill="black"/>
<path opacity="0.1" d="M51.5329 73.2076C51.4624 73.2659 51.3767 73.3028 51.2859 73.3143C51.1951 73.3257 51.1029 73.3111 51.0201 73.2722C50.9373 73.2332 50.8672 73.1716 50.8182 73.0944C50.7691 73.0172 50.7429 72.9276 50.7428 72.8361C50.7421 72.7149 50.7881 72.598 50.8713 72.5098C50.9338 72.5653 50.9946 72.6261 51.0554 72.6834C51.2221 72.8535 51.3801 73.0271 51.5329 73.2076Z" fill="black"/>
<path opacity="0.1" d="M51.224 74.9262C51.4906 74.9262 51.7067 74.7102 51.7067 74.4436C51.7067 74.1771 51.4906 73.9611 51.224 73.9611C50.9573 73.9611 50.7412 74.1771 50.7412 74.4436C50.7412 74.7102 50.9573 74.9262 51.224 74.9262Z" fill="black"/>
<path opacity="0.1" d="M51.224 76.5335C51.4906 76.5335 51.7067 76.3175 51.7067 76.0509C51.7067 75.7844 51.4906 75.5684 51.224 75.5684C50.9573 75.5684 50.7412 75.7844 50.7412 76.0509C50.7412 76.3175 50.9573 76.5335 51.224 76.5335Z" fill="black"/>
<path opacity="0.1" d="M51.224 78.141C51.4906 78.141 51.7067 77.925 51.7067 77.6585C51.7067 77.392 51.4906 77.1759 51.224 77.1759C50.9573 77.1759 50.7412 77.392 50.7412 77.6585C50.7412 77.925 50.9573 78.141 51.224 78.141Z" fill="black"/>
<path opacity="0.1" d="M51.224 79.7484C51.4906 79.7484 51.7067 79.5323 51.7067 79.2658C51.7067 78.9993 51.4906 78.7832 51.224 78.7832C50.9573 78.7832 50.7412 78.9993 50.7412 79.2658C50.7412 79.5323 50.9573 79.7484 51.224 79.7484Z" fill="black"/>
<path opacity="0.1" d="M51.224 81.3559C51.4906 81.3559 51.7067 81.1399 51.7067 80.8733C51.7067 80.6068 51.4906 80.3907 51.224 80.3907C50.9573 80.3907 50.7412 80.6068 50.7412 80.8733C50.7412 81.1399 50.9573 81.3559 51.224 81.3559Z" fill="black"/>
<path opacity="0.1" d="M51.224 82.9633C51.4906 82.9633 51.7067 82.7473 51.7067 82.4807C51.7067 82.2142 51.4906 81.9982 51.224 81.9982C50.9573 81.9982 50.7412 82.2142 50.7412 82.4807C50.7412 82.7473 50.9573 82.9633 51.224 82.9633Z" fill="black"/>
<path opacity="0.1" d="M51.224 84.5724C51.4906 84.5724 51.7067 84.3564 51.7067 84.0899C51.7067 83.8234 51.4906 83.6073 51.224 83.6073C50.9573 83.6073 50.7412 83.8234 50.7412 84.0899C50.7412 84.3564 50.9573 84.5724 51.224 84.5724Z" fill="black"/>
<path opacity="0.1" d="M51.224 86.18C51.4906 86.18 51.7067 85.9639 51.7067 85.6974C51.7067 85.4309 51.4906 85.2148 51.224 85.2148C50.9573 85.2148 50.7412 85.4309 50.7412 85.6974C50.7412 85.9639 50.9573 86.18 51.224 86.18Z" fill="black"/>
<path opacity="0.1" d="M51.224 87.7874C51.4906 87.7874 51.7067 87.5714 51.7067 87.3048C51.7067 87.0383 51.4906 86.8223 51.224 86.8223C50.9573 86.8223 50.7412 87.0383 50.7412 87.3048C50.7412 87.5714 50.9573 87.7874 51.224 87.7874Z" fill="black"/>
<path opacity="0.1" d="M51.224 89.3948C51.4906 89.3948 51.7067 89.1788 51.7067 88.9123C51.7067 88.6457 51.4906 88.4297 51.224 88.4297C50.9573 88.4297 50.7412 88.6457 50.7412 88.9123C50.7412 89.1788 50.9573 89.3948 51.224 89.3948Z" fill="black"/>
<path opacity="0.1" d="M51.224 91.0023C51.4906 91.0023 51.7067 90.7862 51.7067 90.5197C51.7067 90.2532 51.4906 90.0371 51.224 90.0371C50.9573 90.0371 50.7412 90.2532 50.7412 90.5197C50.7412 90.7862 50.9573 91.0023 51.224 91.0023Z" fill="black"/>
<path opacity="0.1" d="M51.224 92.6097C51.4906 92.6097 51.7067 92.3936 51.7067 92.1271C51.7067 91.8606 51.4906 91.6445 51.224 91.6445C50.9573 91.6445 50.7412 91.8606 50.7412 92.1271C50.7412 92.3936 50.9573 92.6097 51.224 92.6097Z" fill="black"/>
<path opacity="0.1" d="M51.6591 93.5264C51.4754 93.7582 51.2788 93.9796 51.0704 94.1895C50.9945 94.1644 50.926 94.1209 50.8711 94.0628C50.8162 94.0047 50.7766 93.9339 50.7558 93.8567C50.7351 93.7795 50.7338 93.6984 50.7521 93.6206C50.7705 93.5428 50.8079 93.4708 50.8609 93.411C50.914 93.3513 50.9811 93.3056 51.0562 93.2781C51.1312 93.2507 51.212 93.2423 51.2911 93.2537C51.3702 93.2652 51.4453 93.2961 51.5095 93.3437C51.5737 93.3913 51.6251 93.454 51.6591 93.5264Z" fill="black"/>
<path d="M45.4621 87.947H45.087C44.5691 87.947 44.1493 88.3667 44.1493 88.8844V108.55C44.1493 109.068 44.5691 109.488 45.087 109.488H45.4621C45.98 109.488 46.3998 109.068 46.3998 108.55V88.8844C46.3998 88.3667 45.98 87.947 45.4621 87.947Z" fill="#54576B"/>
<path d="M51.787 106.594H38.763C38.0965 106.594 37.5562 107.134 37.5562 107.801V108.282C37.5562 108.948 38.0965 109.488 38.763 109.488H51.787C52.4535 109.488 52.9938 108.948 52.9938 108.282V107.801C52.9938 107.134 52.4535 106.594 51.787 106.594Z" fill="#54576B"/>
<path opacity="0.1" d="M45.4621 87.947H45.087C44.5691 87.947 44.1493 88.3667 44.1493 88.8844V108.55C44.1493 109.068 44.5691 109.488 45.087 109.488H45.4621C45.98 109.488 46.3998 109.068 46.3998 108.55V88.8844C46.3998 88.3667 45.98 87.947 45.4621 87.947Z" fill="black"/>
<path opacity="0.1" d="M51.787 106.594H38.763C38.0965 106.594 37.5562 107.134 37.5562 107.801V108.282C37.5562 108.948 38.0965 109.488 38.763 109.488H51.787C52.4535 109.488 52.9938 108.948 52.9938 108.282V107.801C52.9938 107.134 52.4535 106.594 51.787 106.594Z" fill="black"/>
<path d="M45.7823 87.947H45.4072C44.8893 87.947 44.4695 88.3667 44.4695 88.8844V108.55C44.4695 109.068 44.8893 109.488 45.4072 109.488H45.7823C46.3002 109.488 46.72 109.068 46.72 108.55V88.8844C46.72 88.3667 46.3002 87.947 45.7823 87.947Z" fill="#54576B"/>
<path d="M52.107 106.594H39.0831C38.4166 106.594 37.8762 107.134 37.8762 107.801V108.282C37.8762 108.948 38.4166 109.488 39.0831 109.488H52.107C52.7736 109.488 53.3139 108.948 53.3139 108.282V107.801C53.3139 107.134 52.7736 106.594 52.107 106.594Z" fill="#54576B"/>
<path d="M59.0007 89.7696C57.7938 92.3946 55.8591 94.6184 53.426 96.1773C50.9928 97.7362 48.1635 98.5648 45.2735 98.5648C42.3835 98.5648 39.5542 97.7362 37.1211 96.1773C34.688 94.6184 32.7532 92.3946 31.5463 89.7696C29.947 87.4765 28.5491 82.9042 28.5491 83.4475C28.5491 85.643 28.9817 87.817 29.8221 89.8454C30.6626 91.8737 31.8945 93.7167 33.4475 95.2692C35.0006 96.8216 36.8442 98.0531 38.8734 98.8933C40.9025 99.7334 43.0772 100.166 45.2735 100.166C47.4698 100.166 49.6446 99.7334 51.6737 98.8933C53.7028 98.0531 55.5465 96.8216 57.0995 95.2692C58.6525 93.7167 59.8844 91.8737 60.7249 89.8454C61.5654 87.817 61.998 85.643 61.998 83.4475C61.998 82.9042 60.6001 87.4765 59.0007 89.7696Z" fill="#54576B"/>
<path d="M45.2757 66.7274C42.5779 66.7281 39.9203 67.3815 37.5299 68.6317C35.1395 69.8819 33.0873 71.6919 31.5485 73.9071C30.6313 75.8885 30.1573 78.0459 30.1593 80.2292C30.1593 80.7661 30.1877 81.3027 30.2444 81.8366C30.6225 78.1145 32.3691 74.6651 35.146 72.1568C37.9229 69.6486 41.5323 68.2599 45.2749 68.2599C49.0175 68.2599 52.6269 69.6486 55.4037 72.1568C58.1806 74.6651 59.9273 78.1145 60.3053 81.8366C60.3621 81.3027 60.3905 80.7661 60.3904 80.2292C60.3925 78.0459 59.9184 75.8885 59.0012 73.9071C57.4626 71.6922 55.4107 69.8823 53.0206 68.6321C50.6305 67.3819 47.9733 66.7284 45.2757 66.7274Z" fill="#54576B"/>
<path opacity="0.1" d="M45.5954 90.6793C45.9502 90.6793 46.2379 90.3918 46.2379 90.0371C46.2379 89.6823 45.9502 89.3948 45.5954 89.3948C45.2405 89.3948 44.9529 89.6823 44.9529 90.0371C44.9529 90.3918 45.2405 90.6793 45.5954 90.6793Z" fill="black"/>
<path opacity="0.2" d="M75.7466 105.952C75.8799 105.952 75.988 105.844 75.988 105.711C75.988 105.577 75.8799 105.469 75.7466 105.469C75.6133 105.469 75.5052 105.577 75.5052 105.711C75.5052 105.844 75.6133 105.952 75.7466 105.952Z" fill="black"/>
<path d="M66.6395 110.564C65.6795 110.57 64.7303 110.362 63.8611 109.955C60.6207 108.431 59.0231 108.623 56.6059 108.913C54.3405 109.225 52.0495 109.308 49.7674 109.161C49.1311 109.132 48.5093 108.961 47.9475 108.66C47.3857 108.36 46.8981 107.938 46.5201 107.426C42.936 102.773 45.3341 90.5249 45.4383 90.0059C45.4491 89.9665 45.4743 89.9326 45.5091 89.9111C45.5438 89.8897 45.5854 89.8821 45.6254 89.89C45.6655 89.898 45.7011 89.9208 45.725 89.9538C45.7489 89.9869 45.7594 90.0278 45.7543 90.0684C45.73 90.1933 43.2798 102.692 46.7754 107.228C47.1255 107.704 47.5777 108.097 48.099 108.376C48.6202 108.656 49.1974 108.816 49.7883 108.844C52.0484 108.989 54.3173 108.905 56.5607 108.595C59.0335 108.297 60.6676 108.099 63.9913 109.663C69.2929 112.158 75.5062 105.813 75.567 105.749C75.5975 105.722 75.6368 105.708 75.6772 105.709C75.7176 105.711 75.756 105.727 75.785 105.755C75.814 105.783 75.8314 105.821 75.8338 105.861C75.8362 105.902 75.8234 105.941 75.7979 105.973C75.751 106.028 71.3073 110.564 66.6395 110.564Z" fill="#DFE6F5"/>
<path d="M72.5482 25.198C69.893 20.4157 64.5029 17.1366 58.3087 17.1366C49.4872 17.1366 42.3084 23.7711 42.3084 31.9263H41.1744C41.1744 23.1514 48.8585 16.0117 58.3 16.0117C63.7666 16.0117 68.6427 18.4038 71.7806 22.122C72.0376 22.9553 72.2339 23.8076 72.4284 24.6582C72.4718 24.8404 72.5117 25.0192 72.5482 25.198Z" fill="#535461"/>
<path d="M43.5676 27.2275H45.0489V37.4693H43.5676C42.4365 37.4693 41.3517 37.0201 40.5519 36.2206C39.7521 35.421 39.3027 34.3366 39.3027 33.2059V31.5013C39.3014 30.9405 39.4107 30.385 39.6244 29.8666C39.8381 29.3481 40.152 28.8769 40.5482 28.4799C40.9444 28.0829 41.415 27.768 41.9331 27.5531C42.4513 27.3382 43.0067 27.2275 43.5676 27.2275Z" fill="#DFE6F5"/>
<path d="M45.26 27.2357H44.8397C44.2614 27.2357 43.7926 27.7044 43.7926 28.2825V36.422C43.7926 37.0001 44.2614 37.4688 44.8397 37.4688H45.26C45.8383 37.4688 46.3071 37.0001 46.3071 36.422V28.2825C46.3071 27.7044 45.8383 27.2357 45.26 27.2357Z" fill="#535461"/>
<path d="M139.24 100.813C139.24 100.813 136.482 99.8795 135.155 102.308C134.805 102.966 134.627 103.703 134.638 104.448C134.648 105.194 134.846 105.925 135.214 106.573C136.083 108.148 137.882 110.192 141.292 110.01C144.178 109.856 145.139 107.655 145.399 105.606C145.499 104.838 145.4 104.057 145.111 103.339C144.823 102.62 144.355 101.987 143.752 101.501C143.148 101.015 142.431 100.692 141.667 100.563C140.903 100.434 140.119 100.503 139.389 100.763L139.24 100.813Z" fill="#00B495"/>
<path opacity="0.1" d="M135.797 106.792C135.429 106.143 135.231 105.413 135.22 104.667C135.21 103.921 135.388 103.185 135.738 102.527C137.065 100.097 139.822 101.032 139.822 101.032L139.963 100.982C141.015 100.602 142.17 100.628 143.203 101.055C142.633 100.716 141.995 100.507 141.334 100.444C140.674 100.381 140.007 100.465 139.383 100.69L139.242 100.741C139.242 100.741 136.485 99.8068 135.158 102.235C134.808 102.894 134.63 103.63 134.64 104.375C134.651 105.121 134.849 105.852 135.217 106.5C135.792 107.542 136.766 108.776 138.343 109.451C137.267 108.814 136.386 107.895 135.797 106.792Z" fill="white"/>
<path opacity="0.2" d="M137.816 101.981C137.816 101.981 138.839 102.785 141.32 101.981H137.816Z" fill="black"/>
<path d="M137.597 96.1418C137.597 96.1418 139.349 100.886 139.203 102.127L140.593 101.981C140.593 101.981 138.247 97.8204 138.839 96.1418H137.597Z" fill="#00B495"/>
<path opacity="0.2" d="M137.597 96.1418C137.597 96.1418 139.349 100.886 139.203 102.127L140.593 101.981C140.593 101.981 138.247 97.8204 138.839 96.1418H137.597Z" fill="black"/>
<path d="M144.749 96.5386C144.749 96.5386 141.992 95.129 140.755 96.2938C139.519 97.4586 139.331 100.436 139.331 100.436C139.331 100.436 143.831 101.055 144.749 96.5386Z" fill="#00B495"/>
<path opacity="0.1" d="M144.749 96.5386C144.749 96.5386 141.992 95.129 140.755 96.2938C139.519 97.4586 139.331 100.436 139.331 100.436C139.331 100.436 143.831 101.055 144.749 96.5386Z" fill="white"/>
<path d="M139.333 100.435C139.333 100.435 140.057 96.9792 144.749 96.5383" stroke="#00B495" stroke-miterlimit="10"/>
</g>
<defs>
<linearGradient id="paint0_linear_438_1594" x1="103.087" y1="122.682" x2="103.087" y2="11.5993" gradientUnits="userSpaceOnUse">
<stop stop-color="#808080" stop-opacity="0.25"/>
<stop offset="0.54" stop-color="#808080" stop-opacity="0.12"/>
<stop offset="1" stop-color="#808080" stop-opacity="0.1"/>
</linearGradient>
<clipPath id="clip0_438_1594">
<rect width="198" height="134.705" fill="white" transform="translate(0 0.147583)"/>
</clipPath>
</defs>
</svg>
