<svg width="198" height="161" viewBox="0 0 198 161" fill="none" xmlns="http://www.w3.org/2000/svg">
<g clip-path="url(#clip0_438_1376)">
<path opacity="0.1" d="M193.185 93.3018C193.185 93.4238 193.185 93.5458 193.185 93.6659C193.164 95.7702 193.038 97.8692 192.808 99.9629C192.81 99.9756 192.81 99.9883 192.808 100.001C192.79 100.175 192.77 100.347 192.75 100.521C192.716 100.815 192.679 101.107 192.639 101.401C192.17 104.98 191.392 108.513 190.317 111.961C188.875 116.62 186.837 121.076 184.253 125.219C183.458 126.486 182.611 127.712 181.713 128.898C181.233 129.526 180.744 130.14 180.238 130.744C179.884 131.167 179.522 131.583 179.154 131.992L178.925 132.244C176.989 134.355 174.902 136.325 172.68 138.137C169.054 141.122 165.15 143.718 161.183 146.127C160.958 146.265 160.73 146.401 160.502 146.527C160.487 146.538 160.47 146.548 160.452 146.557C155.061 149.793 149.471 152.714 143.712 155.052C137.407 157.619 130.896 159.485 124.216 160.301C114.905 161.437 105.481 160.513 96.2268 158.925C88.5301 157.612 80.9265 155.808 73.4633 153.524L72.2345 153.142C71.5979 152.941 70.962 152.735 70.3268 152.526C66.4899 151.266 62.696 149.865 58.945 148.325C49.5244 144.472 40.5247 139.674 32.0861 134.005C31.0118 133.287 29.9528 132.554 28.9093 131.804C27.4509 130.762 26.0098 129.688 24.5863 128.584L23.708 127.908C19.9825 125.011 16.4921 121.828 13.269 118.388C8.93387 113.703 5.22927 108.418 2.79378 102.385C2.40968 101.437 2.05782 100.471 1.7382 99.4869L1.70798 99.3888C1.54682 98.8887 1.39775 98.3887 1.26077 97.8686C1.05932 97.1245 0.882719 96.371 0.730962 95.6082C0.698731 95.4622 0.670528 95.3161 0.64434 95.1681C0.16286 92.601 -0.0497924 89.9913 0.00978267 87.3808C0.0601656 85.0935 0.329981 82.8161 0.81557 80.5796C1.31258 78.2612 2.07849 76.0078 3.09796 73.8645C4.01926 71.9372 5.19312 70.1393 6.58903 68.5176C7.56993 67.3837 8.67306 66.3601 9.87866 65.465C12.0644 63.8488 14.4878 62.7226 16.9998 61.8324C18.1803 61.4123 19.3769 61.0443 20.5795 60.7022C21.4316 60.4582 22.2878 60.2261 23.1399 59.9981L25.6539 59.324C27.2655 58.8879 28.8771 58.4398 30.4645 57.9557C34.7916 56.6435 39.032 55.0552 42.9542 52.6868C43.5747 52.3128 44.2072 51.9027 44.8397 51.4626C45.6455 50.9065 46.4392 50.3024 47.2249 49.6503C48.0186 48.9902 48.7962 48.2841 49.5375 47.536C49.6523 47.4199 49.7651 47.3039 49.8779 47.1859C50.4823 46.5538 51.0685 45.8917 51.6124 45.2036C51.8783 44.8675 52.1361 44.5254 52.3819 44.1774C52.7224 43.6953 53.0447 43.2052 53.3428 42.7011C54.8375 40.1807 55.7602 37.4002 55.6514 34.4697C55.6355 33.9869 55.5918 33.5053 55.5205 33.0275C55.2586 31.2612 55.0068 29.5369 54.8214 27.8506C54.0438 20.8754 54.3722 14.5503 59.6441 8.6073C66.1991 1.22003 76.487 -0.286226 85.8523 0.303875C112.929 2.00417 137.578 17.3548 159.239 35.6299C161.113 37.2089 162.963 38.8091 164.791 40.4307C165.252 40.8388 165.713 41.2496 166.175 41.663C169.6 44.7255 172.972 47.902 176.113 51.3046C176.366 51.5806 176.62 51.8567 176.87 52.1348C177.023 52.3068 177.178 52.4768 177.329 52.6508C178.308 53.751 179.258 54.8779 180.18 56.0314C182.648 59.0938 184.827 62.3748 186.69 65.8331C189.544 71.2604 191.475 77.1181 192.408 83.1701C192.758 85.3678 192.989 87.5827 193.098 89.8052C193.133 90.4593 193.155 91.1154 193.167 91.7695C193.167 91.9796 193.167 92.1876 193.167 92.3976C193.187 92.7017 193.187 92.9977 193.185 93.3018Z" fill="black"/>
<path d="M79.3673 89.9466L76.1442 146.914L79.3673 146.956L81.9861 89.1464L79.3673 89.9466Z" fill="#3F3D56"/>
<path d="M67.4805 118.81H27.594V127.411H67.4805V118.81Z" fill="#00B495"/>
<path d="M70.1005 126.409V131.81H28.8986C27.4401 130.767 25.9991 129.693 24.5755 128.589V126.409H70.1005Z" fill="#3F3D56"/>
<path d="M78.3263 114.117C78.2135 114.635 78.0664 115.147 77.9113 115.657C77.454 117.132 76.9041 118.586 76.7973 120.118C76.6543 122.143 77.2002 124.497 75.7901 125.967C75.4275 126.347 74.9541 126.631 74.6297 127.037C74.5798 127.101 74.534 127.168 74.4927 127.237C74.2027 127.714 74.1684 128.294 74.1644 128.838C74.1678 129.998 74.2438 131.157 74.392 132.308C74.8695 136.269 75.8122 140.238 74.5733 143.976C74.3489 144.625 74.0872 145.26 73.7897 145.879C73.1854 147.199 72.5266 148.501 72.3292 149.931C72.1842 150.991 72.2285 152.084 72.2204 153.162C71.5839 152.96 70.948 152.755 70.3127 152.546C66.4758 151.286 62.6819 149.885 58.931 148.345C58.9411 148.291 58.9511 148.235 58.9592 148.181C59.2473 146.401 58.8524 144.58 58.373 142.844C57.3657 139.165 55.9395 135.523 55.0954 131.818C54.7555 130.371 54.5326 128.9 54.4286 127.417C54.4045 127.085 54.3904 126.751 54.3884 126.417C54.3783 125.981 54.3884 125.545 54.4065 125.105C54.4488 124.227 54.4871 123.185 53.78 122.651C53.3912 122.361 52.8775 122.311 52.4243 122.135C51.55 121.797 50.9517 121.012 50.2587 120.384C49.9281 120.066 49.5245 119.832 49.0827 119.703C48.6408 119.574 48.174 119.554 47.7225 119.644C43.194 120.674 39.8661 124.489 35.6518 126.417C35.4886 126.493 35.3255 126.565 35.1603 126.633C34.6151 126.832 34.0963 127.095 33.6152 127.417C33.2771 127.65 33.0319 127.994 32.9222 128.388C32.8154 128.812 32.9081 129.256 32.9605 129.692C33.0452 130.401 33.0146 131.119 32.8698 131.818C32.8152 132.089 32.7432 132.356 32.6543 132.618C32.4931 133.092 32.2776 133.556 32.0721 134.019C30.9977 133.301 29.9388 132.568 28.8953 131.818C27.4368 130.775 25.9958 129.702 24.5722 128.598L23.708 127.908C19.9826 125.011 16.4922 121.828 13.269 118.388C13.6981 117.188 14.3186 116.072 14.6167 114.841C14.7859 114.135 14.8484 113.401 15.0821 112.715C15.3515 112.004 15.7263 111.336 16.1941 110.735C17.907 108.362 19.9987 106.284 22.3865 104.582C24.8824 102.805 27.7652 101.381 30.0113 99.3647C30.9228 98.5722 31.7086 97.6477 32.342 96.6222C32.3803 96.5602 32.4166 96.4942 32.4488 96.4222C32.6241 96.0601 32.7456 95.6747 32.8094 95.278C32.9705 94.3818 32.9464 93.3977 33.0269 92.5375C35.7632 93.0078 38.5527 93.0913 41.3125 92.7856C44.5255 92.4275 47.6681 91.5413 50.8812 91.1973C51.1229 91.1693 51.3667 91.1473 51.6104 91.1273C52.6398 91.0453 53.6712 91.0273 54.7046 91.0393C55.5688 91.0393 56.433 91.0773 57.2973 91.1053L66.8116 91.4253C67.8651 91.4613 68.9409 91.5013 69.9219 91.8834C71.0863 92.3375 72.019 93.2416 72.7663 94.2358C72.861 94.3638 72.9557 94.4918 73.0443 94.6239C73.6593 95.5147 74.1525 96.4826 74.5109 97.5024C74.5492 97.6064 74.5854 97.7024 74.6197 97.8164C74.7103 98.0945 74.7889 98.3745 74.8594 98.6586C74.9138 98.8806 74.9621 99.1026 75.0064 99.3267C75.228 100.435 75.359 101.567 75.7095 102.637C75.7337 102.715 75.7598 102.793 75.788 102.869C76.2091 104.041 76.9081 105.092 77.4359 106.218C77.8164 107.033 78.1069 107.887 78.3021 108.764C78.6967 110.526 78.7049 112.352 78.3263 114.117Z" fill="#35323E"/>
<path d="M49.4066 42.5304C48.5565 41.8583 47.3236 42.3504 46.3285 42.7844C45.4941 43.1504 44.6352 43.4585 43.758 43.7066C43.5785 43.7752 43.3838 43.7952 43.194 43.7646C42.7911 43.6686 42.6219 43.1945 42.3217 42.9065C41.8 42.4084 40.9458 42.5264 40.273 42.7964C39.6002 43.0665 38.9354 43.4566 38.2142 43.3965C37.4447 43.3365 36.7759 42.7724 35.9983 42.7544C34.6284 42.7224 33.4782 44.3987 32.1829 43.9546C31.3932 43.6846 30.7728 42.6644 29.9952 42.9545C29.3908 43.1825 29.3364 44.0127 28.9718 44.5547C28.5427 45.1869 27.7067 45.3649 26.9916 45.6449C24.7374 46.5291 23.2447 49.0235 23.5388 51.4119C23.702 52.7301 24.3446 53.9384 24.7696 55.1966C26.0307 58.8552 25.5976 62.9819 27.187 66.5105C27.3884 66.3225 27.5013 66.2525 27.6967 66.0664C27.1941 67.1014 27.0972 68.285 27.4247 69.387C27.5919 69.9411 27.8639 70.4572 28.0693 70.9993C28.2828 71.6073 28.4551 72.2288 28.585 72.8596L30.3376 80.5369C31.0225 83.5374 31.7095 86.5379 31.8283 89.6105C31.9023 91.6083 31.7482 93.608 31.369 95.5715C34.5438 95.0494 37.4487 93.6511 40.6658 93.6692C41.8463 93.6692 43.0167 93.8692 44.1871 94.0292C47.5994 94.5034 51.0415 94.7353 54.4871 94.7233C55.023 94.7536 55.5596 94.6788 56.0664 94.5033C56.5096 94.3153 56.8722 93.9812 57.2912 93.7392C58.1111 93.2591 59.1042 93.1391 60.049 93.1391C64.358 93.061 68.5098 94.6273 72.7905 95.1794C74.4807 91.6568 74.5814 87.4361 73.2841 83.7534C72.8993 82.6593 72.3816 81.5931 72.2285 80.4429C72.167 79.7358 72.1509 79.0256 72.1801 78.3165C72.1734 76.5012 71.8441 74.7013 71.2072 72.9996C70.9574 72.3335 70.6572 71.6554 70.6834 70.9453C70.7096 70.2351 71.0621 69.573 71.4086 68.9449C72.1117 67.6647 72.8187 66.3725 73.8119 65.2923C74.8292 64.1761 76.1023 63.326 77.3614 62.4918L80.4697 60.4195C80.0446 57.753 79.4967 54.9445 78.3585 52.4921C77.2203 50.0397 75.5181 47.7853 73.2156 46.3511C72.4393 45.8873 71.6269 45.486 70.7861 45.1509C69.6097 44.6588 68.3849 44.2247 67.1097 44.1507C65.6593 44.0687 64.2311 44.4547 62.7988 44.6948C58.2904 45.4489 52.9843 45.3569 49.4066 42.5304Z" fill="#00B495"/>
<path d="M83.3949 88.8023L81.9163 90.6566L79.1283 94.1512L75.9051 98.1899L75.0046 99.3181H73.2581L30.0095 99.3681L2.92497 99.3981H1.71629C1.55513 98.898 1.40606 98.3979 1.26908 97.8778C1.06763 97.1337 0.891028 96.3802 0.739271 95.6174C0.70704 95.4714 0.678837 95.3254 0.652649 95.1774L10.4792 88.7983L14.1738 88.7783L25.4749 88.7143L31.7862 88.6783H32.9385H33.6617L37.8679 88.6563L69.9262 88.4742L71.5659 88.4642H72.2771L74.1606 88.4542L81.1689 88.4142L82.5146 87.9061L82.6133 88.0101L83.3949 88.8023Z" fill="#3F3D56"/>
<path d="M82.7903 87.8023L82.6231 88.0023L81.5232 89.2885L79.2589 91.943L74.5108 97.5019L32.4487 96.4357L0.730962 95.6356C0.698731 95.4896 0.670528 95.3435 0.64434 95.1955C0.16286 92.6284 -0.0497924 90.0188 0.00978267 87.4082L3.52704 85.6199L4.33283 85.2078L10.6039 82.0073L16.1074 79.2068L30.4625 81.0591L33.6413 81.4692L35.0796 81.6532L37.1848 81.9253L37.362 81.9493L70.3731 86.2L74.0213 86.6701L76.1627 86.9461L82.7621 87.7983L82.7903 87.8023Z" fill="#504F60"/>
<path d="M75.9411 97.4044L75.9068 98.1905L75.7054 102.629L74.6216 127.033L74.392 132.308L73.7876 145.879L73.4472 153.544L72.2184 153.162C71.5818 152.961 70.9459 152.755 70.3107 152.546L73.2578 99.3367L73.3203 98.2205L74.6176 97.8204L75.9411 97.4044Z" fill="#3F3D56"/>
<path d="M3.01663 97.3457L2.92598 99.4001L2.79302 102.401C2.40893 101.452 2.05707 100.486 1.73744 99.5021L1.70722 99.4041C1.54606 98.904 1.39699 98.4039 1.26001 97.8838L3.01663 97.3457Z" fill="#3F3D56"/>
<path d="M55.6965 67.1012C60.8143 67.1012 64.9631 61.5485 64.9631 54.699C64.9631 47.8495 60.8143 42.2969 55.6965 42.2969C50.5788 42.2969 46.43 47.8495 46.43 54.699C46.43 61.5485 50.5788 67.1012 55.6965 67.1012Z" fill="#A1616A"/>
<path opacity="0.1" d="M55.6965 67.1012C60.8143 67.1012 64.9631 61.5485 64.9631 54.699C64.9631 47.8495 60.8143 42.2969 55.6965 42.2969C50.5788 42.2969 46.43 47.8495 46.43 54.699C46.43 61.5485 50.5788 67.1012 55.6965 67.1012Z" fill="black"/>
<path d="M57.0055 59.9994C64.1259 59.9994 69.8981 54.2677 69.8981 47.1972C69.8981 40.1268 64.1259 34.395 57.0055 34.395C49.8851 34.395 44.1129 40.1268 44.1129 47.1972C44.1129 54.2677 49.8851 59.9994 57.0055 59.9994Z" fill="#A1616A"/>
<path d="M57.2618 27.4659C56.4746 27.5283 55.693 27.6466 54.923 27.82C52.8843 28.3121 51.1217 29.4043 49.4053 30.4764C48.6358 30.9585 47.8441 31.4606 47.3667 32.1687C46.5085 33.439 46.8409 35.0552 46.3595 36.4655C46.1097 37.1896 45.6504 37.8397 45.2616 38.5138C44.1919 40.3621 43.6319 42.3925 43.0819 44.4028C42.9691 44.8189 42.9369 45.383 43.3942 45.543C43.6575 45.5973 43.9314 45.5665 44.1758 45.455C45.6202 44.9809 47.4553 44.8449 48.527 45.8071C49.5987 46.7692 49.5081 48.4755 50.7832 49.2077C52.2437 50.0538 54.5241 49.0316 55.8496 50.0298C56.4177 50.4579 56.6232 51.144 57.0885 51.6601C58.1723 52.8603 60.2573 52.8023 61.9917 52.5602C62.9869 52.4202 64.2076 52.3262 64.812 53.0203C65.1021 53.3484 65.1847 53.7984 65.5211 54.0945C66.1254 54.6306 67.2314 54.3585 67.8216 53.8084C68.4118 53.2584 68.6939 52.5142 69.1854 51.8961C70.1423 50.6959 71.8243 50.0418 72.8114 48.8556C73.6374 47.8554 73.8872 46.6032 74.1128 45.395L74.9528 40.9162C75.2933 39.0999 75.6035 37.1156 74.5741 35.5153C74.2075 34.9392 73.6817 34.4431 73.3654 33.847C73.1539 33.447 73.035 33.0249 72.7893 32.6468C72.4978 32.253 72.1496 31.9038 71.7558 31.6106L69.7676 29.9764C69.0878 29.3855 68.3608 28.8503 67.594 28.3761C64.7556 26.7338 60.5051 27.1659 57.2618 27.4659Z" fill="#464353"/>
<path d="M14.7961 60.4435C14.3186 60.9476 13.8775 61.4917 13.3658 61.9638C12.9157 62.3613 12.445 62.7352 11.9557 63.084C11.166 63.6708 10.3938 64.2782 9.63902 64.9063C8.8516 65.5245 8.13908 66.2314 7.51577 67.0127C6.44004 68.4469 5.93039 70.2312 4.92315 71.7135C4.03276 73.0277 2.77774 74.0659 1.87325 75.3701C1.47644 75.9184 1.18171 76.5329 1.003 77.1844C0.869601 77.8149 0.809446 78.4586 0.823711 79.1027C0.805581 80.1589 0.789466 81.2271 1.00703 82.2613C1.22459 83.2954 1.70202 84.3116 2.51989 84.9897C3.27935 85.6198 4.26039 85.9099 5.22129 86.1499C5.71685 86.2719 6.2527 86.386 6.72408 86.1919C7.06902 86.0189 7.36842 85.7682 7.59836 85.4598L10.05 82.6593C11.6897 80.779 13.394 78.8587 15.6441 77.7585C16.3492 77.4164 17.0925 77.1584 17.7996 76.8263C20.7972 75.3921 22.9164 72.4556 23.7383 69.255C23.9397 68.4729 24.0686 67.6748 24.1996 66.8766L24.5541 64.6883C24.5814 64.5786 24.5814 64.4639 24.5541 64.3542C24.4986 64.2308 24.4093 64.1255 24.2963 64.0502C22.5886 62.6808 20.9898 61.1827 19.5139 59.5694C19.1634 59.1853 18.8351 58.6592 18.4302 58.3372C17.9225 57.9371 17.9608 57.9671 17.3504 58.3372C16.4114 58.9275 15.5529 59.6355 14.7961 60.4435Z" fill="#A1616A"/>
<path d="M31.5666 75.0058C31.5462 74.9594 31.5166 74.9175 31.4795 74.8827C31.4424 74.8479 31.3986 74.8209 31.3507 74.8033C31.3029 74.7857 31.2519 74.7779 31.2009 74.7804C31.1499 74.7829 31.1 74.7956 31.0541 74.8177C31.0082 74.8398 30.9672 74.8709 30.9337 74.9092C30.9002 74.9474 30.8748 74.9919 30.8591 75.0402C30.8434 75.0884 30.8376 75.1392 30.8422 75.1897C30.8468 75.2402 30.8616 75.2892 30.8857 75.3339L30.6843 75.4319L36.6914 87.658L37.7772 87.1319L31.7701 74.8978L31.5666 75.0058Z" fill="#3F3D56"/>
<path opacity="0.04" d="M14.7961 60.4435C14.3186 60.9476 13.8775 61.4917 13.3658 61.9638C12.9157 62.3613 12.445 62.7352 11.9557 63.084C11.166 63.6708 10.3938 64.2782 9.63902 64.9063C8.8516 65.5245 8.13908 66.2314 7.51577 67.0127C6.44004 68.4469 5.93039 70.2312 4.92315 71.7135C4.03276 73.0277 2.77774 74.0659 1.87325 75.3701C1.47644 75.9184 1.18171 76.5329 1.003 77.1844C0.869601 77.8149 0.809446 78.4586 0.823711 79.1027C0.805581 80.1589 0.789466 81.2271 1.00703 82.2613C1.22459 83.2954 1.70202 84.3116 2.51989 84.9897C3.27935 85.6198 4.26039 85.9099 5.22129 86.1499C5.71685 86.2719 6.2527 86.386 6.72408 86.1919C7.06902 86.0189 7.36842 85.7682 7.59836 85.4598L10.05 82.6593C11.6897 80.779 13.394 78.8587 15.6441 77.7585C16.3492 77.4164 17.0925 77.1584 17.7996 76.8263C20.7972 75.3921 22.9164 72.4556 23.7383 69.255C23.9397 68.4729 24.0686 67.6748 24.1996 66.8766L24.5541 64.6883C24.5814 64.5786 24.5814 64.4639 24.5541 64.3542C24.4986 64.2308 24.4093 64.1255 24.2963 64.0502C22.5886 62.6808 20.9898 61.1827 19.5139 59.5694C19.1634 59.1853 18.8351 58.6592 18.4302 58.3372C17.9225 57.9371 17.9608 57.9671 17.3504 58.3372C16.4114 58.9275 15.5529 59.6355 14.7961 60.4435Z" fill="black"/>
<path d="M84.2433 82.9758C84.2231 84.252 84.1728 85.5662 83.6389 86.7304C83.4093 87.2345 83.0527 87.7306 82.5189 87.8966C82.1958 87.9707 81.8615 87.9829 81.5338 87.9326C77.5816 87.5877 73.5992 87.9014 69.7512 88.8608C70.7786 86.8204 70.1884 84.374 70.4724 82.1096C70.551 81.4915 70.694 80.8834 70.7484 80.2633C70.9498 78.0629 70.001 75.9266 69.5659 73.7542C69.1882 71.8737 69.1882 69.9377 69.5659 68.0572C69.64 67.5732 69.8076 67.1079 70.0594 66.687C70.3545 66.2774 70.7423 65.9424 71.1916 65.7088C72.8233 64.7867 74.7471 64.6807 76.5803 64.8027C77.8151 64.8847 80.2909 64.7687 81.3203 65.5228C82.4464 66.3489 82.8029 69.1234 83.1071 70.4056C83.5626 72.3722 83.8723 74.3692 84.0338 76.3806C84.2312 78.573 84.2735 80.7754 84.2433 82.9758Z" fill="#A1616A"/>
<path d="M12.0831 87.4044L19.3352 92.2052L51.9696 91.005L30.4148 87.4044H12.0831Z" fill="white"/>
<path d="M21.6467 49.2601C20.4562 50.3023 19.4469 51.5305 18.3188 52.6407C16.7717 54.1649 15.0131 55.4611 13.2625 56.7514C13.8902 56.9256 14.4615 57.2587 14.9206 57.718C15.3796 58.1774 15.7107 58.7472 15.8813 59.3718C15.9579 59.6659 15.9961 59.9719 16.0828 60.26C16.2842 60.9421 16.7274 61.5302 17.2028 62.0603C19.2455 64.3467 22.104 66.039 23.3087 68.8614C23.348 68.9988 23.4332 69.1187 23.5504 69.2015C23.6484 69.2446 23.7573 69.2572 23.8626 69.2375C24.9525 69.1235 25.7865 68.2513 26.4814 67.4032C27.9319 65.6029 29.1909 63.6145 29.906 61.4182C30.6212 59.2218 30.736 56.7934 29.9564 54.617C29.5676 53.5328 28.9673 52.5366 28.371 51.5505C27.8486 50.6877 27.3275 49.8262 26.8078 48.966C26.5358 48.512 26.1894 47.5898 25.6555 47.3658C24.5032 46.8737 22.386 48.526 21.6467 49.2601Z" fill="#00B495"/>
<path d="M80.9806 62.1879L82.6949 66.1885C80.8287 65.541 78.834 65.3439 76.8759 65.6135C74.9178 65.8831 73.0524 66.6116 71.434 67.7388C70.457 68.4329 69.5605 69.3051 69.1194 70.4133C68.9016 70.4544 68.6766 70.4335 68.4703 70.3532C68.2639 70.2729 68.0846 70.1363 67.953 69.9592C67.6951 69.6 67.5456 69.1754 67.5219 68.735C67.3628 67.1987 67.949 65.6925 68.5291 64.2562C68.7991 63.5841 69.0771 62.898 69.5565 62.3519C70.036 61.8058 70.6725 61.4457 71.3091 61.1057C73.3399 59.9904 75.4669 59.0572 77.6647 58.3172C78.5914 58.0192 79.5624 58.0252 80.0821 58.8853C80.6844 59.9115 80.5092 61.0957 80.9806 62.1879Z" fill="#00B495"/>
<path d="M12.1256 74.1917C12.5547 74.5318 12.9314 74.9339 13.3725 75.2579C13.8391 75.5796 14.3356 75.8563 14.8552 76.0841L16.8414 77.0322C17.457 77.3499 18.101 77.6097 18.7653 77.8084C19.6154 78.0344 20.5078 78.0564 21.3619 78.2664C22.4396 78.5305 23.4247 79.0806 24.4863 79.3986C25.548 79.7167 26.7909 79.7687 27.6773 79.1066C28.2312 78.6925 28.6503 78.0084 29.3372 77.9064C29.7804 77.8484 30.2074 78.0604 30.6023 78.2664L35.7714 80.9649C36.4684 81.329 37.2057 81.733 37.5703 82.4272C37.9349 83.1213 37.6892 84.1755 36.9217 84.3555C36.6542 84.386 36.3851 84.4014 36.1159 84.4015C35.85 84.4335 35.5599 84.5895 35.5236 84.8556C35.5223 85.0208 35.5661 85.1833 35.6505 85.3257C35.8822 85.8537 35.9507 86.4858 35.6807 86.9979C35.4108 87.51 34.748 87.8281 34.2182 87.598C34.3089 88.3722 33.4608 88.9143 32.7054 89.1203C30.7997 89.6384 28.7792 89.3203 26.8312 88.9923C26.0657 88.8643 25.2881 88.7322 24.5911 88.3922C24.2567 88.2301 23.9465 88.0221 23.608 87.8721C22.6794 87.462 21.6238 87.516 20.6085 87.534C15.9128 87.616 11.2573 86.7519 6.64019 85.8917C5.78404 85.7317 4.90371 85.5617 4.17246 85.0916C2.76234 84.1795 2.23858 82.3071 2.47024 80.6509C2.7019 78.9946 3.54798 77.4943 4.37995 76.0381L5.45769 74.1517C5.59858 73.8628 5.79577 73.6044 6.03786 73.3916C7.62325 72.1894 10.7678 73.1076 12.1256 74.1917Z" fill="#A1616A"/>
<path opacity="0.04" d="M12.1256 74.1917C12.5547 74.5318 12.9314 74.9339 13.3725 75.2579C13.8391 75.5796 14.3356 75.8563 14.8552 76.0841L16.8414 77.0322C17.457 77.3499 18.101 77.6097 18.7653 77.8084C19.6154 78.0344 20.5078 78.0564 21.3619 78.2664C22.4396 78.5305 23.4247 79.0806 24.4863 79.3986C25.548 79.7167 26.7909 79.7687 27.6773 79.1066C28.2312 78.6925 28.6503 78.0084 29.3372 77.9064C29.7804 77.8484 30.2074 78.0604 30.6023 78.2664L35.7714 80.9649C36.4684 81.329 37.2057 81.733 37.5703 82.4272C37.9349 83.1213 37.6892 84.1755 36.9217 84.3555C36.6542 84.386 36.3851 84.4014 36.1159 84.4015C35.85 84.4335 35.5599 84.5895 35.5236 84.8556C35.5223 85.0208 35.5661 85.1833 35.6505 85.3257C35.8822 85.8537 35.9507 86.4858 35.6807 86.9979C35.4108 87.51 34.748 87.8281 34.2182 87.598C34.3089 88.3722 33.4608 88.9143 32.7054 89.1203C30.7997 89.6384 28.7792 89.3203 26.8312 88.9923C26.0657 88.8643 25.2881 88.7322 24.5911 88.3922C24.2567 88.2301 23.9465 88.0221 23.608 87.8721C22.6794 87.462 21.6238 87.516 20.6085 87.534C15.9128 87.616 11.2573 86.7519 6.64019 85.8917C5.78404 85.7317 4.90371 85.5617 4.17246 85.0916C2.76234 84.1795 2.23858 82.3071 2.47024 80.6509C2.7019 78.9946 3.54798 77.4943 4.37995 76.0381L5.45769 74.1517C5.59858 73.8628 5.79577 73.6044 6.03786 73.3916C7.62325 72.1894 10.7678 73.1076 12.1256 74.1917Z" fill="black"/>
<path d="M73.6186 77.6483C72.5691 78.1404 71.3644 78.1884 70.2686 78.5665C69.1727 78.9446 68.242 79.6247 67.2368 80.1788C64.618 81.631 61.5963 82.1791 58.629 82.7012C56.83 83.0213 55.0029 83.3413 53.1899 83.2653C50.7363 83.1613 48.3794 82.3492 46.0023 81.737C43.6252 81.1249 41.089 80.7129 38.7341 81.401C37.5044 81.7728 36.3802 82.4271 35.4527 83.3109C34.5252 84.1947 33.8205 85.2831 33.3957 86.4879C32.9022 87.9261 32.8337 89.4764 32.9284 90.9926C33.4239 91.3547 34.1169 90.8526 34.3869 90.3025C34.6568 89.7524 34.8039 89.0783 35.3276 88.7583C36.2361 89.0643 36.4577 90.2665 37.2071 90.8606C37.6745 91.2327 38.299 91.3307 38.8932 91.4147L41.9552 91.8468C42.6925 91.9508 43.5487 92.0208 44.0825 91.5047C44.3424 91.2547 44.4854 90.9046 44.7231 90.6366C45.2106 90.1005 46.0244 90.0085 46.7496 90.0805C49.0139 90.3045 51.1372 91.7628 53.3853 91.4167C54.1589 91.2987 54.878 90.9706 55.6153 90.7126C59.9847 89.1803 64.8396 90.1125 69.3862 89.2343C71.1207 88.9003 72.7907 88.3082 74.4405 87.6841C75.3369 87.346 76.2435 86.992 77.009 86.4199C77.7342 85.8661 78.3061 85.1387 78.6711 84.3057C79.0361 83.4727 79.1823 82.5614 79.0959 81.657C78.9273 80.2788 78.2348 79.0165 77.16 78.1284C76.8055 77.8284 76.3402 77.2543 75.9151 77.0662C75.1033 76.7122 74.3076 77.3263 73.6186 77.6483Z" fill="#A1616A"/>
<g opacity="0.1">
<path opacity="0.1" d="M67.7327 52.0942C67.3962 51.7981 67.3137 51.348 67.0236 51.02C66.4192 50.3259 65.1985 50.4199 64.2033 50.5599C62.4689 50.8019 60.3758 50.858 59.3001 49.6598C58.8348 49.1437 58.6293 48.4595 58.0612 48.0295C56.7357 47.0293 54.4553 48.0535 52.9948 47.2073C51.7197 46.4692 51.8023 44.7569 50.7386 43.8068C49.675 42.8566 47.8317 42.9806 46.3874 43.4547C46.143 43.5662 45.8691 43.597 45.6058 43.5427C45.1485 43.3827 45.1807 42.8186 45.2935 42.4025C45.8435 40.3922 46.4035 38.3618 47.4732 36.5135C47.862 35.8394 48.3213 35.1893 48.5711 34.4652C49.0082 33.1969 48.7846 31.7627 49.3587 30.5625C48.7423 30.9626 48.15 31.3986 47.7693 31.9627C46.9111 33.233 47.2435 34.8492 46.7621 36.2595C46.5123 36.9836 46.053 37.6337 45.6642 38.3078C44.5945 40.1561 44.0345 42.1865 43.4845 44.1968C43.3717 44.6129 43.3395 45.177 43.7968 45.337C44.0601 45.3913 44.334 45.3605 44.5784 45.249C46.0228 44.7749 47.8579 44.6389 48.9296 45.6011C50.0013 46.5632 49.9107 48.2695 51.1858 49.0016C52.6463 49.8478 54.9267 48.8256 56.2522 49.8238C56.8203 50.2519 57.0258 50.938 57.4911 51.4541C58.5749 52.6543 60.6599 52.5963 62.3943 52.3542C63.3895 52.2142 64.6102 52.1202 65.2146 52.8143C65.5047 53.1423 65.5872 53.5924 65.9237 53.8885C66.528 54.4246 67.634 54.1525 68.2242 53.6024C68.6026 53.2111 68.9265 52.7711 69.1871 52.2942C68.6633 52.4522 68.1053 52.4282 67.7327 52.0942Z" fill="black"/>
<path opacity="0.1" d="M71.4027 49.8936C71.273 50.0595 71.1526 50.2325 71.0421 50.4117C71.8157 49.8636 72.6356 49.3515 73.2137 48.6534C73.3638 48.4727 73.4985 48.28 73.6166 48.0773C72.8128 48.6494 71.9748 49.1755 71.4027 49.8936Z" fill="black"/>
</g>
<path d="M112.101 89.5049L112.706 146.915L115.526 146.515L114.922 89.5049H112.101Z" fill="#3F3D56"/>
<path d="M129.022 99.9065L129.626 157.316L132.446 156.916L131.842 99.9065H129.022Z" fill="#3F3D56"/>
<path d="M181.706 128.907L181.694 127.805V127.149L181.588 117.051L181.42 101.264L181.392 99.902H178.572L178.586 101.214L178.675 109.67L178.713 113.33L178.745 116.295L178.798 121.42L178.83 124.442V124.762L178.872 128.735L178.908 132.238L179.138 131.986C179.507 131.576 179.869 131.16 180.222 130.737L181.706 128.907Z" fill="#3F3D56"/>
<path d="M125.9 109.208L124.289 111.6L125.9 122.5L139.598 126.223H161.758L175.053 127.021L181.387 122.716L180.291 115.323L175.456 109.208H125.9Z" fill="#00B495"/>
<path d="M124.289 111.6L123.483 118.246C123.483 118.246 119.253 131.274 153.298 130.476C187.342 129.678 181.5 127.019 181.5 127.019L181.299 119.31C181.299 119.31 182.485 122.958 165.183 122.464C147.881 121.97 131.743 120.374 131.743 120.374C131.743 120.374 125.699 121.436 124.289 111.6Z" fill="#3F3D56"/>
<path d="M152.653 52.0379C150.711 52.9161 149.24 54.6184 148.255 56.5007C147.27 58.383 146.716 60.4494 146.17 62.5017C145.594 64.6661 145.016 66.8365 144.718 69.0549C144.186 72.9995 144.585 77.1462 146.41 80.6888C148.235 84.2315 151.607 87.0899 155.556 87.7721C157.081 88.0381 158.648 87.9841 160.189 87.8261C162.974 87.5332 165.718 86.9327 168.37 86.0358C171.14 85.1056 174.022 83.6734 175.255 81.0349C175.97 79.5046 176.031 77.7603 175.996 76.0761C175.901 71.4855 175.203 66.9268 173.919 62.5157C173.547 61.2355 173.114 59.9453 172.324 58.8671C171.534 57.7889 170.455 56.9988 169.353 56.2667C164.641 53.1161 158.448 49.4215 152.653 52.0379Z" fill="#FBBEBE"/>
<path opacity="0.05" d="M152.653 52.0379C150.711 52.9161 149.24 54.6184 148.255 56.5007C147.27 58.383 146.716 60.4494 146.17 62.5017C145.594 64.6661 145.016 66.8365 144.718 69.0549C144.186 72.9995 144.585 77.1462 146.41 80.6888C148.235 84.2315 151.607 87.0899 155.556 87.7721C157.081 88.0381 158.648 87.9841 160.189 87.8261C162.974 87.5332 165.718 86.9327 168.37 86.0358C171.14 85.1056 174.022 83.6734 175.255 81.0349C175.97 79.5046 176.031 77.7603 175.996 76.0761C175.901 71.4855 175.203 66.9268 173.919 62.5157C173.547 61.2355 173.114 59.9453 172.324 58.8671C171.534 57.7889 170.455 56.9988 169.353 56.2667C164.641 53.1161 158.448 49.4215 152.653 52.0379Z" fill="black"/>
<path d="M150.471 77.2161C151.033 77.9833 151.713 78.6582 152.486 79.2164C154.403 80.5326 156.865 80.7107 159.194 80.7827C161.063 80.8387 163.207 80.7327 164.379 79.2844C164.907 78.6323 165.145 77.8002 165.358 76.99C166.676 72.0154 167.612 66.9486 168.158 61.8334L173.492 61.8514C175.801 71.6671 175.612 81.8709 175.41 91.9506L175.118 106.649L171.681 106.287C163.521 105.429 155.348 104.571 147.143 104.423C142.336 104.335 137.527 104.493 132.736 104.895L140.219 82.799C141.19 79.9265 142.171 77.016 142.399 73.9975C142.727 69.6188 141.491 64.996 143.205 60.9453C143.342 60.6192 143.515 60.2812 143.827 60.1111C144.14 59.9411 144.534 59.9831 144.893 60.0291C145.57 60.1191 147.639 60.0291 148.13 60.4592C148.855 61.0833 148.376 61.1773 148.12 62.1835C147.663 63.9838 147.23 65.6501 147.236 67.5264C147.242 70.933 148.306 74.5296 150.471 77.2161Z" fill="#00B495"/>
<path d="M181.707 128.908C182.606 127.723 183.452 126.497 184.247 125.229C183.844 124.373 183.401 123.537 183.049 122.663C182.509 121.322 182.199 119.902 181.892 118.492C181.788 118.012 181.684 117.532 181.58 117.052C180.452 111.829 179.393 106.532 179.173 101.237C179.153 100.797 179.14 100.357 179.135 99.9167C179.135 99.8527 179.135 99.7907 179.135 99.7166C179.135 99.2346 179.135 98.7525 179.135 98.2724C179.159 97.0722 179.235 95.862 179.374 94.6578C179.401 94.4217 179.431 94.1857 179.463 93.9497C179.463 93.8976 179.475 93.8476 179.483 93.7956L193.182 93.2995L194.334 93.2575C195.126 93.2295 195.964 93.1855 196.616 92.7394C197.714 91.9913 197.843 90.4571 197.825 89.1388C197.758 85.807 197.378 82.4886 196.689 79.2271C196.169 76.7747 195.428 74.2683 193.764 72.384C192.398 70.8357 190.42 69.7095 189.709 67.7832C189.445 67.0671 189.378 66.2809 189.036 65.5968C188.693 64.9127 188.127 64.4106 187.593 63.8825C185.715 62.0339 184.156 59.8901 182.98 57.5374C182.164 55.9051 181.28 54.1048 180.214 52.9766C180.162 52.9186 180.11 52.8646 180.055 52.8126C179.149 51.9225 178.111 51.5324 176.882 52.1385C176.662 52.2486 176.451 52.3785 176.254 52.5266C175.816 52.8588 175.416 53.2371 175.059 53.6548C173.818 55.072 172.729 56.6139 171.81 58.2555C171.164 59.4113 170.609 60.6152 170.15 61.8562C169.788 62.8366 169.489 63.8388 169.254 64.8567C169.08 65.6108 168.943 66.3729 168.835 67.1371C168.432 70.0096 168.432 72.9381 168.488 75.8466C168.549 78.519 168.667 81.1975 168.911 83.8599C168.972 84.504 169.039 85.1475 169.113 85.7903C169.26 87.0611 169.443 88.328 169.661 89.5909C169.747 90.073 169.836 90.5551 169.935 91.0352C169.959 91.1632 169.985 91.2912 170.011 91.4172L170.023 91.4712C170.289 92.5871 170.496 93.7162 170.642 94.8538C170.658 94.9965 170.67 95.1385 170.678 95.2799C170.712 95.9337 170.706 96.589 170.662 97.2422C170.615 98.0144 170.543 98.7845 170.507 99.5566C170.507 99.6926 170.507 99.8267 170.493 99.9567C170.483 100.347 170.493 100.737 170.493 101.127C170.533 102.06 170.645 102.989 170.827 103.905C171.167 105.61 171.754 107.257 172.57 108.794C172.646 108.938 172.725 109.08 172.803 109.22C173.825 111.033 175.114 112.695 176.059 114.549C176.874 116.218 177.482 117.978 177.872 119.792C178.006 120.391 178.133 120.991 178.254 121.592C178.442 122.553 178.609 123.521 178.78 124.489C178.796 124.585 178.814 124.689 178.832 124.777C179.06 126.061 179.3 127.339 179.608 128.594C179.787 129.324 179.989 130.044 180.225 130.752L181.707 128.908Z" fill="#464353"/>
<path d="M179.015 113.141C179.015 113.321 179.003 113.501 178.995 113.683C178.959 114.56 178.878 115.436 178.751 116.305C178.585 117.492 178.292 118.658 177.879 119.784C177.605 120.524 177.257 121.235 176.84 121.906C176.469 122.502 176.036 123.056 175.546 123.56C174.338 124.809 172.597 125.207 170.913 125.733C170.138 125.955 169.389 126.259 168.679 126.639C168.552 126.709 168.427 126.785 168.306 126.865L166.199 128.251C165.543 128.681 164.872 129.127 164.421 129.765C164.347 129.874 164.279 129.987 164.219 130.103C163.934 130.691 163.725 131.312 163.599 131.952C162.503 136.485 161.405 141.021 160.653 145.622C160.603 145.926 160.555 146.232 160.502 146.538L160.484 146.634C160.475 146.611 160.464 146.589 160.452 146.568C155.061 149.805 149.471 152.725 143.712 155.064L142.461 144.662C142.33 143.816 142.287 142.96 142.332 142.105C142.451 140.759 143.003 139.483 143.152 138.141C143.293 136.827 143.043 135.5 142.433 134.326C142.195 133.87 141.897 133.422 141.842 132.912C141.788 132.402 142.084 131.936 142.6 131.884C143.003 131.44 143.035 130.834 142.916 130.233C142.853 129.92 142.758 129.614 142.634 129.319C142.292 128.483 141.859 127.573 142.153 126.719C142.23 126.564 142.265 126.391 142.253 126.219C142.255 126.208 142.255 126.197 142.253 126.187C142.185 125.963 141.917 125.865 141.778 125.675C141.516 125.321 141.778 124.839 141.939 124.43C142.096 123.992 142.187 123.533 142.209 123.068C142.231 122.81 142.247 122.55 142.275 122.294C142.315 121.948 142.377 121.604 142.463 121.266C142.952 119.35 144.129 117.677 145.773 116.561C146.556 116.037 147.429 115.655 148.228 115.161C149.047 114.612 149.829 114.011 150.569 113.361C152.343 111.894 154.188 110.511 156.103 109.212C158.162 107.815 160.295 106.529 162.493 105.359C162.963 105.107 163.433 104.862 163.903 104.623C164.415 104.356 164.93 104.104 165.448 103.865C167.108 103.079 168.991 103.373 170.827 103.897C171.596 104.115 172.356 104.375 173.089 104.611C173.805 104.842 174.494 105.149 175.144 105.527C176.769 106.475 178.113 107.876 178.671 109.644C178.672 109.655 178.672 109.667 178.671 109.678C179.025 110.786 179.048 111.974 179.015 113.141Z" fill="#F86D70"/>
<path opacity="0.1" d="M179.015 113.141C179.015 113.321 179.003 113.501 178.995 113.683C178.959 114.56 178.878 115.436 178.751 116.305C178.585 117.492 178.292 118.658 177.879 119.784C177.605 120.524 177.257 121.235 176.84 121.906C176.469 122.502 176.036 123.056 175.546 123.56C174.338 124.809 172.597 125.207 170.913 125.733C170.138 125.955 169.389 126.259 168.679 126.639C168.552 126.709 168.427 126.785 168.306 126.865L166.199 128.251C165.543 128.681 164.872 129.127 164.421 129.765C164.347 129.874 164.279 129.987 164.219 130.103C163.934 130.691 163.725 131.312 163.599 131.952C162.503 136.485 161.405 141.021 160.653 145.622C160.603 145.926 160.555 146.232 160.502 146.538L160.484 146.634C160.475 146.611 160.464 146.589 160.452 146.568C155.061 149.805 149.471 152.725 143.712 155.064L142.461 144.662C142.33 143.816 142.287 142.96 142.332 142.105C142.451 140.759 143.003 139.483 143.152 138.141C143.293 136.827 143.043 135.5 142.433 134.326C142.195 133.87 141.897 133.422 141.842 132.912C141.788 132.402 142.084 131.936 142.6 131.884C143.003 131.44 143.035 130.834 142.916 130.233C142.853 129.92 142.758 129.614 142.634 129.319C142.292 128.483 141.859 127.573 142.153 126.719C142.23 126.564 142.265 126.391 142.253 126.219C142.255 126.208 142.255 126.197 142.253 126.187C142.185 125.963 141.917 125.865 141.778 125.675C141.516 125.321 141.778 124.839 141.939 124.43C142.096 123.992 142.187 123.533 142.209 123.068C142.231 122.81 142.247 122.55 142.275 122.294C142.315 121.948 142.377 121.604 142.463 121.266C142.952 119.35 144.129 117.677 145.773 116.561C146.556 116.037 147.429 115.655 148.228 115.161C149.047 114.612 149.829 114.011 150.569 113.361C152.343 111.894 154.188 110.511 156.103 109.212C158.162 107.815 160.295 106.529 162.493 105.359C162.963 105.107 163.433 104.862 163.903 104.623C164.415 104.356 164.93 104.104 165.448 103.865C167.108 103.079 168.991 103.373 170.827 103.897C171.596 104.115 172.356 104.375 173.089 104.611C173.805 104.842 174.494 105.149 175.144 105.527C176.769 106.475 178.113 107.876 178.671 109.644C178.672 109.655 178.672 109.667 178.671 109.678C179.025 110.786 179.048 111.974 179.015 113.141Z" fill="black"/>
<path d="M159.888 80.007C159.868 79.9605 159.838 79.9186 159.801 79.8838C159.764 79.849 159.72 79.822 159.672 79.8045C159.625 79.7869 159.574 79.7791 159.523 79.7816C159.472 79.784 159.422 79.7967 159.376 79.8189C159.33 79.841 159.289 79.8721 159.255 79.9103C159.222 79.9485 159.196 79.9931 159.181 80.0413C159.165 80.0895 159.159 80.1404 159.164 80.1909C159.168 80.2413 159.183 80.2904 159.207 80.335L159.006 80.4331L165.013 92.6591L166.099 92.133L160.092 79.899L159.888 80.007Z" fill="#3F3D56"/>
<path d="M167.397 67.2008C174.518 67.2008 180.29 61.4691 180.29 54.3986C180.29 47.3282 174.518 41.5964 167.397 41.5964C160.277 41.5964 154.505 47.3282 154.505 54.3986C154.505 61.4691 160.277 67.2008 167.397 67.2008Z" fill="#FBBEBE"/>
<path d="M184.415 46.4734C184.355 45.4557 184.203 44.4455 183.96 43.4549C183.203 40.2203 181.819 37.0358 179.436 34.7134C179.289 34.1456 179.113 33.5854 178.91 33.0351C178.906 33.0214 178.901 33.0081 178.896 32.9951C178.185 31.0563 177.157 29.2471 175.854 27.6402C175.098 26.708 174.119 25.7878 172.915 25.7518C172.576 25.7398 172.218 25.7978 171.907 25.6438C171.679 25.4973 171.487 25.3018 171.345 25.0717C170.749 24.3231 169.958 23.7507 169.057 23.4161C168.157 23.0815 167.182 22.9976 166.237 23.1734L166.112 23.1994C166.041 23.2134 165.971 23.2294 165.91 23.2474C165.85 23.2654 165.741 23.2954 165.657 23.3214C165.749 23.4734 165.84 23.6275 165.929 23.7835C166.168 24.2062 166.389 24.6383 166.593 25.0797C166.763 25.4478 166.919 25.8218 167.063 26.2019C165 26.4359 163.32 27.8902 161.785 29.2744L158.171 32.531C158.164 32.5365 158.158 32.5425 158.153 32.549L158.048 32.649C158.022 32.675 157.996 32.701 157.971 32.729C157.962 32.7374 157.953 32.7468 157.945 32.757C157.915 32.789 157.887 32.823 157.859 32.857C157.808 32.92 157.763 32.9869 157.724 33.0571C157.704 33.0871 157.686 33.1185 157.671 33.1511C157.666 33.1607 157.661 33.1707 157.657 33.1811C157.644 33.2084 157.633 33.2364 157.623 33.2651C157.622 33.2691 157.622 33.2732 157.623 33.2771C157.617 33.2935 157.613 33.3102 157.609 33.3271C157.568 33.4679 157.58 33.6187 157.643 33.7512L160.026 33.7772H160.306C160.318 34.0933 160.328 34.4113 160.34 34.7274C159.962 35.0084 159.599 35.3089 159.253 35.6275C158.875 35.9749 158.52 36.3464 158.191 36.7397C156.042 39.3182 154.92 42.6487 154.807 46.0013C154.807 46.1053 154.807 46.2013 154.807 46.3094C154.807 46.6154 154.807 46.9215 154.807 47.2255C154.807 47.4255 154.825 47.6256 154.841 47.8256C154.842 48.0862 154.911 48.342 155.042 48.5677C155.06 48.593 155.078 48.617 155.099 48.6398C155.22 48.77 155.365 48.876 155.526 48.9518L155.699 49.0358C155.786 49.0778 155.868 49.1178 155.949 49.1638C156.708 49.5899 157.158 50.4121 157.849 50.9402C157.889 50.9702 157.929 51.0002 157.969 51.0262L158.06 51.0862L158.116 51.1222L158.193 51.1662C158.243 51.1963 158.295 51.2236 158.348 51.2482L158.445 51.2962H158.461C158.542 51.3322 158.622 51.3662 158.705 51.3962L158.82 51.4362L158.854 51.4482C158.886 51.4582 158.92 51.4702 158.954 51.4782C159.023 51.4983 159.09 51.5163 159.156 51.5323L159.357 51.5763C159.436 51.5903 159.517 51.6043 159.597 51.6143L159.716 51.6303L159.837 51.6423C160.029 51.6596 160.222 51.6696 160.417 51.6723C161.028 51.6685 161.638 51.6264 162.244 51.5463L167.385 50.9462C168.551 50.8121 169.742 50.6781 170.892 50.9142C171.867 51.1142 172.766 51.5743 173.712 51.9003C173.926 51.9743 174.14 52.0423 174.355 52.1004C174.434 52.1224 174.514 52.1464 174.595 52.1664L174.706 52.1944L174.963 52.2564C175.056 52.2784 175.149 52.3004 175.241 52.3184C175.372 52.3464 175.501 52.3704 175.632 52.3944C175.721 52.4124 175.812 52.4264 175.902 52.4424H175.92L176.178 52.4824H176.241L176.432 52.5084C176.525 52.5224 176.617 52.5344 176.712 52.5444C176.917 52.5698 177.123 52.5918 177.328 52.6104C177.661 52.6424 177.995 52.6664 178.336 52.6865L178.67 52.7065L179.004 52.7225L180.012 52.7665H180.056H180.197C180.616 52.7954 181.036 52.774 181.45 52.7025C181.523 52.6885 181.593 52.6725 181.664 52.6524C181.734 52.6324 181.792 52.6124 181.865 52.5884C182.62 52.3004 183.172 51.6383 183.555 50.9301C183.636 50.7801 183.71 50.6301 183.779 50.4761C183.847 50.322 183.91 50.166 183.966 50.01C184.037 49.81 184.097 49.6199 184.149 49.4199C184.166 49.3659 184.18 49.3119 184.192 49.2559C184.204 49.1999 184.232 49.0898 184.248 49.0058C184.298 48.7758 184.337 48.5437 184.365 48.3097C184.365 48.2357 184.383 48.1597 184.391 48.0857C184.409 47.8856 184.423 47.6996 184.431 47.5036C184.431 47.3555 184.431 47.2055 184.431 47.0555C184.429 46.8935 184.415 46.6794 184.415 46.4734ZM179.25 34.5313C179.087 34.3793 178.92 34.2333 178.751 34.0953C178.939 34.2133 179.107 34.3605 179.248 34.5313H179.25Z" fill="#464353"/>
<path d="M142.655 53.6943C141.138 53.5082 139.633 52.8481 138.137 53.1722C137.2 53.3722 136.394 53.9503 135.645 54.5444C132.856 56.7639 130.485 59.4558 128.64 62.4958C128.328 62.9503 128.108 63.4614 127.994 64C127.897 64.6241 128.068 65.2582 128.272 65.8563C129.65 69.899 132.597 73.2756 133.939 77.3303C135.349 81.595 134.859 86.2558 133.82 90.6245C132.531 96.0179 130.437 101.189 127.607 105.967C127.223 106.678 126.742 107.332 126.177 107.911C125.444 108.612 124.458 109.112 124.023 110.028C123.822 110.428 123.763 110.884 123.62 111.312C123.218 112.512 122.243 113.54 122.148 114.807C122.077 115.773 122.539 116.687 122.819 117.607C123.291 119.188 123.241 120.877 122.676 122.428C121.654 125.208 118.983 127.737 119.759 130.595C121.489 130.101 123.407 129.459 124.223 127.865C124.511 127.301 124.654 126.629 125.139 126.217C126.108 125.398 127.758 126.139 128.788 125.386C129.565 124.814 129.593 123.642 129.247 122.742C128.9 121.842 128.304 121.05 128.038 120.124C127.575 118.453 128.316 116.687 128.179 114.961C128.115 114.161 127.867 113.394 127.849 112.598C127.815 111.052 128.677 109.598 129.823 108.548C130.969 107.497 132.385 106.801 133.779 106.115L139.049 103.515C140.961 102.575 143.056 101.428 143.683 99.4041C143.92 98.6459 143.922 97.8378 143.934 97.0456C144.114 84.9416 147.168 73.0816 150.203 61.3576C150.675 59.5412 151.154 57.7169 151.855 55.9726C152.556 54.2283 153.928 52.8281 154.627 51.2078C150.572 50.7357 146.867 54.2183 142.655 53.6943Z" fill="#464353"/>
<path d="M171.706 129.63C172.172 132.43 172.456 135.29 172.677 138.137C169.051 141.121 165.147 143.718 161.181 146.126C160.955 146.264 160.727 146.4 160.5 146.526L160.482 146.622C160.473 146.6 160.462 146.578 160.449 146.556C160.142 145.896 159.604 145.369 158.935 145.072C157.448 141.972 155.963 138.871 154.479 135.771C153.673 134.096 152.867 132.406 152.464 130.6C152.464 130.562 152.446 130.522 152.44 130.484C152.134 129.083 152.063 127.629 151.86 126.211C151.757 125.399 151.572 124.599 151.31 123.823C151.068 123.132 150.736 122.462 150.442 121.788C150.079 120.956 149.775 120.114 149.761 119.216C149.761 118.93 149.779 118.616 149.638 118.376C149.487 118.169 149.301 117.99 149.088 117.848C148.822 117.613 148.62 117.316 148.502 116.983C148.383 116.65 148.352 116.293 148.411 115.945C147.202 116.007 146.521 117.297 146.036 118.392C145.595 119.462 145.015 120.47 144.312 121.392C143.799 122.051 143.147 122.589 142.402 122.97C142.335 123.002 142.269 123.034 142.2 123.062C140.518 123.799 138.554 123.538 136.731 123.206C135.138 122.916 133.49 122.556 132.209 121.572L132.072 121.464C131.692 121.151 131.354 120.792 131.064 120.396C129.991 118.94 129.515 117.021 129.251 115.195C129.227 115.023 129.203 114.851 129.181 114.679C128.998 113.389 128.947 112.083 129.03 110.782C129.054 110.462 129.088 110.142 129.13 109.824C129.159 109.624 129.189 109.408 129.223 109.2C129.222 109.194 129.222 109.188 129.223 109.182C129.276 108.852 129.332 108.52 129.388 108.182C129.59 107.048 129.791 105.883 130.396 104.907C130.793 104.3 131.295 103.766 131.878 103.331C132.096 103.161 132.319 102.999 132.545 102.843C132.912 102.591 133.288 102.351 133.671 102.125C134.634 101.552 135.645 101.064 136.693 100.665C136.943 100.569 137.196 100.479 137.45 100.393C138.437 100.044 139.499 99.9605 140.528 100.15C141.441 100.282 142.363 100.335 143.284 100.311C145.647 100.265 148.02 99.8164 150.379 99.5264C153.655 99.1263 157.174 99.0783 160.03 100.727C160.167 100.805 160.3 100.887 160.433 100.973C161.843 101.889 162.98 103.173 163.896 104.607C164.098 104.909 164.273 105.219 164.446 105.533C164.845 106.254 165.207 106.995 165.528 107.754C165.718 108.126 165.821 108.537 165.828 108.954C165.823 109.033 165.813 109.112 165.796 109.19C165.741 109.474 165.633 109.75 165.594 110.038C165.467 111.128 166.4 112.039 166.749 113.077C166.974 113.753 166.95 114.477 167.077 115.189C167.26 116.189 167.754 117.089 168.197 117.99C168.897 119.438 169.496 120.934 169.99 122.464C170.34 123.53 170.641 124.613 170.905 125.705C170.99 126.056 171.072 126.407 171.148 126.759C171.368 127.727 171.547 128.675 171.706 129.63Z" fill="#F86D70"/>
<path d="M193.184 100.006V101.406L192.924 101.402L192.634 101.398L189.395 101.358L181.414 101.254L179.174 101.226L178.593 101.218L175.231 101.176L170.493 101.114L160.441 100.984L142.998 100.76L136.702 100.68L134.176 100.648L131.852 100.618L130.403 100.598L129.031 100.58L118.86 100.45L116.04 100.414L115.426 100.406L115.027 99.384L112.128 91.9608L111.598 90.6045L112.001 89.0043L113.814 90.2045L114.93 90.3425L133.304 92.6109L136.753 93.037L144.065 93.9411L151.229 94.8253L154.037 95.1713L170.654 97.2237L175.298 97.7978L179.141 98.2718L192.807 99.9601L193.184 100.006Z" fill="#3F3D56"/>
<path d="M112.001 89.0043L115.627 98.4059L193.184 100.006V89.8044L112.001 89.0043Z" fill="#504F60"/>
<path d="M116.031 99.4065L116.635 156.816L119.455 156.416L118.851 99.4065H116.031Z" fill="#3F3D56"/>
<path d="M192.922 101.401H192.632C192.163 104.98 191.386 108.513 190.31 111.96L189.393 101.359L189.355 100.907L192.743 100.518L192.856 100.506L192.922 101.401Z" fill="#3F3D56"/>
<path d="M181.903 94.6056L152.391 95.2057L143.225 92.2052L167.802 90.8049L181.903 94.6056Z" fill="white"/>
<path d="M144.883 82.9393C144.571 83.0585 144.293 83.2546 144.078 83.5094C143.909 83.7853 143.806 84.096 143.777 84.4175L143.282 87.352C143.206 87.6205 143.22 87.9059 143.32 88.1662C143.449 88.4122 143.824 88.5402 144.011 88.3362C143.987 88.9103 144.037 89.5224 144.374 89.9905C144.71 90.4586 145.415 90.7046 145.891 90.3786C145.965 90.4992 146.065 90.6023 146.184 90.6807C146.303 90.7591 146.437 90.8109 146.578 90.8326C146.719 90.8543 146.863 90.8453 147 90.8063C147.137 90.7673 147.263 90.6991 147.371 90.6066C147.085 90.7026 147.065 91.1367 147.269 91.3567C147.496 91.5564 147.787 91.6716 148.09 91.6828C151.63 92.1783 155.239 91.7274 158.546 90.3766C158.858 90.2485 158.036 86.4259 157.953 86.0338C157.752 85.1117 157.651 83.9855 156.867 83.3654C154.994 81.8811 151.666 81.589 149.384 81.7651C147.824 81.8822 146.299 82.2801 144.883 82.9393Z" fill="#FBBEBE"/>
<path opacity="0.1" d="M174.909 83.3839C167.623 83.5219 160.186 83.6399 153.232 81.4735C153.896 84.0296 153.85 86.7167 153.099 89.2489L187.167 92.0493C188.612 92.1674 194.601 92.8395 196.009 92.5014C197.417 92.1634 184.194 87.8386 184.728 86.5004C186.196 82.8138 191.116 80.6534 187.572 80.5154C183.1 80.3393 179.416 83.2998 174.909 83.3839Z" fill="black"/>
<path d="M175.112 83.7833C167.826 83.9214 160.389 84.0394 153.435 81.873C154.099 84.4291 154.053 87.1161 153.302 89.6484L187.37 92.4488C188.815 92.5669 194.804 93.249 196.212 92.9009C197.62 92.5529 197.29 90.8386 197.823 89.5003C199.292 85.8137 191.319 81.0529 187.775 80.9148C183.303 80.7388 179.619 83.6993 175.112 83.7833Z" fill="#464353"/>
<path d="M163.526 84.3397C163.839 84.4586 164.116 84.6548 164.332 84.9098C164.5 85.186 164.603 85.4965 164.634 85.8179L165.129 88.7524C165.204 89.021 165.191 89.3061 165.091 89.5665C164.962 89.8126 164.585 89.9406 164.4 89.7366C164.422 90.3107 164.374 90.9228 164.038 91.3909C163.701 91.8589 162.996 92.105 162.519 91.7789C162.444 91.8996 162.344 92.0026 162.225 92.081C162.107 92.1595 161.972 92.2113 161.831 92.233C161.691 92.2547 161.547 92.2457 161.41 92.2067C161.273 92.1676 161.146 92.0995 161.038 92.007C161.324 92.103 161.346 92.5371 161.143 92.7571C160.914 92.9568 160.623 93.072 160.319 93.0831C156.779 93.5786 153.171 93.1277 149.866 91.7769C149.554 91.6489 150.373 87.8263 150.458 87.4342C150.659 86.512 150.76 85.3858 151.544 84.7657C153.415 83.2815 156.745 82.9894 159.028 83.1655C160.586 83.2828 162.111 83.6807 163.526 84.3397Z" fill="#FBBEBE"/>
<path d="M115.381 77.9687C114.712 78.8249 114.041 79.699 113.61 80.6972C112.786 82.6015 112.907 84.7579 113.044 86.8262C113.082 87.4263 113.131 88.0384 113.447 88.5365C113.72 88.9128 114.081 89.2181 114.498 89.4267C116.243 90.4108 118.286 90.7049 120.28 90.9249C123.334 91.261 126.399 91.4657 129.474 91.539C137.093 91.7231 144.828 91.1049 152.25 92.8192C151.331 91.433 151.333 89.5987 151.847 88.0184C152.36 86.4381 153.349 85.0619 154.318 83.7077C150.922 82.6395 147.28 84.3078 143.722 84.1418C140.07 83.9717 136.69 81.8754 133.034 81.8774C132.248 81.8774 131.448 81.9754 130.685 81.7874C129.921 81.5993 129.182 81.0272 129.111 80.2491C130.086 80.4671 131.011 79.639 131.414 78.7308C131.817 77.8227 131.889 76.7965 132.28 75.8823C133.253 73.608 135.882 72.5538 137.518 70.6815C137.776 70.3854 138.019 70.0354 138.011 69.6433C137.973 69.3112 137.832 68.9989 137.608 68.7491C136.249 66.9488 134.2 65.9487 132.498 64.5484C131.905 64.0603 130.711 62.22 130.046 62.05C128.813 61.7359 127.768 63.5042 126.966 64.3664C122.918 68.7338 119.057 73.2679 115.381 77.9687Z" fill="#464353"/>
<path opacity="0.07" d="M155.887 77.4604C156.398 77.8364 156.851 78.283 157.235 78.7866C157.426 79.0395 157.562 79.3291 157.634 79.6369C157.707 79.9447 157.714 80.2641 157.656 80.5749C157.593 79.9952 157.723 79.411 158.026 78.9115C158.329 78.412 158.788 78.0247 159.334 77.8084L155.887 77.4604Z" fill="black"/>
<g opacity="0.1">
<path opacity="0.1" d="M167.06 25.0037C166.823 24.3784 166.55 23.7673 166.242 23.1733C166.043 23.2113 165.846 23.2614 165.654 23.3234C165.999 23.8934 166.311 24.4832 166.586 25.0897C166.741 25.0497 166.898 25.0217 167.06 25.0037Z" fill="black"/>
<path opacity="0.1" d="M178.748 32.8912C178.803 32.9357 178.856 32.9863 178.909 33.0329C178.905 33.0197 178.9 33.0069 178.895 32.9944C178.848 32.9607 178.8 32.9263 178.748 32.8912Z" fill="black"/>
<path opacity="0.1" d="M160.02 33.7712C160.125 33.6892 160.222 33.6032 160.335 33.5232L160.302 32.573L158.151 32.551C157.802 32.8691 157.432 33.3252 157.637 33.7512L160.02 33.7712Z" fill="black"/>
<path opacity="0.1" d="M183.542 49.766C183.159 50.4742 182.607 51.1383 181.852 51.4243C181.269 51.6444 180.629 51.6244 180.006 51.5963C177.883 51.5103 175.724 51.4163 173.717 50.7182C172.778 50.3901 171.88 49.9321 170.897 49.73C169.747 49.494 168.556 49.628 167.39 49.764L162.249 50.3641C160.732 50.5402 159.042 50.6722 157.831 49.748C157.138 49.2199 156.691 48.3978 155.931 47.9737C155.611 47.7937 155.23 47.6777 155.023 47.3736C154.892 47.1479 154.822 46.8921 154.821 46.6315C154.805 46.4215 154.795 46.2114 154.787 46.0014C154.765 46.6117 154.777 47.2227 154.821 47.8317C154.822 48.0923 154.892 48.3481 155.023 48.5738C155.224 48.8759 155.611 48.9919 155.931 49.1739C156.691 49.598 157.14 50.4201 157.831 50.9482C159.04 51.8724 160.732 51.7484 162.249 51.5643L167.39 50.9642C168.556 50.8282 169.747 50.6942 170.897 50.9302C171.872 51.1303 172.77 51.5903 173.717 51.9184C175.732 52.6165 177.883 52.7185 180.006 52.7965C180.629 52.8226 181.269 52.8446 181.852 52.6245C182.607 52.3385 183.159 51.6744 183.542 50.9662C184.283 49.596 184.491 48.0417 184.412 46.4755C184.369 47.6225 184.072 48.746 183.542 49.766Z" fill="black"/>
</g>
<path opacity="0.1" d="M167.001 26.2894L169.821 28.8899C169.821 28.8899 167.403 27.8897 167.001 26.2894Z" fill="black"/>
</g>
<defs>
<clipPath id="clip0_438_1376">
<rect width="198" height="160.633" fill="white" transform="translate(0 0.183289)"/>
</clipPath>
</defs>
</svg>
