<svg width="198" height="203" viewBox="0 0 198 203" fill="none" xmlns="http://www.w3.org/2000/svg">
<path d="M197.999 38.3003H101.709V42.8187H197.999V38.3003Z" fill="#E6E6E6"/>
<path d="M134.065 0.509766H109.671V39.5324H134.065V0.509766Z" fill="#E6E6E6"/>
<path d="M129.184 8.31445H114.548V31.728H129.184V8.31445Z" fill="#CCCCCC"/>
<path d="M170.525 0.509766H164.362V39.5324H170.525V0.509766Z" fill="#E6E6E6"/>
<path d="M170.525 6.67139H164.362V11.1898H170.525V6.67139Z" fill="#CCCCCC"/>
<path d="M170.525 26.3877H164.362V30.9061H170.525V26.3877Z" fill="#CCCCCC"/>
<path d="M161.023 0.509766H154.86V39.5324H161.023V0.509766Z" fill="#E6E6E6"/>
<path d="M161.023 6.67139H154.86V11.1898H161.023V6.67139Z" fill="#CCCCCC"/>
<path d="M161.023 26.3877H154.86V30.9061H161.023V26.3877Z" fill="#CCCCCC"/>
<path d="M175.834 0.348106L170.312 4.72217L181.135 39.6934L186.658 35.3194L175.834 0.348106Z" fill="#E6E6E6"/>
<path d="M177.543 5.87008L172.021 10.2441L173.274 14.2934L178.797 9.91938L177.543 5.87008Z" fill="#CCCCCC"/>
<path d="M183.013 23.5395L177.49 27.9136L178.743 31.9629L184.266 27.5888L183.013 23.5395Z" fill="#CCCCCC"/>
<path d="M118.784 16.1733L121.887 24.7721L124.991 33.3708H118.784H112.577L115.681 24.7721L118.784 16.1733Z" fill="#E6E6E6"/>
<path d="M124.178 17.8164L127.281 26.4151L130.385 35.0139H124.178H117.971L121.074 26.4151L124.178 17.8164Z" fill="#E6E6E6"/>
<path d="M126.359 15.2971C127.352 15.2971 128.157 14.0098 128.157 12.4217C128.157 10.8337 127.352 9.54639 126.359 9.54639C125.367 9.54639 124.562 10.8337 124.562 12.4217C124.562 14.0098 125.367 15.2971 126.359 15.2971Z" fill="#E6E6E6"/>
<path d="M101.71 104.844L198 104.844V100.325L101.71 100.325V104.844Z" fill="#E6E6E6"/>
<path d="M165.645 101.558H190.038V62.535L165.645 62.535V101.558Z" fill="#E6E6E6"/>
<path d="M170.522 93.7529H185.158V70.3394H170.522V93.7529Z" fill="#CCCCCC"/>
<path d="M129.184 101.558H135.347V62.535H129.184V101.558Z" fill="#E6E6E6"/>
<path d="M129.184 73.2148H135.347V68.6964H129.184V73.2148Z" fill="#CCCCCC"/>
<path d="M129.184 92.9316H135.347V88.4132H129.184V92.9316Z" fill="#CCCCCC"/>
<path d="M138.684 101.558H144.846V62.535H138.684V101.558Z" fill="#E6E6E6"/>
<path d="M138.684 73.2148H144.846V68.6964H138.684V73.2148Z" fill="#CCCCCC"/>
<path d="M138.684 92.9316H144.846V88.4132H138.684V92.9316Z" fill="#CCCCCC"/>
<path d="M113.051 97.3447L118.573 101.719L129.396 66.7474L123.874 62.3734L113.051 97.3447Z" fill="#E6E6E6"/>
<path d="M120.912 71.9448L126.435 76.3188L127.688 72.2695L122.165 67.8955L120.912 71.9448Z" fill="#CCCCCC"/>
<path d="M115.443 89.6147L120.965 93.9888L122.219 89.9395L116.696 85.5654L115.443 89.6147Z" fill="#CCCCCC"/>
<path d="M180.923 78.1987L177.82 86.7975L174.716 95.3967H180.923H187.13L184.026 86.7975L180.923 78.1987Z" fill="#E6E6E6"/>
<path d="M175.532 79.8413L172.428 88.44L169.325 97.0392H175.532H181.738L178.635 88.44L175.532 79.8413Z" fill="#E6E6E6"/>
<path d="M173.35 77.3225C174.343 77.3225 175.148 76.0352 175.148 74.4471C175.148 72.8591 174.343 71.5718 173.35 71.5718C172.358 71.5718 171.553 72.8591 171.553 74.4471C171.553 76.0352 172.358 77.3225 173.35 77.3225Z" fill="#E6E6E6"/>
<path d="M170.967 202.652C152.472 197.386 132.246 198.261 111.03 202.652C120.7 189.593 129.046 176.533 119.376 163.474C138.238 169.699 140.88 169.069 161.863 163.474C156.996 176.533 166.1 189.593 170.967 202.652Z" fill="#00B495"/>
<path opacity="0.2" d="M170.967 202.652C152.472 197.386 132.246 198.261 111.03 202.652C120.7 189.593 129.046 176.533 119.376 163.474C138.238 169.699 140.88 169.069 161.863 163.474C156.996 176.533 166.1 189.593 170.967 202.652Z" fill="black"/>
<path d="M166.457 197.081C150.745 192.878 133.564 193.576 115.542 197.081C123.756 186.657 130.846 176.233 122.632 165.809C138.655 170.778 140.899 170.275 158.723 165.809C154.589 176.233 162.323 186.657 166.457 197.081Z" fill="#00B495"/>
<path d="M160.472 180.285C165.096 180.285 168.844 174.289 168.844 166.893C168.844 159.497 165.096 153.501 160.472 153.501C155.849 153.501 152.101 159.497 152.101 166.893C152.101 174.289 155.849 180.285 160.472 180.285Z" fill="#2F2E41"/>
<path d="M122.471 151.36L128.271 152.907L131.171 166.31L122.793 174.558L113.126 151.36H122.149H122.471Z" fill="#A0616A"/>
<path d="M138.904 171.98C146.379 171.98 152.438 162.287 152.438 150.329C152.438 138.372 146.379 128.678 138.904 128.678C131.429 128.678 125.37 138.372 125.37 150.329C125.37 162.287 131.429 171.98 138.904 171.98Z" fill="#A0616A"/>
<path d="M64.1439 71.458C64.1439 71.458 31.2751 77.1285 25.4747 76.0975C19.6743 75.0665 17.0964 74.0355 17.0964 74.0355C17.0964 74.0355 13.2294 82.2835 15.1629 85.892C16.2457 87.9713 17.556 89.7181 19.0298 91.047C19.0298 91.047 22.5745 89.5005 25.1525 91.047C27.7304 92.5935 53.8322 99.2949 58.3436 93.1089C62.855 86.923 64.1439 71.458 64.1439 71.458Z" fill="#2F2E41"/>
<path d="M66.4004 186.414C66.4004 186.414 44.8101 176.619 40.9432 133.317V129.193C40.9432 129.193 36.6713 141.182 35.1428 143.627C33.3705 146.463 27.0867 171.98 27.4089 174.557C27.7312 177.135 27.4089 178.166 27.4089 178.166L18.0639 176.619V171.98C18.0639 171.98 23.0587 148.009 23.3809 142.339C23.7031 136.668 35.7873 97.2326 35.7873 97.2326C35.7873 97.2326 40.2987 82.2831 48.0325 97.2326C55.7664 112.182 56.4109 122.492 56.4109 122.492L66.4004 153.422L66.4004 186.414Z" fill="#2F2E41"/>
<path d="M18.0646 72.4887L7.7528 66.8183C7.7528 66.8183 -1.91451 55.4773 0.341195 66.8183C2.5969 78.1592 12.9087 102.903 15.8089 100.326C18.7091 97.7481 22.197 91.3503 21.4198 90.4252C20.6425 89.5002 15.4866 82.7987 18.0646 72.4887Z" fill="#2F2E41"/>
<path d="M19.3075 168.937L10.9833 175.44C10.9833 175.44 0.916844 177.917 6.53082 182.563C12.1448 187.208 27.6316 192.163 28.406 187.827C29.1803 183.492 28.8731 176.296 28.0588 176.487C27.2445 176.679 21.6305 177.608 19.3075 168.937Z" fill="#2F2E41"/>
<path d="M62.21 152.391C62.21 152.391 58.0208 181.259 65.1102 187.445C72.1996 193.631 121.825 194.662 125.692 183.321C129.559 171.98 127.625 171.98 127.625 171.98L117.314 153.422L125.692 152.391C125.692 152.391 125.692 148.267 122.792 147.752C119.892 147.236 110.869 142.081 103.135 145.69C95.4011 149.298 90.8897 138.473 90.8897 138.473L62.21 152.391Z" fill="#575A89"/>
<path d="M56.7319 62.179L51.2536 110.121L88.9563 102.904L95.7233 59.6016L56.7319 62.179Z" fill="#3F3D56"/>
<path d="M57.8608 63.9832L53.3494 106.769L87.6683 100.326L94.2742 61.4058L57.8608 63.9832Z" fill="white"/>
<path d="M52.5431 110.636L51.2541 110.121L50.6097 112.182L60.9216 158.062L61.8913 157.469L62.2103 154.453L52.5431 110.636Z" fill="#B3B3B3"/>
<path d="M51.2536 109.604L61.5655 157.546L100.557 148.267L88.9563 102.903L51.2536 109.604Z" fill="#D0CDE1"/>
<path d="M56.4123 108.058V110.636L85.0918 105.481L84.7696 102.903L56.4123 108.058Z" fill="#3F3D56"/>
<path d="M57.0537 113.213L61.5652 133.318L90.8893 127.647L85.7335 108.574L57.0537 113.213Z" fill="#3F3D56"/>
<path d="M93.7903 141.566L92.8236 137.442C92.8236 137.442 85.412 116.822 81.545 120.946C77.6781 125.07 89.6011 145.174 89.6011 145.174H93.468L93.7903 141.566Z" fill="#A0616A"/>
<path d="M69.2988 144.659L68.332 138.473C68.332 138.473 65.7541 119.399 70.2655 120.43C74.7769 121.461 76.0659 139.504 76.0659 139.504L75.7437 143.628L69.2988 144.659Z" fill="#A0616A"/>
<path d="M77.0327 142.082C77.0327 142.082 68.6544 140.02 68.3321 143.113C68.0099 146.205 66.3987 192.6 74.4548 194.147C82.5109 195.693 122.469 202.395 118.28 186.414C114.091 170.434 107.646 172.496 107.646 172.496L80.2551 177.135L77.0327 142.082Z" fill="#575A89"/>
<path d="M102.329 148.009L93.7895 138.473L88.1501 145.432L95.2396 157.804L102.329 148.009Z" fill="#575A89"/>
<path opacity="0.2" d="M79.4488 157.289L80.7375 176.878L102.972 174.815L83.6377 174.3L79.4488 157.289Z" fill="black"/>
<path d="M145.586 180.039C154.484 180.039 161.698 168.499 161.698 154.264C161.698 140.029 154.484 128.489 145.586 128.489C136.687 128.489 129.473 140.029 129.473 154.264C129.473 168.499 136.687 180.039 145.586 180.039Z" fill="#2F2E41"/>
<path d="M62.6947 78.9328L82.6738 77.8202L84.6072 66.0454L63.9838 67.041L62.6947 78.9328Z" fill="#00B495"/>
<path d="M57.5385 85.6346L87.8293 84.0879L88.1514 82.0259L57.8607 83.732L57.5385 85.6346Z" fill="#E6E6E6"/>
<path d="M56.8946 90.7894L87.1856 89.2428L87.5078 87.1807L57.2168 88.8868L56.8946 90.7894Z" fill="#E6E6E6"/>
<path d="M56.5714 94.913L86.8622 93.3668L87.1846 91.3047L56.8936 93.0104L56.5714 94.913Z" fill="#E6E6E6"/>
</svg>
