<svg width="19" height="19" viewBox="0 0 19 19" fill="none" xmlns="http://www.w3.org/2000/svg">
<path d="M18.2971 11.3492L17.1525 10.2046C17.2827 9.93734 17.3511 9.64423 17.3527 9.34696C17.3527 8.95096 17.2352 8.56384 17.0152 8.23458C16.7952 7.90531 16.4825 7.64868 16.1167 7.49714C15.7508 7.34559 15.3482 7.30594 14.9598 7.3832C14.5714 7.46046 14.2147 7.65115 13.9347 7.93117C13.6546 8.21118 13.4639 8.56795 13.3867 8.95634C13.3094 9.34474 13.3491 9.74732 13.5006 10.1132C13.6522 10.479 13.9088 10.7917 14.2381 11.0118C14.5673 11.2318 14.9544 11.3492 15.3504 11.3492C15.6479 11.3477 15.9413 11.2793 16.2087 11.149L17.3527 12.2929V17.3559H13.3482V15.3537C13.3468 14.115 12.8541 12.9275 11.9783 12.0517C11.1024 11.1759 9.91496 10.6832 8.67634 10.6818H4.67187C3.43325 10.6832 2.24576 11.1759 1.36992 12.0517C0.494081 12.9275 0.00141315 14.115 0 15.3537V18.6907H18.6875V12.2929C18.688 12.1176 18.6537 11.944 18.5867 11.782C18.5197 11.62 18.4213 11.4729 18.2971 11.3492ZM1.33482 15.3537C1.33588 14.4689 1.6878 13.6208 2.31339 12.9952C2.93898 12.3696 3.78716 12.0177 4.67187 12.0166H8.67634C9.56105 12.0177 10.4092 12.3696 11.0348 12.9952C11.6604 13.6208 12.0123 14.4689 12.0134 15.3537V17.3559H1.33482V15.3537Z" fill="#949499"/>
<path d="M6.67432 1.33482C7.33432 1.33482 7.97951 1.53054 8.52828 1.89722C9.07706 2.2639 9.50478 2.78507 9.75735 3.39484C10.0099 4.00461 10.076 4.67558 9.94725 5.3229C9.81849 5.97023 9.50066 6.56483 9.03397 7.03153C8.56727 7.49822 7.97267 7.81605 7.32534 7.94481C6.67802 8.07357 6.00705 8.00748 5.39728 7.75491C4.78752 7.50234 4.26634 7.07462 3.89966 6.52584C3.53298 5.97707 3.33726 5.33188 3.33726 4.67187C3.33726 3.78683 3.68885 2.93804 4.31466 2.31222C4.94048 1.6864 5.78928 1.33482 6.67432 1.33482ZM6.67432 0C5.75031 0 4.84705 0.274001 4.07876 0.787353C3.31048 1.30071 2.71167 2.03035 2.35807 2.88403C2.00447 3.7377 1.91195 4.67706 2.09221 5.58331C2.27248 6.48957 2.71743 7.32202 3.3708 7.97539C4.02418 8.62876 4.85663 9.07372 5.76288 9.25398C6.66913 9.43425 7.60849 9.34173 8.46217 8.98812C9.31584 8.63452 10.0455 8.03572 10.5588 7.26743C11.0722 6.49914 11.3462 5.59588 11.3462 4.67187C11.3462 3.43282 10.854 2.24451 9.97783 1.36836C9.10168 0.492214 7.91337 0 6.67432 0Z" fill="#949499"/>
</svg>
