<svg width="30" height="30" viewBox="0 0 30 30" fill="none" xmlns="http://www.w3.org/2000/svg">
<path d="M13.9451 6.57177C12.9974 6.57177 12.113 6.87228 11.3591 7.39572C11.2811 6.92224 11.1391 6.46534 10.938 6.04128C11.8836 5.44688 12.9494 5.14305 14.03 5.15984C15.1107 5.17662 16.1688 5.51343 17.0997 6.13698C18.0306 6.76053 18.8022 7.64923 19.3382 8.71524C19.8741 9.78125 20.1559 10.9877 20.1556 12.2153H23.2621C23.756 12.2156 24.2296 12.4388 24.5788 12.8356C24.9279 13.2325 25.124 13.7705 25.124 14.3316V22.7968C25.124 23.3581 24.9277 23.8964 24.5783 24.2933C24.2289 24.6902 23.755 24.9131 23.2609 24.9131H15.8083C15.3141 24.9131 14.8402 24.6902 14.4908 24.2933C14.1414 23.8964 13.9451 23.3581 13.9451 22.7968V19.2696C13.0811 19.2709 12.2264 19.0666 11.4361 18.67C11.4522 18.1903 11.4609 17.6866 11.4609 17.1533V17.1039C12.1913 17.5836 13.0396 17.8588 13.9451 17.8588V14.3316C13.9451 13.7703 14.1414 13.232 14.4908 12.8351C14.8402 12.4382 15.3141 12.2153 15.8083 12.2153H18.9135C18.9135 10.7185 18.3901 9.28307 17.4583 8.22471C16.5266 7.16635 15.2628 6.57177 13.9451 6.57177ZM20.0314 13.6261C19.7871 14.9814 19.1978 16.2253 18.3366 17.2035C17.4754 18.1817 16.3803 18.851 15.1872 19.1285V22.7968C15.1872 22.9839 15.2526 23.1633 15.3691 23.2956C15.4856 23.4279 15.6436 23.5023 15.8083 23.5023H23.2609C23.4256 23.5023 23.5836 23.4279 23.7 23.2956C23.8165 23.1633 23.8819 22.9839 23.8819 22.7968V14.3316C23.8819 14.1445 23.8165 13.9651 23.7 13.8328C23.5836 13.7005 23.4256 13.6261 23.2609 13.6261H20.0314ZM18.757 13.6261H15.8083C15.6436 13.6261 15.4856 13.7005 15.3691 13.8328C15.2526 13.9651 15.1872 14.1445 15.1872 14.3316V17.681C16.0465 17.4281 16.8306 16.9188 17.4583 16.2058C18.086 15.4929 18.5344 14.6022 18.757 13.6261V13.6261Z" fill="#949499"/>
<path d="M8.45462 3.9263C8.55793 4.02856 8.62856 4.16675 8.65552 4.31935C8.68248 4.47195 8.66425 4.6304 8.60368 4.77001C8.59316 4.81128 8.58773 4.85401 8.58753 4.89698C8.58753 4.98587 8.6074 5.15517 8.79496 5.36681C8.88563 5.4698 8.95519 5.54317 9.03096 5.62359C9.09306 5.68849 9.1589 5.75621 9.24212 5.84933C9.40359 6.02427 9.57376 6.23026 9.72654 6.48845C10.0433 7.02882 10.2184 7.70463 10.2184 8.68801C10.2184 9.89148 9.8259 10.9172 9.21355 11.5464L9.29304 11.6508C9.64083 12.1362 9.84329 12.7654 9.96999 13.3862C10.2184 14.6137 10.2184 16.0895 10.2184 17.118V17.1533C10.2184 21.0854 9.74765 23.316 9.2297 24.5914C8.96885 25.2333 8.69187 25.6425 8.45214 25.8993C8.35468 26.0055 8.24721 26.0992 8.13168 26.1786C8.07878 26.2148 8.02355 26.2464 7.96648 26.2732C7.96648 26.2732 7.82612 26.3239 7.7342 26.3239C7.64229 26.3239 7.50193 26.2732 7.50193 26.2732C7.44423 26.248 7.38889 26.2163 7.33673 26.1786C7.2212 26.0992 7.11373 26.0055 7.01627 25.8993C6.77654 25.6411 6.49955 25.2333 6.23871 24.5914C5.72076 23.316 5.25 21.0854 5.25 17.1533V17.118C5.25 16.088 5.25 14.6137 5.49842 13.3862C5.62511 12.7654 5.82758 12.1362 6.17537 11.6508C6.20021 11.6156 6.22753 11.5803 6.25486 11.5464C5.6425 10.9172 5.25 9.89148 5.25 8.68801C5.25 8.22806 5.35806 7.67923 5.50712 7.17273C5.65617 6.66481 5.86484 6.13997 6.10581 5.7167C6.39273 5.16646 6.79642 4.70511 7.10943 4.39471C7.28103 4.22329 7.46012 4.06177 7.64601 3.91078L7.68328 3.88257L7.69446 3.87269L7.69818 3.86987L7.70067 3.86846C7.81456 3.78222 7.95035 3.74114 8.08692 3.7516C8.22349 3.76206 8.35319 3.82348 8.45587 3.9263H8.45462ZM7.73793 10.8043C8.21366 10.8029 8.97631 10.1976 8.97631 8.68801C8.97631 7.90779 8.84092 7.52544 8.69186 7.27149C8.60124 7.12316 8.4967 6.98644 8.3801 6.86374L8.22608 6.70008C8.12547 6.59286 8.00747 6.4687 7.91555 6.36571C7.7797 6.213 7.66308 6.03971 7.569 5.85074C7.4109 6.03957 7.27176 6.24777 7.15414 6.47152C6.98025 6.77486 6.81132 7.19107 6.68587 7.61997C6.55669 8.05734 6.4921 8.44392 6.4921 8.68801C6.4921 10.2005 7.25599 10.8043 7.7342 10.8043H7.73669H7.73793ZM7.138 12.5425C6.96286 12.7866 6.81505 13.176 6.70947 13.7037C6.49459 14.759 6.4921 16.0852 6.4921 17.1533C6.4921 20.981 6.95292 22.983 7.36654 24.0002C7.50317 24.3346 7.63111 24.5575 7.7342 24.7057C7.8373 24.5575 7.96648 24.3346 8.10187 24.0002C8.51549 22.983 8.97631 20.981 8.97631 17.1533C8.97631 16.0852 8.97382 14.759 8.75894 13.7037C8.65212 13.176 8.50555 12.7866 8.33041 12.5425C8.2619 12.4371 8.17181 12.3522 8.06793 12.2951C7.96406 12.2381 7.84951 12.2107 7.7342 12.2152H7.73172C7.61681 12.211 7.50273 12.2386 7.3993 12.2956C7.29587 12.3527 7.20619 12.4374 7.138 12.5425V12.5425Z" fill="#949499"/>
</svg>
