<svg width="21" height="18" viewBox="0 0 21 18" fill="none" xmlns="http://www.w3.org/2000/svg">
<path fill-rule="evenodd" clip-rule="evenodd" d="M10.8694 0.650298C10.8694 0.477828 10.8009 0.312422 10.6789 0.190468C10.557 0.0685132 10.3916 0 10.2191 0C10.0466 0 9.88122 0.0685132 9.75927 0.190468C9.63732 0.312422 9.5688 0.477828 9.5688 0.650298V2.16766H7.85722C7.55262 2.16752 7.25502 2.25907 7.00316 2.43038L5.53349 3.43097C5.49741 3.4554 5.45481 3.4684 5.41123 3.46825H1.85454C1.68207 3.46825 1.51666 3.53677 1.39471 3.65872C1.27276 3.78068 1.20424 3.94608 1.20424 4.11855C1.20424 4.29102 1.27276 4.45643 1.39471 4.57838C1.51666 4.70034 1.68207 4.76885 1.85454 4.76885H3.2219L0.302496 11.4279C0.247352 11.5578 0.235279 11.702 0.268046 11.8394C0.300813 11.9767 0.376698 12.0999 0.484579 12.1909C0.553944 12.2464 0.624177 12.2993 0.752502 12.3825C0.913776 12.4874 1.14441 12.6236 1.43922 12.758C2.02882 13.0276 2.88028 13.2956 3.93289 13.2956C4.79304 13.2972 5.64349 13.1139 6.42656 12.758C6.72137 12.6236 6.952 12.4874 7.11328 12.3825C7.24334 12.2984 7.3127 12.2455 7.38207 12.1892C7.49081 12.0992 7.56731 11.9762 7.6 11.8388C7.63269 11.7015 7.61981 11.5573 7.56328 11.4279L4.64301 4.76885H5.41123C5.71557 4.76885 6.01298 4.67694 6.26442 4.50613L7.73496 3.50554C7.7708 3.48127 7.81307 3.46829 7.85635 3.46825H9.5688V16.0407H5.67829C5.50582 16.0407 5.34041 16.1092 5.21846 16.2311C5.0965 16.3531 5.02799 16.5185 5.02799 16.691C5.02799 16.8634 5.0965 17.0288 5.21846 17.1508C5.34041 17.2728 5.50582 17.3413 5.67829 17.3413H14.7599C14.9324 17.3413 15.0978 17.2728 15.2197 17.1508C15.3417 17.0288 15.4102 16.8634 15.4102 16.691C15.4102 16.5185 15.3417 16.3531 15.2197 16.2311C15.0978 16.1092 14.9324 16.0407 14.7599 16.0407H10.8694V3.46825H12.581C12.6243 3.46825 12.6677 3.48126 12.7024 3.50554L14.1738 4.50613C14.4252 4.67694 14.7226 4.76885 15.027 4.76885H15.7952L12.8749 11.4279C12.8165 11.561 12.8044 11.7099 12.8406 11.8507C12.8767 11.9916 12.959 12.1162 13.0743 12.2048C13.0847 12.2126 13.0743 12.2048 13.0761 12.2048C13.1621 12.2696 13.2518 12.3292 13.3449 12.3834C13.5053 12.4805 13.735 12.6054 14.0298 12.7302C14.8139 13.0579 15.6556 13.2254 16.5053 13.2227C17.3554 13.2252 18.1974 13.0575 18.9816 12.7294C19.2747 12.6054 19.5053 12.4805 19.6666 12.3834C19.7593 12.3287 19.849 12.269 19.9354 12.2048C20.0507 12.1162 20.133 11.9916 20.1692 11.8507C20.2053 11.7099 20.1932 11.561 20.1348 11.4279L17.2163 4.76885H18.5845C18.757 4.76885 18.9224 4.70034 19.0444 4.57838C19.1663 4.45643 19.2348 4.29102 19.2348 4.11855C19.2348 3.94608 19.1663 3.78068 19.0444 3.65872C18.9224 3.53677 18.757 3.46825 18.5845 3.46825H15.0278C14.9846 3.46822 14.9423 3.45524 14.9064 3.43097L13.435 2.43038C13.1834 2.25923 12.8862 2.1677 12.5818 2.16766H10.8694V0.650298ZM1.71581 11.4435C2.39828 11.8067 3.15982 11.9958 3.93289 11.9941C4.70596 11.9958 5.4675 11.8067 6.14997 11.4435L3.93289 6.38852L1.71581 11.4435ZM14.2969 11.4227C14.368 11.4574 14.4478 11.4947 14.5353 11.5319C14.9949 11.7253 15.6669 11.9221 16.5053 11.9221C17.2697 11.9243 18.0247 11.7536 18.7137 11.4227L16.5053 6.38766L14.2969 11.4227Z" fill="#949499"/>
</svg>
