<svg width="20" height="25" viewBox="0 0 20 25" fill="none" xmlns="http://www.w3.org/2000/svg">
<path d="M5.38482 0.146074C5.23746 0.170584 5.0982 0.230357 4.97891 0.320301C2.00408 2.27294 0.0273438 5.62496 0.0273438 9.44313C0.0273438 15.162 4.44511 19.8625 10.0473 20.3323V21.4324C8.18172 21.6464 6.83239 22.4175 6.83239 22.4175C6.67025 22.5154 6.54431 22.6634 6.47356 22.8391C6.4028 23.0148 6.39106 23.2088 6.4401 23.3918C6.48913 23.5747 6.59629 23.7368 6.74544 23.8536C6.89459 23.9704 7.07764 24.0356 7.26703 24.0393H14.6809C14.8703 24.0356 15.0534 23.9704 15.2025 23.8536C15.3517 23.7368 15.4588 23.5747 15.5079 23.3918C15.5569 23.2088 15.5452 23.0148 15.4744 22.8391C15.4037 22.6634 15.2777 22.5154 15.1156 22.4175C15.1156 22.4175 13.7663 21.6464 11.9007 21.4324V20.361C13.7109 20.2029 15.453 19.5955 16.9691 18.5938C17.0868 18.5354 17.1907 18.4527 17.274 18.3512C17.3573 18.2496 17.4181 18.1315 17.4523 18.0047C17.4865 17.8779 17.4933 17.7453 17.4724 17.6156C17.4514 17.4859 17.4031 17.3622 17.3307 17.2526C17.2583 17.143 17.1635 17.0501 17.0524 16.9799C16.9414 16.9098 16.8167 16.864 16.6866 16.8457C16.5565 16.8274 16.4241 16.837 16.298 16.8738C16.1719 16.9105 16.055 16.9737 15.9552 17.0591C14.5257 17.9987 12.8578 18.5112 11.1473 18.5363C11.0328 18.5145 10.9152 18.5145 10.8007 18.5363C8.41864 18.4918 6.14925 17.514 4.48087 15.8132C2.8125 14.1125 1.87851 11.8247 1.8799 9.4422C1.88082 6.25978 3.52301 3.47678 5.99277 1.85498C6.17419 1.744 6.31191 1.57399 6.38284 1.37349C6.45376 1.17299 6.45357 0.954195 6.38228 0.753821C6.311 0.553446 6.17297 0.383687 5.99135 0.273027C5.80973 0.162368 5.59558 0.117543 5.38482 0.146074ZM10.974 1.10247C9.48472 1.10247 8.09554 1.50097 6.89078 2.20251C6.77123 2.25626 6.65631 2.33225 6.54325 2.40547C6.39759 2.49784 6.2616 2.60465 6.13734 2.72426C4.13095 4.21446 2.80664 6.58784 2.80664 9.2689C2.80664 10.8564 3.26259 12.3271 4.05217 13.5838C4.08238 13.647 4.12138 13.7057 4.16802 13.758C5.63412 15.9609 8.14095 17.4363 10.974 17.4363C12.5464 17.4424 14.0863 16.9893 15.4047 16.1323C15.4474 16.1055 15.4807 16.0749 15.5206 16.0461C17.6938 14.5745 19.1413 12.0788 19.1413 9.2689C19.1442 7.77655 18.7329 6.31268 17.9533 5.04019C17.9144 4.91861 17.8448 4.80911 17.7512 4.72232C17.7429 4.71119 17.729 4.70378 17.7216 4.69266C17.7038 4.6725 17.6849 4.65332 17.665 4.6352C16.185 2.51667 13.7412 1.10154 10.974 1.10154V1.10247ZM10.974 2.60842C11.5819 2.60842 12.1815 2.68905 12.7404 2.84011L11.7265 3.50551C11.3929 3.24602 11.05 3.01063 10.7136 2.81045C10.6051 2.74651 10.5041 2.69461 10.3948 2.63715C10.5829 2.6214 10.7812 2.60842 10.974 2.60842ZM8.10666 3.44805C8.60432 3.43878 9.23543 3.62598 9.96014 4.05599C10.0982 4.13754 10.2548 4.24782 10.3948 4.34606L6.74528 6.69071C6.7147 6.5239 6.67577 6.35708 6.65909 6.19954C6.51359 4.85762 6.85927 3.98741 7.38287 3.651C7.39029 3.64637 7.40512 3.65471 7.4116 3.651C7.60437 3.53331 7.8203 3.45268 8.10666 3.44712V3.44805ZM14.3622 3.56389C14.372 3.56409 14.3819 3.56409 14.3918 3.56389C15.0665 3.9661 15.6661 4.4619 16.1582 5.06984L14.3047 6.257C13.8515 5.62311 13.3881 5.02721 12.8849 4.51936L14.3622 3.56389ZM11.5819 5.35899C12.1122 5.88669 12.5967 6.45837 13.0304 7.06789L8.13539 10.2244C7.76059 9.57692 7.44127 8.89891 7.18085 8.19759L11.5829 5.35899H11.5819ZM5.18187 5.96785C5.18928 6.09296 5.1967 6.21715 5.2106 6.34411C5.2523 6.72685 5.34776 7.12628 5.44228 7.53126L4.3997 8.19759C4.52398 7.4133 4.78896 6.65791 5.18187 5.96785ZM16.9403 6.31538C17.274 6.99375 17.5196 7.72773 17.6057 8.51639C17.5856 8.53448 17.5664 8.55366 17.5483 8.57385L16.0711 9.52931C15.8208 8.86299 15.5011 8.17627 15.1156 7.50253L16.9394 6.31538H16.9403ZM13.8413 8.31343C14.2352 9.002 14.5577 9.68037 14.7968 10.3402L10.366 13.1788C9.83582 12.6511 9.35125 12.0794 8.91756 11.4699L13.8413 8.31343ZM5.87692 9.00849C6.13085 9.67852 6.47189 10.3587 6.86205 11.0353L5.00857 12.2224C4.65592 11.5245 4.42999 10.7696 4.34132 9.99269L5.87692 9.00941V9.00849ZM17.5483 10.3402C17.424 11.1245 17.159 11.8799 16.7661 12.5699C16.7587 12.4356 16.7522 12.3012 16.7374 12.165C16.6966 11.7924 16.6262 11.3995 16.5344 11.0065L17.5483 10.3402ZM15.2018 11.8462C15.2314 12.0083 15.2722 12.1854 15.2889 12.3383C15.4344 13.6802 15.0887 14.5217 14.5651 14.859C14.0415 15.1954 13.1472 15.1704 11.9878 14.4818C11.8498 14.4003 11.6931 14.29 11.5532 14.1917L15.2027 11.8471L15.2018 11.8462ZM7.64329 12.2808C8.07872 12.8979 8.56312 13.479 9.09178 14.0184L7.5571 15.0036C6.88396 14.6095 6.28568 14.0997 5.78981 13.4976L7.64329 12.2808ZM10.2502 15.0323C10.5736 15.2816 10.9082 15.5049 11.2344 15.6977C11.3623 15.7737 11.4818 15.8339 11.6107 15.9016C11.4049 15.9201 11.1853 15.9294 10.974 15.9294C10.3776 15.9298 9.78373 15.8519 9.20762 15.6977L10.2502 15.0323Z" fill="#949499"/>
</svg>
