<svg width="22" height="22" viewBox="0 0 22 22" fill="none" xmlns="http://www.w3.org/2000/svg">
<path d="M12.8468 2.81217C12.8468 2.15637 12.3154 1.625 11.6596 1.625H10.2928C9.63611 1.625 9.10473 2.15637 9.10473 2.81217C9.10473 3.3529 8.73427 3.81691 8.23002 4.01524C8.15051 4.04705 8.07099 4.08073 7.99334 4.11441C7.49658 4.32958 6.90627 4.26409 6.52271 3.88146C6.3001 3.65901 5.99826 3.53405 5.68355 3.53405C5.36884 3.53405 5.06701 3.65901 4.84439 3.88146L3.87707 4.84879C3.65461 5.0714 3.52965 5.37323 3.52965 5.68795C3.52965 6.00266 3.65461 6.30449 3.87707 6.5271C4.26063 6.91066 4.32612 7.50004 4.10908 7.99773C4.07498 8.07606 4.04223 8.15497 4.01085 8.23442C3.81252 8.73866 3.3485 9.10913 2.80778 9.10913C2.15198 9.10913 1.62061 9.6405 1.62061 10.2963V11.664C1.62061 12.3198 2.15198 12.8512 2.80778 12.8512C3.3485 12.8512 3.81252 13.2217 4.01085 13.7259C4.04266 13.8054 4.07633 13.8849 4.10908 13.9626C4.32518 14.4593 4.2597 15.0497 3.87707 15.4332C3.65461 15.6558 3.52965 15.9577 3.52965 16.2724C3.52965 16.5871 3.65461 16.8889 3.87707 17.1115L4.84439 18.0789C5.06701 18.3013 5.36884 18.4263 5.68355 18.4263C5.99826 18.4263 6.3001 18.3013 6.52271 18.0789C6.90627 17.6953 7.49564 17.6298 7.99334 17.8459C8.07099 17.8805 8.15051 17.9133 8.23002 17.9451C8.73427 18.1434 9.10473 18.6074 9.10473 19.1481C9.10473 19.8039 9.6361 20.3353 10.2919 20.3353H11.6596C12.3154 20.3353 12.8468 19.8039 12.8468 19.1481C12.8468 18.6074 13.2173 18.1434 13.7215 17.9441C13.801 17.9133 13.8805 17.8805 13.9582 17.8468C14.4549 17.6298 15.0453 17.6962 15.4279 18.0789C15.5381 18.1891 15.669 18.2766 15.8131 18.3363C15.9572 18.396 16.1116 18.4267 16.2675 18.4267C16.4235 18.4267 16.5779 18.396 16.7219 18.3363C16.866 18.2766 16.9969 18.1891 17.1071 18.0789L18.0745 17.1115C18.2969 16.8889 18.4219 16.5871 18.4219 16.2724C18.4219 15.9577 18.2969 15.6558 18.0745 15.4332C17.6909 15.0497 17.6254 14.4603 17.8415 13.9626C17.8761 13.8849 17.9089 13.8054 17.9407 13.7259C18.139 13.2217 18.603 12.8512 19.1438 12.8512C19.7995 12.8512 20.3309 12.3198 20.3309 11.664V10.2972C20.3309 9.64144 19.7995 9.11006 19.1438 9.11006C18.603 9.11006 18.139 8.7396 17.9397 8.23536C17.9084 8.15589 17.8756 8.07698 17.8415 7.99867C17.6263 7.50191 17.6918 6.9116 18.0745 6.52804C18.2969 6.30543 18.4219 6.00359 18.4219 5.68888C18.4219 5.37417 18.2969 5.07234 18.0745 4.84972L17.1071 3.8824C16.8845 3.65994 16.5827 3.53498 16.268 3.53498C15.9533 3.53498 15.6514 3.65994 15.4288 3.8824C15.0453 4.26596 14.4559 4.33145 13.9582 4.11534C13.8799 4.08092 13.801 4.04786 13.7215 4.01618C13.2173 3.81691 12.8468 3.3529 12.8468 2.81311V2.81217Z" stroke="#949499" stroke-width="2"/>
<path d="M14.718 10.9803C14.718 11.9728 14.3238 12.9246 13.622 13.6264C12.9202 14.3282 11.9684 14.7224 10.976 14.7224C9.98349 14.7224 9.03169 14.3282 8.32991 13.6264C7.62814 12.9246 7.23389 11.9728 7.23389 10.9803C7.23389 9.98789 7.62814 9.03608 8.32991 8.33431C9.03169 7.63253 9.98349 7.23828 10.976 7.23828C11.9684 7.23828 12.9202 7.63253 13.622 8.33431C14.3238 9.03608 14.718 9.98789 14.718 10.9803Z" stroke="#949499" stroke-width="2"/>
</svg>
