<svg width="20" height="22" viewBox="0 0 20 22" fill="none" xmlns="http://www.w3.org/2000/svg">
<path d="M12.6825 7.37548V0.363281H0.0605469V21.3999H5.6703V17.1925H7.07274V21.3999H19.6947V7.37548H12.6825ZM3.56664 18.595H2.16421V17.1925H3.56664V18.595ZM3.56664 15.0889H2.16421V13.6865H3.56664V15.0889ZM3.56664 11.5828H2.16421V10.1804H3.56664V11.5828ZM3.56664 8.07669H2.16421V6.67426H3.56664V8.07669ZM3.56664 4.5706H2.16421V3.16816H3.56664V4.5706ZM9.1764 3.16816H10.5788V4.5706H9.1764V3.16816ZM7.07274 15.0889H5.6703V13.6865H7.07274V15.0889ZM7.07274 11.5828H5.6703V10.1804H7.07274V11.5828ZM7.07274 8.07669H5.6703V6.67426H7.07274V8.07669ZM7.07274 4.5706H5.6703V3.16816H7.07274V4.5706ZM10.5788 18.595H9.1764V17.1925H10.5788V18.595ZM10.5788 15.0889H9.1764V13.6865H10.5788V15.0889ZM10.5788 11.5828H9.1764V10.1804H10.5788V11.5828ZM10.5788 8.07669H9.1764V6.67426H10.5788V8.07669ZM18.2923 19.9974H12.6825V18.595H14.0849V17.1925H12.6825V15.0889H14.0849V13.6865H12.6825V11.5828H14.0849V10.1804H12.6825V8.77791H18.2923V19.9974Z" fill="#949499"/>
<path d="M15.4879 17.1925H16.8903V18.595H15.4879V17.1925Z" fill="#949499"/>
<path d="M15.4879 13.6855H16.8903V15.0879H15.4879V13.6855Z" fill="#949499"/>
<path d="M15.4879 10.1784H16.8903V11.5809H15.4879V10.1784Z" fill="#949499"/>
</svg>
