<svg width="20" height="22" viewBox="0 0 20 22" fill="none" xmlns="http://www.w3.org/2000/svg">
<path d="M9.78175 20.9643H2.75397C2.4877 20.9643 2.23234 20.8489 2.04406 20.6435C1.85577 20.4381 1.75 20.1595 1.75 19.869V2.34524C1.75 2.05476 1.85577 1.77618 2.04406 1.57079C2.23234 1.36539 2.4877 1.25 2.75397 1.25H16.8095C17.0758 1.25 17.3312 1.36539 17.5194 1.57079C17.7077 1.77618 17.8135 2.05476 17.8135 2.34524V8.64286" stroke="#949499" stroke-width="2" stroke-linecap="round" stroke-linejoin="round"/>
<path d="M16.6262 12.7491C17.836 12.7491 18.8169 13.7786 18.8169 15.0491C18.8169 16.7029 17.3561 18.1157 16.6262 18.8824C16.1393 19.3933 15.5314 19.9048 14.801 20.4157C14.0711 19.9048 13.4622 19.3933 12.9758 18.8824C12.2454 18.1157 10.7852 16.7029 10.7852 15.0491C10.7852 13.7786 11.766 12.7491 12.9758 12.7491C13.7373 12.7491 14.4085 13.1576 14.801 13.7775C15.0063 13.4578 15.2796 13.1972 15.5975 13.0181C15.9155 12.839 16.2684 12.7466 16.6262 12.7491V12.7491Z" stroke="#949499" stroke-width="2" stroke-linejoin="round"/>
<path d="M5.76514 5.63281H13.7969" stroke="#949499" stroke-width="2" stroke-linecap="round"/>
</svg>
