<svg width="20" height="22" viewBox="0 0 20 22" fill="none" xmlns="http://www.w3.org/2000/svg">
<path d="M10.0005 20.7506C9.6033 20.7506 9.21322 20.6455 8.86984 20.4459L1.74484 16.2994C1.51834 16.1674 1.33038 15.9784 1.1997 15.7511C1.06901 15.5239 1.00016 15.2663 1 15.0042V6.99983C1.00032 6.73784 1.06925 6.48051 1.19993 6.25345C1.33061 6.02638 1.51848 5.8375 1.74484 5.70561L8.8689 1.55905C9.21218 1.3592 9.60231 1.25391 9.99953 1.25391C10.3967 1.25391 10.7869 1.3592 11.1302 1.55905L18.2551 5.70561C18.4815 5.8375 18.6694 6.02638 18.8001 6.25345C18.9307 6.48051 18.9997 6.73784 19 6.99983V15.0042C18.9999 15.2662 18.9312 15.5237 18.8007 15.7509C18.6702 15.9782 18.4824 16.1673 18.2561 16.2994L11.1311 20.4459C10.7877 20.6455 10.3976 20.7506 10.0005 20.7506ZM10.0005 20.7506L10 11.375M1.23438 6.21875L10 11.375M10 11.375L18.7656 6.21875" stroke="white" stroke-width="1.5" stroke-linecap="round" stroke-linejoin="round"/>
</svg>
