<svg width="30" height="30" viewBox="0 0 30 30" fill="none" xmlns="http://www.w3.org/2000/svg">
<path d="M24.4167 8.25893C24.7192 8.25893 24.9643 8.00621 24.9643 7.6942V6.56473C24.9643 6.25272 24.7192 6 24.4167 6H5.79762C5.49506 6 5.25 6.25272 5.25 6.56473V7.6942C5.25 8.00621 5.49506 8.25893 5.79762 8.25893H6.34455V21.8125H5.79762C5.49506 21.8125 5.25 22.0652 5.25 22.3772V23.5067C5.25 23.8187 5.49506 24.0714 5.79762 24.0714H14.0119V21.2478C14.0119 20.9372 14.2583 20.683 14.5595 20.683H15.6548C15.956 20.683 16.2024 20.9372 16.2024 21.2478V24.0714H24.4167C24.7192 24.0714 24.9643 23.8187 24.9643 23.5067V22.3772C24.9643 22.0652 24.7192 21.8125 24.4167 21.8125H23.869V8.25893H24.4167ZM14.0119 9.84018C14.0119 9.61429 14.231 9.38839 14.45 9.38839H15.7643C15.9833 9.38839 16.2024 9.61429 16.2024 9.84018V11.1955C16.2024 11.4214 15.9833 11.6473 15.7643 11.6473H14.45C14.231 11.6473 14.0119 11.4214 14.0119 11.1955V9.84018ZM14.0119 13.2286C14.0119 13.0027 14.231 12.7768 14.45 12.7768H15.7643C15.9833 12.7768 16.2024 13.0027 16.2024 13.2286V14.5839C16.2024 14.8098 15.9833 15.0357 15.7643 15.0357H14.45C14.231 15.0357 14.0119 14.8098 14.0119 14.5839V13.2286ZM9.63095 9.84018C9.63095 9.61429 9.85 9.38839 10.069 9.38839H11.3833C11.6024 9.38839 11.8214 9.61429 11.8214 9.84018V11.1955C11.8214 11.4214 11.6024 11.6473 11.3833 11.6473H10.069C9.85 11.6473 9.63095 11.4214 9.63095 11.1955V9.84018ZM11.3833 15.0357H10.069C9.85 15.0357 9.63095 14.8098 9.63095 14.5839V13.2286C9.63095 13.0027 9.85 12.7768 10.069 12.7768H11.3833C11.6024 12.7768 11.8214 13.0027 11.8214 13.2286V14.5839C11.8214 14.8098 11.6024 15.0357 11.3833 15.0357ZM11.8214 19.5536C11.8214 17.6822 13.2925 16.1652 15.1071 16.1652C16.9218 16.1652 18.3929 17.6822 18.3929 19.5536H11.8214ZM20.5833 14.5839C20.5833 14.8098 20.3643 15.0357 20.1452 15.0357H18.831C18.6119 15.0357 18.3929 14.8098 18.3929 14.5839V13.2286C18.3929 13.0027 18.6119 12.7768 18.831 12.7768H20.1452C20.3643 12.7768 20.5833 13.0027 20.5833 13.2286V14.5839ZM20.5833 11.1955C20.5833 11.4214 20.3643 11.6473 20.1452 11.6473H18.831C18.6119 11.6473 18.3929 11.4214 18.3929 11.1955V9.84018C18.3929 9.61429 18.6119 9.38839 18.831 9.38839H20.1452C20.3643 9.38839 20.5833 9.61429 20.5833 9.84018V11.1955Z" fill="#949499"/>
</svg>
